<?xml version="1.0" encoding="UTF-8" standalone="no"?>
<!DOCTYPE svg PUBLIC "-//W3C//DTD SVG 1.1//EN"
 "http://www.w3.org/Graphics/SVG/1.1/DTD/svg11.dtd">
<!-- Generated by graphviz version 2.43.0 (0)
 -->
<!-- Title: G Pages: 1 -->
<svg width="2690pt" height="2188pt"
 viewBox="0.00 0.00 2689.54 2187.61" xmlns="http://www.w3.org/2000/svg" xmlns:xlink="http://www.w3.org/1999/xlink">
<g id="graph0" class="graph" transform="scale(1 1) rotate(0) translate(4 2183.61)">
<title>G</title>
<polygon fill="white" stroke="transparent" points="-4,4 -4,-2183.61 2685.54,-2183.61 2685.54,4 -4,4"/>
<!-- Me -->
<g id="node1" class="node">
<title>Me</title>
<ellipse fill="none" stroke="black" stroke-width="2" cx="1577.01" cy="-1018.28" rx="25.22" ry="25.22"/>
<ellipse fill="none" stroke="black" stroke-width="2" cx="1577.01" cy="-1018.28" rx="29.2" ry="29.2"/>
<text text-anchor="middle" x="1577.01" y="-1014.58" font-family="Times,serif" font-size="14.00">Me</text>
</g>
<!-- Friends -->
<g id="node50" class="node">
<title>Friends</title>
<ellipse fill="none" stroke="black" cx="1682.08" cy="-1316.14" rx="46.29" ry="18"/>
<text text-anchor="middle" x="1682.08" y="-1312.44" font-family="Times,serif" font-size="14.00">Friends</text>
</g>
<!-- Me&#45;&gt;Friends -->
<g id="edge1" class="edge">
<title>Me&#45;&gt;Friends</title>
<path fill="none" stroke="black" d="M1586.8,-1046.04C1606.85,-1102.87 1652.36,-1231.89 1672.35,-1288.57"/>
<polygon fill="black" stroke="black" points="1669.15,-1290.01 1675.78,-1298.28 1675.75,-1287.68 1669.15,-1290.01"/>
</g>
<!-- Family -->
<g id="node51" class="node">
<title>Family</title>
<ellipse fill="none" stroke="black" cx="1121.6" cy="-1042.58" rx="42.49" ry="18"/>
<text text-anchor="middle" x="1121.6" y="-1038.88" font-family="Times,serif" font-size="14.00">Family</text>
</g>
<!-- Me&#45;&gt;Family -->
<g id="edge2" class="edge">
<title>Me&#45;&gt;Family</title>
<path fill="none" stroke="black" d="M1547.48,-1019.86C1471.7,-1023.9 1269.56,-1034.69 1173.58,-1039.81"/>
<polygon fill="black" stroke="black" points="1173.33,-1036.32 1163.53,-1040.35 1173.7,-1043.31 1173.33,-1036.32"/>
</g>
<!-- Coworkers -->
<g id="node52" class="node">
<title>Coworkers</title>
<ellipse fill="none" stroke="black" cx="1880.38" cy="-1336.89" rx="60.39" ry="18"/>
<text text-anchor="middle" x="1880.38" y="-1333.19" font-family="Times,serif" font-size="14.00">Coworkers</text>
</g>
<!-- Me&#45;&gt;Coworkers -->
<g id="edge3" class="edge">
<title>Me&#45;&gt;Coworkers</title>
<path fill="none" stroke="black" d="M1597.39,-1039.68C1651.53,-1096.55 1798.8,-1251.21 1856.62,-1311.93"/>
<polygon fill="black" stroke="black" points="1854.1,-1314.37 1863.53,-1319.2 1859.17,-1309.54 1854.1,-1314.37"/>
</g>
<!-- Ex&#45;Friends -->
<g id="node55" class="node">
<title>Ex&#45;Friends</title>
<ellipse fill="none" stroke="black" cx="1561.6" cy="-612.17" rx="61.19" ry="18"/>
<text text-anchor="middle" x="1561.6" y="-608.47" font-family="Times,serif" font-size="14.00">Ex&#45;Friends</text>
</g>
<!-- Me&#45;&gt;Ex&#45;Friends -->
<g id="edge6" class="edge">
<title>Me&#45;&gt;Ex&#45;Friends</title>
<path fill="none" stroke="black" d="M1575.89,-988.75C1573.03,-913.4 1565.49,-714.76 1562.68,-640.62"/>
<polygon fill="black" stroke="black" points="1566.16,-640.08 1562.29,-630.22 1559.17,-640.34 1566.16,-640.08"/>
</g>
<!-- Ex&#45;Lovers -->
<g id="node56" class="node">
<title>Ex&#45;Lovers</title>
<ellipse fill="none" stroke="black" cx="1908.73" cy="-869.26" rx="56.59" ry="18"/>
<text text-anchor="middle" x="1908.73" y="-865.56" font-family="Times,serif" font-size="14.00">Ex&#45;Lovers</text>
</g>
<!-- Me&#45;&gt;Ex&#45;Lovers -->
<g id="edge7" class="edge">
<title>Me&#45;&gt;Ex&#45;Lovers</title>
<path fill="none" stroke="black" d="M1603.88,-1006.21C1661.47,-980.34 1797.23,-919.35 1866.49,-888.24"/>
<polygon fill="black" stroke="black" points="1868.12,-891.34 1875.8,-884.05 1865.25,-884.96 1868.12,-891.34"/>
</g>
<!-- Mary -->
<g id="node2" class="node">
<title>Mary</title>
<ellipse fill="pink" stroke="black" cx="2119.44" cy="-678.75" rx="35.19" ry="18"/>
<text text-anchor="middle" x="2119.44" y="-675.05" font-family="Times,serif" font-size="14.00">Mary</text>
</g>
<!-- Audrey -->
<g id="node3" class="node">
<title>Audrey</title>
<ellipse fill="pink" stroke="black" cx="2051.92" cy="-547.18" rx="44.39" ry="18"/>
<text text-anchor="middle" x="2051.92" y="-543.48" font-family="Times,serif" font-size="14.00">Audrey</text>
</g>
<!-- Bonnie -->
<g id="node4" class="node">
<title>Bonnie</title>
<ellipse fill="pink" stroke="black" cx="1657.31" cy="-851.13" rx="42.79" ry="18"/>
<text text-anchor="middle" x="1657.31" y="-847.43" font-family="Times,serif" font-size="14.00">Bonnie</text>
</g>
<!-- Liza -->
<g id="node5" class="node">
<title>Liza</title>
<ellipse fill="pink" stroke="black" cx="2155.12" cy="-1031.61" rx="29.8" ry="18"/>
<text text-anchor="middle" x="2155.12" y="-1027.91" font-family="Times,serif" font-size="14.00">Liza</text>
</g>
<!-- Marsha -->
<g id="node6" class="node">
<title>Marsha</title>
<ellipse fill="pink" stroke="black" cx="1358.52" cy="-358.5" rx="46.29" ry="18"/>
<text text-anchor="middle" x="1358.52" y="-354.8" font-family="Times,serif" font-size="14.00">Marsha</text>
</g>
<!-- Amy -->
<g id="node7" class="node">
<title>Amy</title>
<ellipse fill="pink" stroke="black" cx="767" cy="-335.57" rx="31.4" ry="18"/>
<text text-anchor="middle" x="767" y="-331.87" font-family="Times,serif" font-size="14.00">Amy</text>
</g>
<!-- Sean -->
<g id="node43" class="node">
<title>Sean</title>
<ellipse fill="lightblue" stroke="black" cx="619.38" cy="-18" rx="33.6" ry="18"/>
<text text-anchor="middle" x="619.38" y="-14.3" font-family="Times,serif" font-size="14.00">Sean</text>
</g>
<!-- Amy&#45;&gt;Sean -->
<g id="edge32" class="edge">
<title>Amy&#45;&gt;Sean</title>
<path fill="none" stroke="black" d="M758.85,-318.04C734.41,-265.46 661.58,-108.78 632.04,-45.23"/>
<polygon fill="black" stroke="black" points="635.07,-43.46 627.69,-35.86 628.73,-46.41 635.07,-43.46"/>
</g>
<!-- Nancy -->
<g id="node8" class="node">
<title>Nancy</title>
<ellipse fill="pink" stroke="black" cx="608.8" cy="-750.96" rx="40.09" ry="18"/>
<text text-anchor="middle" x="608.8" y="-747.26" font-family="Times,serif" font-size="14.00">Nancy</text>
</g>
<!-- Linda -->
<g id="node9" class="node">
<title>Linda</title>
<ellipse fill="pink" stroke="black" cx="683.27" cy="-546.27" rx="36.29" ry="18"/>
<text text-anchor="middle" x="683.27" y="-542.57" font-family="Times,serif" font-size="14.00">Linda</text>
</g>
<!-- Judy Besen -->
<g id="node10" class="node">
<title>Judy Besen</title>
<ellipse fill="pink" stroke="black" cx="623.59" cy="-1371.6" rx="62.29" ry="18"/>
<text text-anchor="middle" x="623.59" y="-1367.9" font-family="Times,serif" font-size="14.00">Judy Besen</text>
</g>
<!-- Judy Glades -->
<g id="node11" class="node">
<title>Judy Glades</title>
<ellipse fill="pink" stroke="black" cx="65.64" cy="-916.38" rx="65.79" ry="18"/>
<text text-anchor="middle" x="65.64" y="-912.68" font-family="Times,serif" font-size="14.00">Judy Glades</text>
</g>
<!-- Dev -->
<g id="node12" class="node">
<title>Dev</title>
<ellipse fill="pink" stroke="black" cx="2226.12" cy="-566.62" rx="28.7" ry="18"/>
<text text-anchor="middle" x="2226.12" y="-562.92" font-family="Times,serif" font-size="14.00">Dev</text>
</g>
<!-- Nels -->
<g id="node13" class="node">
<title>Nels</title>
<ellipse fill="lightblue" stroke="black" cx="1791.31" cy="-235.39" rx="31.7" ry="18"/>
<text text-anchor="middle" x="1791.31" y="-231.69" font-family="Times,serif" font-size="14.00">Nels</text>
</g>
<!-- Alex -->
<g id="node14" class="node">
<title>Alex</title>
<ellipse fill="lightblue" stroke="black" cx="1501.41" cy="-1471.36" rx="30.59" ry="18"/>
<text text-anchor="middle" x="1501.41" y="-1467.66" font-family="Times,serif" font-size="14.00">Alex</text>
</g>
<!-- Mike -->
<g id="node15" class="node">
<title>Mike</title>
<ellipse fill="lightblue" stroke="black" cx="1783.65" cy="-1986.53" rx="33.6" ry="18"/>
<text text-anchor="middle" x="1783.65" y="-1982.83" font-family="Times,serif" font-size="14.00">Mike</text>
</g>
<!-- Ben Cameron -->
<g id="node16" class="node">
<title>Ben Cameron</title>
<ellipse fill="lightblue" stroke="black" cx="1682.59" cy="-404.81" rx="73.39" ry="18"/>
<text text-anchor="middle" x="1682.59" y="-401.11" font-family="Times,serif" font-size="14.00">Ben Cameron</text>
</g>
<!-- Dave Kapp -->
<g id="node17" class="node">
<title>Dave Kapp</title>
<ellipse fill="lightblue" stroke="black" cx="1463.65" cy="-268.17" rx="61.19" ry="18"/>
<text text-anchor="middle" x="1463.65" y="-264.47" font-family="Times,serif" font-size="14.00">Dave Kapp</text>
</g>
<!-- Ben Wayne -->
<g id="node18" class="node">
<title>Ben Wayne</title>
<ellipse fill="lightblue" stroke="black" cx="1849.61" cy="-582.21" rx="62.29" ry="18"/>
<text text-anchor="middle" x="1849.61" y="-578.51" font-family="Times,serif" font-size="14.00">Ben Wayne</text>
</g>
<!-- James -->
<g id="node19" class="node">
<title>James</title>
<ellipse fill="lightblue" stroke="black" cx="1305.78" cy="-496.22" rx="38.19" ry="18"/>
<text text-anchor="middle" x="1305.78" y="-492.52" font-family="Times,serif" font-size="14.00">James</text>
</g>
<!-- Andy -->
<g id="node20" class="node">
<title>Andy</title>
<ellipse fill="lightblue" stroke="black" cx="536.18" cy="-1534.38" rx="34.39" ry="18"/>
<text text-anchor="middle" x="536.18" y="-1530.68" font-family="Times,serif" font-size="14.00">Andy</text>
</g>
<!-- Andy Jenkins -->
<g id="node21" class="node">
<title>Andy Jenkins</title>
<ellipse fill="lightblue" stroke="black" cx="1475.28" cy="-1648.45" rx="70.69" ry="18"/>
<text text-anchor="middle" x="1475.28" y="-1644.75" font-family="Times,serif" font-size="14.00">Andy Jenkins</text>
</g>
<!-- Cole -->
<g id="node22" class="node">
<title>Cole</title>
<ellipse fill="lightblue" stroke="black" cx="1368.05" cy="-1369.08" rx="31.4" ry="18"/>
<text text-anchor="middle" x="1368.05" y="-1365.38" font-family="Times,serif" font-size="14.00">Cole</text>
</g>
<!-- Pat -->
<g id="node23" class="node">
<title>Pat</title>
<ellipse fill="lightblue" stroke="black" cx="1991.47" cy="-1480.11" rx="27" ry="18"/>
<text text-anchor="middle" x="1991.47" y="-1476.41" font-family="Times,serif" font-size="14.00">Pat</text>
</g>
<!-- Joe -->
<g id="node24" class="node">
<title>Joe</title>
<ellipse fill="lightblue" stroke="black" cx="1596.15" cy="-1589.1" rx="27" ry="18"/>
<text text-anchor="middle" x="1596.15" y="-1585.4" font-family="Times,serif" font-size="14.00">Joe</text>
</g>
<!-- Michael Vincent -->
<g id="node25" class="node">
<title>Michael Vincent</title>
<ellipse fill="lightblue" stroke="black" cx="1849.18" cy="-386.73" rx="85.29" ry="18"/>
<text text-anchor="middle" x="1849.18" y="-383.03" font-family="Times,serif" font-size="14.00">Michael Vincent</text>
</g>
<!-- Kyle -->
<g id="node26" class="node">
<title>Kyle</title>
<ellipse fill="lightblue" stroke="black" cx="2068.13" cy="-1239.07" rx="30.59" ry="18"/>
<text text-anchor="middle" x="2068.13" y="-1235.37" font-family="Times,serif" font-size="14.00">Kyle</text>
</g>
<!-- Mike (forevern00b) -->
<g id="node30" class="node">
<title>Mike (forevern00b)</title>
<ellipse fill="lightblue" stroke="black" cx="2420.32" cy="-929.86" rx="100.98" ry="18"/>
<text text-anchor="middle" x="2420.32" y="-926.16" font-family="Times,serif" font-size="14.00">Mike (forevern00b)</text>
</g>
<!-- Kyle&#45;&gt;Mike (forevern00b) -->
<g id="edge54" class="edge">
<title>Kyle&#45;&gt;Mike (forevern00b)</title>
<path fill="none" stroke="black" d="M2085.6,-1223.74C2142.53,-1173.75 2323.08,-1015.24 2392.64,-954.17"/>
<polygon fill="black" stroke="black" points="2394.96,-956.79 2400.17,-947.56 2390.35,-951.52 2394.96,-956.79"/>
</g>
<!-- Wade -->
<g id="node27" class="node">
<title>Wade</title>
<ellipse fill="lightblue" stroke="black" cx="2611.94" cy="-1395.42" rx="36.29" ry="18"/>
<text text-anchor="middle" x="2611.94" y="-1391.72" font-family="Times,serif" font-size="14.00">Wade</text>
</g>
<!-- Corey -->
<g id="node28" class="node">
<title>Corey</title>
<ellipse fill="lightblue" stroke="black" cx="2363.07" cy="-1624.65" rx="38.19" ry="18"/>
<text text-anchor="middle" x="2363.07" y="-1620.95" font-family="Times,serif" font-size="14.00">Corey</text>
</g>
<!-- Steven -->
<g id="node29" class="node">
<title>Steven</title>
<ellipse fill="lightblue" stroke="black" cx="2516.92" cy="-1075.86" rx="42.79" ry="18"/>
<text text-anchor="middle" x="2516.92" y="-1072.16" font-family="Times,serif" font-size="14.00">Steven</text>
</g>
<!-- Jef -->
<g id="node31" class="node">
<title>Jef</title>
<ellipse fill="lightblue" stroke="black" cx="2491.73" cy="-1597.45" rx="27" ry="18"/>
<text text-anchor="middle" x="2491.73" y="-1593.75" font-family="Times,serif" font-size="14.00">Jef</text>
</g>
<!-- Mike Stabnow -->
<g id="node32" class="node">
<title>Mike Stabnow</title>
<ellipse fill="lightblue" stroke="black" cx="2604.2" cy="-1156.15" rx="77.19" ry="18"/>
<text text-anchor="middle" x="2604.2" y="-1152.45" font-family="Times,serif" font-size="14.00">Mike Stabnow</text>
</g>
<!-- Jon Yu -->
<g id="node33" class="node">
<title>Jon Yu</title>
<ellipse fill="lightblue" stroke="black" cx="1693.54" cy="-2114.17" rx="39.79" ry="18"/>
<text text-anchor="middle" x="1693.54" y="-2110.47" font-family="Times,serif" font-size="14.00">Jon Yu</text>
</g>
<!-- Sahil -->
<g id="node34" class="node">
<title>Sahil</title>
<ellipse fill="lightblue" stroke="black" cx="1855.56" cy="-2161.61" rx="34.39" ry="18"/>
<text text-anchor="middle" x="1855.56" y="-2157.91" font-family="Times,serif" font-size="14.00">Sahil</text>
</g>
<!-- Lokesh -->
<g id="node35" class="node">
<title>Lokesh</title>
<ellipse fill="lightblue" stroke="black" cx="2176.31" cy="-2068.21" rx="43.59" ry="18"/>
<text text-anchor="middle" x="2176.31" y="-2064.51" font-family="Times,serif" font-size="14.00">Lokesh</text>
</g>
<!-- Ruthvik -->
<g id="node36" class="node">
<title>Ruthvik</title>
<ellipse fill="lightblue" stroke="black" cx="2287.3" cy="-1960.4" rx="46.59" ry="18"/>
<text text-anchor="middle" x="2287.3" y="-1956.7" font-family="Times,serif" font-size="14.00">Ruthvik</text>
</g>
<!-- David Ward -->
<g id="node37" class="node">
<title>David Ward</title>
<ellipse fill="lightblue" stroke="black" cx="2025.4" cy="-2138.35" rx="64.99" ry="18"/>
<text text-anchor="middle" x="2025.4" y="-2134.65" font-family="Times,serif" font-size="14.00">David Ward</text>
</g>
<!-- Adam -->
<g id="node38" class="node">
<title>Adam</title>
<ellipse fill="lightblue" stroke="black" cx="898.62" cy="-1734.55" rx="37.09" ry="18"/>
<text text-anchor="middle" x="898.62" y="-1730.85" font-family="Times,serif" font-size="14.00">Adam</text>
</g>
<!-- Karl -->
<g id="node39" class="node">
<title>Karl</title>
<ellipse fill="lightblue" stroke="black" cx="466.24" cy="-1229.87" rx="30.59" ry="18"/>
<text text-anchor="middle" x="466.24" y="-1226.17" font-family="Times,serif" font-size="14.00">Karl</text>
</g>
<!-- Matt -->
<g id="node40" class="node">
<title>Matt</title>
<ellipse fill="lightblue" stroke="black" cx="696.51" cy="-1629.06" rx="33.29" ry="18"/>
<text text-anchor="middle" x="696.51" y="-1625.36" font-family="Times,serif" font-size="14.00">Matt</text>
</g>
<!-- Peter -->
<g id="node41" class="node">
<title>Peter</title>
<ellipse fill="lightblue" stroke="black" cx="760.93" cy="-1764.14" rx="36" ry="18"/>
<text text-anchor="middle" x="760.93" y="-1760.44" font-family="Times,serif" font-size="14.00">Peter</text>
</g>
<!-- Kevin -->
<g id="node42" class="node">
<title>Kevin</title>
<ellipse fill="lightblue" stroke="black" cx="517.66" cy="-1035.37" rx="36.29" ry="18"/>
<text text-anchor="middle" x="517.66" y="-1031.67" font-family="Times,serif" font-size="14.00">Kevin</text>
</g>
<!-- Bob -->
<g id="node44" class="node">
<title>Bob</title>
<ellipse fill="lightblue" stroke="black" cx="939.94" cy="-346.83" rx="28.7" ry="18"/>
<text text-anchor="middle" x="939.94" y="-343.13" font-family="Times,serif" font-size="14.00">Bob</text>
</g>
<!-- Gary -->
<g id="node45" class="node">
<title>Gary</title>
<ellipse fill="lightblue" stroke="black" cx="166.46" cy="-589.98" rx="33.29" ry="18"/>
<text text-anchor="middle" x="166.46" y="-586.28" font-family="Times,serif" font-size="14.00">Gary</text>
</g>
<!-- Michael Scheetz -->
<g id="node46" class="node">
<title>Michael Scheetz</title>
<ellipse fill="lightblue" stroke="black" cx="2504.36" cy="-1472.58" rx="87.18" ry="18"/>
<text text-anchor="middle" x="2504.36" y="-1468.88" font-family="Times,serif" font-size="14.00">Michael Scheetz</text>
</g>
<!-- Don -->
<g id="node47" class="node">
<title>Don</title>
<ellipse fill="lightblue" stroke="black" cx="2557.39" cy="-1271.97" rx="29.5" ry="18"/>
<text text-anchor="middle" x="2557.39" y="-1268.27" font-family="Times,serif" font-size="14.00">Don</text>
</g>
<!-- Matt Bishop -->
<g id="node48" class="node">
<title>Matt Bishop</title>
<ellipse fill="lightblue" stroke="black" cx="1605.77" cy="-220.67" rx="67.69" ry="18"/>
<text text-anchor="middle" x="1605.77" y="-216.97" font-family="Times,serif" font-size="14.00">Matt Bishop</text>
</g>
<!-- Deceased -->
<g id="node49" class="node">
<title>Deceased</title>
<ellipse fill="black" stroke="black" cx="222.94" cy="-1487.57" rx="55.49" ry="18"/>
<text text-anchor="middle" x="222.94" y="-1483.87" font-family="Times,serif" font-size="14.00" fill="white">Deceased</text>
</g>
<!-- Deceased&#45;&gt;Andy -->
<g id="edge30" class="edge">
<title>Deceased&#45;&gt;Andy</title>
<path fill="none" stroke="black" d="M273.27,-1495.09C334,-1504.16 435.09,-1519.27 492.62,-1527.87"/>
<polygon fill="black" stroke="black" points="492.43,-1531.38 502.83,-1529.4 493.46,-1524.46 492.43,-1531.38"/>
</g>
<!-- Deceased&#45;&gt;Karl -->
<g id="edge31" class="edge">
<title>Deceased&#45;&gt;Karl</title>
<path fill="none" stroke="black" d="M239.28,-1470.26C281.85,-1425.18 396.16,-1304.1 444.34,-1253.06"/>
<polygon fill="black" stroke="black" points="446.9,-1255.45 451.22,-1245.77 441.81,-1250.64 446.9,-1255.45"/>
</g>
<!-- Friends&#45;&gt;Alex -->
<g id="edge33" class="edge">
<title>Friends&#45;&gt;Alex</title>
<path fill="none" stroke="black" d="M1662.74,-1332.76C1629.82,-1361.04 1562.91,-1418.52 1526.46,-1449.84"/>
<polygon fill="black" stroke="black" points="1524.04,-1447.3 1518.73,-1456.47 1528.6,-1452.61 1524.04,-1447.3"/>
</g>
<!-- Friends&#45;&gt;Andy Jenkins -->
<g id="edge37" class="edge">
<title>Friends&#45;&gt;Andy Jenkins</title>
<path fill="none" stroke="black" d="M1670.96,-1334.01C1636.67,-1389.12 1532.4,-1556.66 1491.76,-1621.98"/>
<polygon fill="black" stroke="black" points="1488.77,-1620.16 1486.46,-1630.5 1494.71,-1623.86 1488.77,-1620.16"/>
</g>
<!-- Friends&#45;&gt;Cole -->
<g id="edge38" class="edge">
<title>Friends&#45;&gt;Cole</title>
<path fill="none" stroke="black" d="M1639.4,-1323.34C1578.65,-1333.58 1468.03,-1352.23 1408.52,-1362.26"/>
<polygon fill="black" stroke="black" points="1407.65,-1358.85 1398.37,-1363.97 1408.82,-1365.76 1407.65,-1358.85"/>
</g>
<!-- Friends&#45;&gt;Pat -->
<g id="edge36" class="edge">
<title>Friends&#45;&gt;Pat</title>
<path fill="none" stroke="black" d="M1709.54,-1330.7C1767.23,-1361.27 1900.69,-1432 1960.96,-1463.94"/>
<polygon fill="black" stroke="black" points="1959.51,-1467.13 1969.98,-1468.72 1962.78,-1460.94 1959.51,-1467.13"/>
</g>
<!-- Friends&#45;&gt;Joe -->
<g id="edge34" class="edge">
<title>Friends&#45;&gt;Joe</title>
<path fill="none" stroke="black" d="M1676.44,-1334.05C1661.78,-1380.63 1622.38,-1505.79 1604.81,-1561.59"/>
<polygon fill="black" stroke="black" points="1601.37,-1560.89 1601.7,-1571.48 1608.04,-1562.99 1601.37,-1560.89"/>
</g>
<!-- Friends&#45;&gt;Kyle -->
<g id="edge35" class="edge">
<title>Friends&#45;&gt;Kyle</title>
<path fill="none" stroke="black" d="M1723.39,-1307.9C1798.29,-1292.94 1955.52,-1261.55 2028.88,-1246.91"/>
<polygon fill="black" stroke="black" points="2029.96,-1250.26 2039.08,-1244.87 2028.59,-1243.4 2029.96,-1250.26"/>
</g>
<!-- IRC -->
<g id="node61" class="node">
<title>IRC</title>
<ellipse fill="none" stroke="black" cx="1745.77" cy="-1646.11" rx="27.9" ry="18"/>
<text text-anchor="middle" x="1745.77" y="-1642.41" font-family="Times,serif" font-size="14.00">IRC</text>
</g>
<!-- Friends&#45;&gt;IRC -->
<g id="edge39" class="edge">
<title>Friends&#45;&gt;IRC</title>
<path fill="none" stroke="black" d="M1685.59,-1334.36C1696.14,-1389 1727.58,-1551.88 1740.32,-1617.87"/>
<polygon fill="black" stroke="black" points="1736.93,-1618.8 1742.26,-1627.96 1743.81,-1617.48 1736.93,-1618.8"/>
</g>
<!-- Immediate family -->
<g id="node57" class="node">
<title>Immediate family</title>
<ellipse fill="none" stroke="black" cx="966.07" cy="-696.35" rx="92.08" ry="18"/>
<text text-anchor="middle" x="966.07" y="-692.65" font-family="Times,serif" font-size="14.00">Immediate family</text>
</g>
<!-- Family&#45;&gt;Immediate family -->
<g id="edge13" class="edge">
<title>Family&#45;&gt;Immediate family</title>
<path fill="none" stroke="black" d="M1113.46,-1024.46C1087.84,-967.43 1008.8,-791.46 978.27,-723.51"/>
<polygon fill="black" stroke="black" points="981.43,-721.99 974.14,-714.3 975.04,-724.85 981.43,-721.99"/>
</g>
<!-- Mom&#39;s side -->
<g id="node58" class="node">
<title>Mom&#39;s side</title>
<ellipse fill="none" stroke="black" cx="780.21" cy="-1005.85" rx="63.89" ry="18"/>
<text text-anchor="middle" x="780.21" y="-1002.15" font-family="Times,serif" font-size="14.00">Mom&#39;s side</text>
</g>
<!-- Family&#45;&gt;Mom&#39;s side -->
<g id="edge14" class="edge">
<title>Family&#45;&gt;Mom&#39;s side</title>
<path fill="none" stroke="black" d="M1080.42,-1038.15C1023.29,-1032 919.2,-1020.8 849.86,-1013.34"/>
<polygon fill="black" stroke="black" points="850.21,-1009.86 839.89,-1012.27 849.46,-1016.82 850.21,-1009.86"/>
</g>
<!-- Dad&#39;s side -->
<g id="node59" class="node">
<title>Dad&#39;s side</title>
<ellipse fill="none" stroke="black" cx="900.57" cy="-1386.96" rx="58.49" ry="18"/>
<text text-anchor="middle" x="900.57" y="-1383.26" font-family="Times,serif" font-size="14.00">Dad&#39;s side</text>
</g>
<!-- Family&#45;&gt;Dad&#39;s side -->
<g id="edge15" class="edge">
<title>Family&#45;&gt;Dad&#39;s side</title>
<path fill="none" stroke="black" d="M1110.33,-1060.13C1074.21,-1116.43 961.08,-1292.69 917.72,-1360.25"/>
<polygon fill="black" stroke="black" points="914.54,-1358.73 912.08,-1369.03 920.43,-1362.51 914.54,-1358.73"/>
</g>
<!-- Current coworkers -->
<g id="node53" class="node">
<title>Current coworkers</title>
<ellipse fill="none" stroke="black" cx="1942.69" cy="-1799.84" rx="98.28" ry="18"/>
<text text-anchor="middle" x="1942.69" y="-1796.14" font-family="Times,serif" font-size="14.00">Current coworkers</text>
</g>
<!-- Coworkers&#45;&gt;Current coworkers -->
<g id="edge4" class="edge">
<title>Coworkers&#45;&gt;Current coworkers</title>
<path fill="none" stroke="black" d="M1882.82,-1355.04C1892.38,-1426.06 1927.29,-1685.46 1938.9,-1771.73"/>
<polygon fill="black" stroke="black" points="1935.46,-1772.37 1940.26,-1781.82 1942.39,-1771.44 1935.46,-1772.37"/>
</g>
<!-- Previous coworkers -->
<g id="node54" class="node">
<title>Previous coworkers</title>
<ellipse fill="none" stroke="black" cx="2255.85" cy="-1324.36" rx="102.08" ry="18"/>
<text text-anchor="middle" x="2255.85" y="-1320.66" font-family="Times,serif" font-size="14.00">Previous coworkers</text>
</g>
<!-- Coworkers&#45;&gt;Previous coworkers -->
<g id="edge5" class="edge">
<title>Coworkers&#45;&gt;Previous coworkers</title>
<path fill="none" stroke="black" d="M1940.7,-1334.87C1995.71,-1333.04 2078.36,-1330.28 2145.22,-1328.05"/>
<polygon fill="black" stroke="black" points="2145.51,-1331.54 2155.39,-1327.71 2145.27,-1324.55 2145.51,-1331.54"/>
</g>
<!-- Current coworkers&#45;&gt;Jon Yu -->
<g id="edge67" class="edge">
<title>Current coworkers&#45;&gt;Jon Yu</title>
<path fill="none" stroke="black" d="M1928.21,-1818.1C1885.86,-1871.53 1762.09,-2027.69 1713.48,-2089.02"/>
<polygon fill="black" stroke="black" points="1710.6,-2087.01 1707.13,-2097.02 1716.09,-2091.36 1710.6,-2087.01"/>
</g>
<!-- Current coworkers&#45;&gt;Sahil -->
<g id="edge66" class="edge">
<title>Current coworkers&#45;&gt;Sahil</title>
<path fill="none" stroke="black" d="M1938.25,-1818.28C1924,-1877.44 1879.36,-2062.78 1862.29,-2133.66"/>
<polygon fill="black" stroke="black" points="1858.83,-2133.1 1859.89,-2143.64 1865.63,-2134.74 1858.83,-2133.1"/>
</g>
<!-- Current coworkers&#45;&gt;Lokesh -->
<g id="edge69" class="edge">
<title>Current coworkers&#45;&gt;Lokesh</title>
<path fill="none" stroke="black" d="M1958.38,-1817.87C1999.05,-1864.59 2107.97,-1989.71 2154.62,-2043.29"/>
<polygon fill="black" stroke="black" points="2152.09,-2045.72 2161.29,-2050.96 2157.37,-2041.12 2152.09,-2045.72"/>
</g>
<!-- Current coworkers&#45;&gt;Ruthvik -->
<g id="edge68" class="edge">
<title>Current coworkers&#45;&gt;Ruthvik</title>
<path fill="none" stroke="black" d="M1978.91,-1816.72C2043.97,-1847.03 2180.09,-1910.46 2247.59,-1941.9"/>
<polygon fill="black" stroke="black" points="2246.5,-1945.25 2257.04,-1946.3 2249.45,-1938.91 2246.5,-1945.25"/>
</g>
<!-- Current coworkers&#45;&gt;David Ward -->
<g id="edge65" class="edge">
<title>Current coworkers&#45;&gt;David Ward</title>
<path fill="none" stroke="black" d="M1947.13,-1818.04C1960.76,-1873.83 2002.04,-2042.76 2018.51,-2110.15"/>
<polygon fill="black" stroke="black" points="2015.15,-2111.17 2020.93,-2120.06 2021.95,-2109.51 2015.15,-2111.17"/>
</g>
<!-- Previous coworkers&#45;&gt;Liza -->
<g id="edge63" class="edge">
<title>Previous coworkers&#45;&gt;Liza</title>
<path fill="none" stroke="black" d="M2249.55,-1306.05C2232.44,-1256.33 2185.05,-1118.61 2164.66,-1059.33"/>
<polygon fill="black" stroke="black" points="2167.85,-1057.86 2161.29,-1049.54 2161.23,-1060.13 2167.85,-1057.86"/>
</g>
<!-- Previous coworkers&#45;&gt;Pat -->
<g id="edge64" class="edge">
<title>Previous coworkers&#45;&gt;Pat</title>
<path fill="none" stroke="black" d="M2226.54,-1341.62C2175.66,-1371.59 2071.57,-1432.92 2020.72,-1462.87"/>
<polygon fill="black" stroke="black" points="2018.71,-1459.99 2011.87,-1468.08 2022.27,-1466.02 2018.71,-1459.99"/>
</g>
<!-- Previous coworkers&#45;&gt;Kyle -->
<g id="edge60" class="edge">
<title>Previous coworkers&#45;&gt;Kyle</title>
<path fill="none" stroke="black" d="M2218.76,-1307.51C2184.72,-1292.04 2134.73,-1269.33 2101.82,-1254.38"/>
<polygon fill="black" stroke="black" points="2103.15,-1251.14 2092.6,-1250.19 2100.26,-1257.51 2103.15,-1251.14"/>
</g>
<!-- Previous coworkers&#45;&gt;Wade -->
<g id="edge58" class="edge">
<title>Previous coworkers&#45;&gt;Wade</title>
<path fill="none" stroke="black" d="M2323.66,-1337.89C2395.39,-1352.2 2506.46,-1374.37 2567.68,-1386.59"/>
<polygon fill="black" stroke="black" points="2567.3,-1390.08 2577.79,-1388.6 2568.67,-1383.21 2567.3,-1390.08"/>
</g>
<!-- Previous coworkers&#45;&gt;Corey -->
<g id="edge57" class="edge">
<title>Previous coworkers&#45;&gt;Corey</title>
<path fill="none" stroke="black" d="M2262.39,-1342.69C2280.53,-1393.49 2331.52,-1536.29 2353.16,-1596.9"/>
<polygon fill="black" stroke="black" points="2349.95,-1598.31 2356.61,-1606.55 2356.54,-1595.96 2349.95,-1598.31"/>
</g>
<!-- Previous coworkers&#45;&gt;Steven -->
<g id="edge55" class="edge">
<title>Previous coworkers&#45;&gt;Steven</title>
<path fill="none" stroke="black" d="M2274.62,-1306.49C2320.78,-1262.56 2439.79,-1149.28 2491.88,-1099.7"/>
<polygon fill="black" stroke="black" points="2494.52,-1102.02 2499.35,-1092.59 2489.7,-1096.95 2494.52,-1102.02"/>
</g>
<!-- Previous coworkers&#45;&gt;Jef -->
<g id="edge56" class="edge">
<title>Previous coworkers&#45;&gt;Jef</title>
<path fill="none" stroke="black" d="M2271.32,-1342.28C2312.56,-1390.02 2425.09,-1520.3 2471.4,-1573.92"/>
<polygon fill="black" stroke="black" points="2468.81,-1576.27 2477.99,-1581.55 2474.11,-1571.69 2468.81,-1576.27"/>
</g>
<!-- Previous coworkers&#45;&gt;Mike Stabnow -->
<g id="edge59" class="edge">
<title>Previous coworkers&#45;&gt;Mike Stabnow</title>
<path fill="none" stroke="black" d="M2291.17,-1307.3C2355.51,-1276.23 2491.6,-1210.52 2561.22,-1176.9"/>
<polygon fill="black" stroke="black" points="2563.1,-1179.88 2570.58,-1172.38 2560.06,-1173.57 2563.1,-1179.88"/>
</g>
<!-- Previous coworkers&#45;&gt;Michael Scheetz -->
<g id="edge62" class="edge">
<title>Previous coworkers&#45;&gt;Michael Scheetz</title>
<path fill="none" stroke="black" d="M2284.84,-1341.65C2329.92,-1368.54 2416.81,-1420.36 2466.69,-1450.11"/>
<polygon fill="black" stroke="black" points="2465.17,-1453.28 2475.55,-1455.4 2468.75,-1447.27 2465.17,-1453.28"/>
</g>
<!-- Previous coworkers&#45;&gt;Don -->
<g id="edge61" class="edge">
<title>Previous coworkers&#45;&gt;Don</title>
<path fill="none" stroke="black" d="M2328.84,-1311.68C2388.76,-1301.26 2471.25,-1286.93 2518.99,-1278.64"/>
<polygon fill="black" stroke="black" points="2519.66,-1282.07 2528.92,-1276.91 2518.47,-1275.18 2519.66,-1282.07"/>
</g>
<!-- Ex&#45;Friends&#45;&gt;Marsha -->
<g id="edge51" class="edge">
<title>Ex&#45;Friends&#45;&gt;Marsha</title>
<path fill="none" stroke="black" d="M1547.32,-594.34C1511.91,-550.11 1419.98,-435.27 1378.89,-383.94"/>
<polygon fill="black" stroke="black" points="1381.5,-381.6 1372.51,-375.98 1376.03,-385.97 1381.5,-381.6"/>
</g>
<!-- Ex&#45;Friends&#45;&gt;Nels -->
<g id="edge50" class="edge">
<title>Ex&#45;Friends&#45;&gt;Nels</title>
<path fill="none" stroke="black" d="M1572.68,-594C1610.08,-532.66 1731.73,-333.12 1775.47,-261.38"/>
<polygon fill="black" stroke="black" points="1778.65,-262.87 1780.87,-252.51 1772.68,-259.23 1778.65,-262.87"/>
</g>
<!-- Ex&#45;Friends&#45;&gt;Ben Cameron -->
<g id="edge48" class="edge">
<title>Ex&#45;Friends&#45;&gt;Ben Cameron</title>
<path fill="none" stroke="black" d="M1572.13,-594.14C1593.5,-557.51 1642.07,-474.27 1667.07,-431.41"/>
<polygon fill="black" stroke="black" points="1670.16,-433.07 1672.18,-422.66 1664.12,-429.54 1670.16,-433.07"/>
</g>
<!-- Ex&#45;Friends&#45;&gt;Dave Kapp -->
<g id="edge52" class="edge">
<title>Ex&#45;Friends&#45;&gt;Dave Kapp</title>
<path fill="none" stroke="black" d="M1556.47,-594.16C1540.41,-537.75 1490.99,-364.2 1471.58,-296.05"/>
<polygon fill="black" stroke="black" points="1474.95,-295.08 1468.84,-286.42 1468.21,-296.99 1474.95,-295.08"/>
</g>
<!-- Ex&#45;Friends&#45;&gt;Ben Wayne -->
<g id="edge47" class="edge">
<title>Ex&#45;Friends&#45;&gt;Ben Wayne</title>
<path fill="none" stroke="black" d="M1619.54,-606.15C1666.01,-601.31 1731.36,-594.52 1780.54,-589.4"/>
<polygon fill="black" stroke="black" points="1781.19,-592.85 1790.78,-588.33 1780.47,-585.89 1781.19,-592.85"/>
</g>
<!-- Ex&#45;Friends&#45;&gt;James -->
<g id="edge49" class="edge">
<title>Ex&#45;Friends&#45;&gt;James</title>
<path fill="none" stroke="black" d="M1528.16,-597.02C1480.32,-575.33 1392.64,-535.59 1342.87,-513.03"/>
<polygon fill="black" stroke="black" points="1344.29,-509.84 1333.74,-508.89 1341.4,-516.21 1344.29,-509.84"/>
</g>
<!-- Ex&#45;Friends&#45;&gt;Michael Vincent -->
<g id="edge46" class="edge">
<title>Ex&#45;Friends&#45;&gt;Michael Vincent</title>
<path fill="none" stroke="black" d="M1583.22,-595.23C1633.89,-555.51 1760.45,-456.29 1818.82,-410.53"/>
<polygon fill="black" stroke="black" points="1821.21,-413.11 1826.92,-404.18 1816.89,-407.6 1821.21,-413.11"/>
</g>
<!-- Ex&#45;Friends&#45;&gt;Matt Bishop -->
<g id="edge53" class="edge">
<title>Ex&#45;Friends&#45;&gt;Matt Bishop</title>
<path fill="none" stroke="black" d="M1563.64,-594.08C1570.68,-531.73 1593.95,-325.49 1602.54,-249.29"/>
<polygon fill="black" stroke="black" points="1606.06,-249.36 1603.7,-239.03 1599.1,-248.57 1606.06,-249.36"/>
</g>
<!-- Ex&#45;Lovers&#45;&gt;Mary -->
<g id="edge8" class="edge">
<title>Ex&#45;Lovers&#45;&gt;Mary</title>
<path fill="none" stroke="black" d="M1927.8,-852.02C1966.05,-817.44 2052.08,-739.66 2094.64,-701.18"/>
<polygon fill="black" stroke="black" points="2096.99,-703.78 2102.06,-694.47 2092.29,-698.58 2096.99,-703.78"/>
</g>
<!-- Ex&#45;Lovers&#45;&gt;Audrey -->
<g id="edge9" class="edge">
<title>Ex&#45;Lovers&#45;&gt;Audrey</title>
<path fill="none" stroke="black" d="M1916.84,-851.02C1940.76,-797.21 2011.16,-638.87 2039.7,-574.68"/>
<polygon fill="black" stroke="black" points="2043.04,-575.78 2043.9,-565.22 2036.64,-572.93 2043.04,-575.78"/>
</g>
<!-- Ex&#45;Lovers&#45;&gt;Bonnie -->
<g id="edge10" class="edge">
<title>Ex&#45;Lovers&#45;&gt;Bonnie</title>
<path fill="none" stroke="black" d="M1853.56,-865.28C1810.82,-862.2 1752.01,-857.96 1709.94,-854.92"/>
<polygon fill="black" stroke="black" points="1710.12,-851.43 1699.89,-854.2 1709.61,-858.41 1710.12,-851.43"/>
</g>
<!-- Ex&#45;Lovers&#45;&gt;Liza -->
<g id="edge11" class="edge">
<title>Ex&#45;Lovers&#45;&gt;Liza</title>
<path fill="none" stroke="black" d="M1933.71,-885.72C1979.67,-916 2077.36,-980.37 2126.14,-1012.51"/>
<polygon fill="black" stroke="black" points="2124.38,-1015.55 2134.66,-1018.13 2128.23,-1009.7 2124.38,-1015.55"/>
</g>
<!-- Ex&#45;Lovers&#45;&gt;Dev -->
<g id="edge12" class="edge">
<title>Ex&#45;Lovers&#45;&gt;Dev</title>
<path fill="none" stroke="black" d="M1926.7,-852.12C1980.8,-800.54 2142.07,-646.77 2202.72,-588.94"/>
<polygon fill="black" stroke="black" points="2205.44,-591.19 2210.26,-581.75 2200.61,-586.12 2205.44,-591.19"/>
</g>
<!-- Immediate family&#45;&gt;Amy -->
<g id="edge17" class="edge">
<title>Immediate family&#45;&gt;Amy</title>
<path fill="none" stroke="black" d="M955.93,-677.96C923.16,-618.58 820.07,-431.75 781.63,-362.09"/>
<polygon fill="black" stroke="black" points="784.55,-360.13 776.65,-353.07 778.42,-363.52 784.55,-360.13"/>
</g>
<!-- Immediate family&#45;&gt;Linda -->
<g id="edge19" class="edge">
<title>Immediate family&#45;&gt;Linda</title>
<path fill="none" stroke="black" d="M934.18,-679.43C880.52,-650.95 772.63,-593.69 717.46,-564.41"/>
<polygon fill="black" stroke="black" points="718.91,-561.22 708.44,-559.62 715.63,-567.4 718.91,-561.22"/>
</g>
<!-- Immediate family&#45;&gt;Bob -->
<g id="edge18" class="edge">
<title>Immediate family&#45;&gt;Bob</title>
<path fill="none" stroke="black" d="M964.7,-678.05C960.42,-620.72 947.23,-444.3 942.05,-375.1"/>
<polygon fill="black" stroke="black" points="945.53,-374.66 941.29,-364.95 938.55,-375.18 945.53,-374.66"/>
</g>
<!-- Mom&#39;s side&#45;&gt;Nancy -->
<g id="edge22" class="edge">
<title>Mom&#39;s side&#45;&gt;Nancy</title>
<path fill="none" stroke="black" d="M768.16,-987.92C738.33,-943.58 661,-828.57 626.2,-776.84"/>
<polygon fill="black" stroke="black" points="629.1,-774.87 620.61,-768.52 623.29,-778.77 629.1,-774.87"/>
</g>
<!-- Mom&#39;s side&#45;&gt;Karl -->
<g id="edge24" class="edge">
<title>Mom&#39;s side&#45;&gt;Karl</title>
<path fill="none" stroke="black" d="M756.61,-1022.68C699.79,-1063.22 555.58,-1166.12 494.39,-1209.79"/>
<polygon fill="black" stroke="black" points="492.09,-1207.13 485.98,-1215.78 496.15,-1212.82 492.09,-1207.13"/>
</g>
<!-- Mom&#39;s side&#45;&gt;Kevin -->
<g id="edge23" class="edge">
<title>Mom&#39;s side&#45;&gt;Kevin</title>
<path fill="none" stroke="black" d="M720.96,-1012.51C673.21,-1017.88 607.06,-1025.32 563.34,-1030.23"/>
<polygon fill="black" stroke="black" points="562.83,-1026.77 553.28,-1031.36 563.61,-1033.72 562.83,-1026.77"/>
</g>
<!-- Gary and Judy -->
<g id="node60" class="node">
<title>Gary and Judy</title>
<ellipse fill="none" stroke="black" cx="406.89" cy="-840.77" rx="76.89" ry="18"/>
<text text-anchor="middle" x="406.89" y="-837.07" font-family="Times,serif" font-size="14.00">Gary and Judy</text>
</g>
<!-- Mom&#39;s side&#45;&gt;Gary and Judy -->
<g id="edge16" class="edge">
<title>Mom&#39;s side&#45;&gt;Gary and Judy</title>
<path fill="none" stroke="black" d="M745.76,-990.61C678.08,-960.68 527.78,-894.23 452.18,-860.79"/>
<polygon fill="black" stroke="black" points="453.46,-857.53 442.9,-856.69 450.63,-863.94 453.46,-857.53"/>
</g>
<!-- Dad&#39;s side&#45;&gt;Judy Besen -->
<g id="edge29" class="edge">
<title>Dad&#39;s side&#45;&gt;Judy Besen</title>
<path fill="none" stroke="black" d="M842.85,-1383.76C799.95,-1381.38 741.17,-1378.12 695.27,-1375.57"/>
<polygon fill="black" stroke="black" points="695.27,-1372.07 685.09,-1375.01 694.88,-1379.06 695.27,-1372.07"/>
</g>
<!-- Dad&#39;s side&#45;&gt;Andy -->
<g id="edge28" class="edge">
<title>Dad&#39;s side&#45;&gt;Andy</title>
<path fill="none" stroke="black" d="M864.97,-1401.37C795.7,-1429.39 643.44,-1490.99 573.12,-1519.44"/>
<polygon fill="black" stroke="black" points="571.71,-1516.23 563.75,-1523.23 574.34,-1522.72 571.71,-1516.23"/>
</g>
<!-- Dad&#39;s side&#45;&gt;Adam -->
<g id="edge25" class="edge">
<title>Dad&#39;s side&#45;&gt;Adam</title>
<path fill="none" stroke="black" d="M900.47,-1405.16C900.15,-1462.18 899.16,-1637.62 898.78,-1706.44"/>
<polygon fill="black" stroke="black" points="895.27,-1706.52 898.72,-1716.54 902.27,-1706.56 895.27,-1706.52"/>
</g>
<!-- Dad&#39;s side&#45;&gt;Matt -->
<g id="edge26" class="edge">
<title>Dad&#39;s side&#45;&gt;Matt</title>
<path fill="none" stroke="black" d="M885.57,-1404.76C849.55,-1447.5 758.13,-1555.95 717.06,-1604.69"/>
<polygon fill="black" stroke="black" points="714.22,-1602.62 710.45,-1612.52 719.57,-1607.13 714.22,-1602.62"/>
</g>
<!-- Dad&#39;s side&#45;&gt;Peter -->
<g id="edge27" class="edge">
<title>Dad&#39;s side&#45;&gt;Peter</title>
<path fill="none" stroke="black" d="M893.84,-1405.15C871.26,-1466.15 798.13,-1663.67 771.1,-1736.68"/>
<polygon fill="black" stroke="black" points="767.79,-1735.54 767.6,-1746.13 774.36,-1737.97 767.79,-1735.54"/>
</g>
<!-- Gary and Judy&#45;&gt;Judy Glades -->
<g id="edge21" class="edge">
<title>Gary and Judy&#45;&gt;Judy Glades</title>
<path fill="none" stroke="black" d="M350.93,-853.17C289.27,-866.83 190.45,-888.72 126.8,-902.83"/>
<polygon fill="black" stroke="black" points="125.9,-899.44 116.9,-905.02 127.42,-906.27 125.9,-899.44"/>
</g>
<!-- Gary and Judy&#45;&gt;Gary -->
<g id="edge20" class="edge">
<title>Gary and Judy&#45;&gt;Gary</title>
<path fill="none" stroke="black" d="M389.99,-823.13C347.58,-778.9 236.66,-663.21 188.89,-613.37"/>
<polygon fill="black" stroke="black" points="191.23,-610.76 181.78,-605.96 186.17,-615.6 191.23,-610.76"/>
</g>
<!-- IRC&#45;&gt;Alex -->
<g id="edge41" class="edge">
<title>IRC&#45;&gt;Alex</title>
<path fill="none" stroke="black" d="M1727,-1632.69C1684.21,-1602.09 1579.28,-1527.05 1529.06,-1491.14"/>
<polygon fill="black" stroke="black" points="1531.09,-1488.28 1520.92,-1485.31 1527.01,-1493.98 1531.09,-1488.28"/>
</g>
<!-- IRC&#45;&gt;Mike -->
<g id="edge40" class="edge">
<title>IRC&#45;&gt;Mike</title>
<path fill="none" stroke="black" d="M1747.8,-1664.42C1754.05,-1720.54 1772.96,-1890.49 1780.5,-1958.23"/>
<polygon fill="black" stroke="black" points="1777.06,-1959 1781.65,-1968.55 1784.02,-1958.23 1777.06,-1959"/>
</g>
<!-- IRC&#45;&gt;Andy Jenkins -->
<g id="edge44" class="edge">
<title>IRC&#45;&gt;Andy Jenkins</title>
<path fill="none" stroke="black" d="M1717.59,-1646.36C1679.76,-1646.68 1610.98,-1647.28 1556.35,-1647.75"/>
<polygon fill="black" stroke="black" points="1556.29,-1644.25 1546.32,-1647.84 1556.35,-1651.25 1556.29,-1644.25"/>
</g>
<!-- IRC&#45;&gt;Pat -->
<g id="edge43" class="edge">
<title>IRC&#45;&gt;Pat</title>
<path fill="none" stroke="black" d="M1765.46,-1632.81C1809.07,-1603.34 1913.91,-1532.51 1963.96,-1498.69"/>
<polygon fill="black" stroke="black" points="1966.04,-1501.51 1972.36,-1493.01 1962.12,-1495.71 1966.04,-1501.51"/>
</g>
<!-- IRC&#45;&gt;Joe -->
<g id="edge42" class="edge">
<title>IRC&#45;&gt;Joe</title>
<path fill="none" stroke="black" d="M1721.4,-1636.83C1696.47,-1627.33 1657.56,-1612.5 1629.73,-1601.89"/>
<polygon fill="black" stroke="black" points="1630.61,-1598.48 1620.02,-1598.19 1628.12,-1605.02 1630.61,-1598.48"/>
</g>
<!-- Nathan -->
<g id="node62" class="node">
<title>Nathan</title>
<ellipse fill="none" stroke="black" cx="1531.11" cy="-1989.26" rx="44.69" ry="18"/>
<text text-anchor="middle" x="1531.11" y="-1985.56" font-family="Times,serif" font-size="14.00">Nathan</text>
</g>
<!-- IRC&#45;&gt;Nathan -->
<g id="edge45" class="edge">
<title>IRC&#45;&gt;Nathan</title>
<path fill="none" stroke="black" d="M1735.12,-1663.13C1700.3,-1718.8 1589.6,-1895.76 1547.54,-1963"/>
<polygon fill="black" stroke="black" points="1544.41,-1961.4 1542.07,-1971.73 1550.34,-1965.11 1544.41,-1961.4"/>
</g>
<!-- Junior Rangers -->
<g id="node63" class="node">
<title>Junior Rangers</title>
<polygon fill="none" stroke="black" points="1862.77,-1001.92 1739.77,-1001.92 1739.77,-965.92 1862.77,-965.92 1862.77,-1001.92"/>
<text text-anchor="middle" x="1801.27" y="-980.22" font-family="Times,serif" font-size="14.00">Junior Rangers</text>
</g>
<!-- Junior Rangers&#45;&gt;Me -->
<g id="edge70" class="edge">
<title>Junior Rangers&#45;&gt;Me</title>
<path fill="none" stroke="black" d="M1739.69,-993.35C1700.21,-999.4 1650.15,-1007.07 1616.06,-1012.3"/>
<polygon fill="black" stroke="black" points="1615.37,-1008.86 1606.02,-1013.84 1616.43,-1015.78 1615.37,-1008.86"/>
</g>
<!-- Junior Rangers&#45;&gt;Liza -->
<g id="edge71" class="edge">
<title>Junior Rangers&#45;&gt;Liza</title>
<path fill="none" stroke="black" d="M1862.91,-992.22C1935.53,-1002.01 2054.06,-1017.99 2115.46,-1026.26"/>
<polygon fill="black" stroke="black" points="2115.14,-1029.75 2125.52,-1027.62 2116.08,-1022.81 2115.14,-1029.75"/>
</g>
<!-- Junior Rangers&#45;&gt;Ben Wayne -->
<g id="edge72" class="edge">
<title>Junior Rangers&#45;&gt;Ben Wayne</title>
<path fill="none" stroke="black" d="M1803.44,-965.88C1811.11,-902.16 1836.96,-687.38 1846.25,-610.16"/>
<polygon fill="black" stroke="black" points="1849.73,-610.55 1847.45,-600.2 1842.78,-609.71 1849.73,-610.55"/>
</g>
<!-- High School -->
<g id="node64" class="node">
<title>High School</title>
<polygon fill="none" stroke="black" points="1790.29,-757.31 1687.29,-757.31 1687.29,-721.31 1790.29,-721.31 1790.29,-757.31"/>
<text text-anchor="middle" x="1738.79" y="-735.61" font-family="Times,serif" font-size="14.00">High School</text>
</g>
<!-- High School&#45;&gt;Me -->
<g id="edge73" class="edge">
<title>High School&#45;&gt;Me</title>
<path fill="none" stroke="black" d="M1728.17,-757.62C1701.5,-803.62 1631.31,-924.65 1596.78,-984.2"/>
<polygon fill="black" stroke="black" points="1593.74,-982.46 1591.75,-992.86 1599.8,-985.97 1593.74,-982.46"/>
</g>
<!-- High School&#45;&gt;Mary -->
<g id="edge75" class="edge">
<title>High School&#45;&gt;Mary</title>
<path fill="none" stroke="black" d="M1790.52,-731.08C1866.08,-719.06 2005.3,-696.91 2075.92,-685.68"/>
<polygon fill="black" stroke="black" points="2076.5,-689.13 2085.82,-684.1 2075.4,-682.22 2076.5,-689.13"/>
</g>
<!-- High School&#45;&gt;Audrey -->
<g id="edge74" class="edge">
<title>High School&#45;&gt;Audrey</title>
<path fill="none" stroke="black" d="M1768.25,-721.24C1826.73,-685.35 1957.12,-605.35 2018.61,-567.62"/>
<polygon fill="black" stroke="black" points="2020.48,-570.58 2027.17,-562.37 2016.81,-564.61 2020.48,-570.58"/>
</g>
<!-- High School&#45;&gt;Ben Cameron -->
<g id="edge78" class="edge">
<title>High School&#45;&gt;Ben Cameron</title>
<path fill="none" stroke="black" d="M1735.69,-720.85C1726.36,-665.32 1698.51,-499.57 1687.32,-432.97"/>
<polygon fill="black" stroke="black" points="1690.73,-432.09 1685.62,-422.81 1683.82,-433.25 1690.73,-432.09"/>
</g>
<!-- High School&#45;&gt;Ben Wayne -->
<g id="edge77" class="edge">
<title>High School&#45;&gt;Ben Wayne</title>
<path fill="none" stroke="black" d="M1751.5,-721.29C1771.04,-693.59 1808.56,-640.41 1831.11,-608.44"/>
<polygon fill="black" stroke="black" points="1834.14,-610.21 1837.05,-600.02 1828.42,-606.18 1834.14,-610.21"/>
</g>
<!-- High School&#45;&gt;Michael Vincent -->
<g id="edge76" class="edge">
<title>High School&#45;&gt;Michael Vincent</title>
<path fill="none" stroke="black" d="M1744.57,-720.85C1762.71,-662.9 1818.63,-484.32 1840.39,-414.82"/>
<polygon fill="black" stroke="black" points="1843.81,-415.6 1843.46,-405.01 1837.13,-413.51 1843.81,-415.6"/>
</g>
<!-- College -->
<g id="node65" class="node">
<title>College</title>
<polygon fill="none" stroke="black" points="1501.22,-1169.04 1431.22,-1169.04 1431.22,-1133.04 1501.22,-1133.04 1501.22,-1169.04"/>
<text text-anchor="middle" x="1466.22" y="-1147.34" font-family="Times,serif" font-size="14.00">College</text>
</g>
<!-- College&#45;&gt;Me -->
<g id="edge79" class="edge">
<title>College&#45;&gt;Me</title>
<path fill="none" stroke="black" d="M1481.39,-1132.86C1499.44,-1111.23 1529.84,-1074.81 1551.52,-1048.83"/>
<polygon fill="black" stroke="black" points="1554.22,-1051.05 1557.94,-1041.13 1548.85,-1046.57 1554.22,-1051.05"/>
</g>
<!-- College&#45;&gt;Bonnie -->
<g id="edge80" class="edge">
<title>College&#45;&gt;Bonnie</title>
<path fill="none" stroke="black" d="M1477.88,-1132.73C1510.49,-1081.56 1602.65,-936.92 1640.63,-877.31"/>
<polygon fill="black" stroke="black" points="1643.62,-879.14 1646.04,-868.82 1637.71,-875.37 1643.62,-879.14"/>
</g>
<!-- College&#45;&gt;Alex -->
<g id="edge81" class="edge">
<title>College&#45;&gt;Alex</title>
<path fill="none" stroke="black" d="M1468.21,-1169.18C1474.05,-1222.35 1491.16,-1378.14 1498.26,-1442.76"/>
<polygon fill="black" stroke="black" points="1494.82,-1443.47 1499.39,-1453.02 1501.78,-1442.7 1494.82,-1443.47"/>
</g>
<!-- Grad school -->
<g id="node66" class="node">
<title>Grad school</title>
<polygon fill="none" stroke="black" points="1416.12,-1068.21 1315.12,-1068.21 1315.12,-1032.21 1416.12,-1032.21 1416.12,-1068.21"/>
<text text-anchor="middle" x="1365.62" y="-1046.51" font-family="Times,serif" font-size="14.00">Grad school</text>
</g>
<!-- Grad school&#45;&gt;Me -->
<g id="edge82" class="edge">
<title>Grad school&#45;&gt;Me</title>
<path fill="none" stroke="black" d="M1416.25,-1042.56C1453.56,-1036.93 1503.56,-1029.38 1537.83,-1024.2"/>
<polygon fill="black" stroke="black" points="1538.57,-1027.63 1547.93,-1022.67 1537.52,-1020.71 1538.57,-1027.63"/>
</g>
<!-- Grad school&#45;&gt;Cole -->
<g id="edge83" class="edge">
<title>Grad school&#45;&gt;Cole</title>
<path fill="none" stroke="black" d="M1365.76,-1068.26C1366.16,-1121.2 1367.34,-1276.28 1367.83,-1340.61"/>
<polygon fill="black" stroke="black" points="1364.33,-1340.85 1367.91,-1350.82 1371.33,-1340.8 1364.33,-1340.85"/>
</g>
</g>
</svg>
