<?xml version="1.0" encoding="UTF-8" standalone="no"?>
<!DOCTYPE svg PUBLIC "-//W3C//DTD SVG 1.1//EN"
 "http://www.w3.org/Graphics/SVG/1.1/DTD/svg11.dtd">
<!-- Generated by graphviz version 2.43.0 (0)
 -->
<!-- Title: G Pages: 1 -->
<svg width="3190pt" height="2225pt"
 viewBox="0.00 0.00 3190.48 2224.89" xmlns="http://www.w3.org/2000/svg" xmlns:xlink="http://www.w3.org/1999/xlink">
<g id="graph0" class="graph" transform="scale(1 1) rotate(0) translate(4 2220.89)">
<title>G</title>
<polygon fill="white" stroke="transparent" points="-4,4 -4,-2220.89 3186.48,-2220.89 3186.48,4 -4,4"/>
<!-- Me -->
<g id="node1" class="node">
<title>Me</title>
<ellipse fill="none" stroke="black" stroke-width="2" cx="1768.36" cy="-935.87" rx="25.22" ry="25.22"/>
<ellipse fill="none" stroke="black" stroke-width="2" cx="1768.36" cy="-935.87" rx="29.2" ry="29.2"/>
<text text-anchor="middle" x="1768.36" y="-932.17" font-family="Times,serif" font-size="14.00">Me</text>
</g>
<!-- Friends -->
<g id="node52" class="node">
<title>Friends</title>
<ellipse fill="none" stroke="black" cx="2072.92" cy="-1189.59" rx="46.29" ry="18"/>
<text text-anchor="middle" x="2072.92" y="-1185.89" font-family="Times,serif" font-size="14.00">Friends</text>
</g>
<!-- Me&#45;&gt;Friends -->
<g id="edge1" class="edge">
<title>Me&#45;&gt;Friends</title>
<path fill="none" stroke="black" d="M1791.25,-954.94C1846.22,-1000.73 1985.49,-1116.75 2045.12,-1166.43"/>
<polygon fill="black" stroke="black" points="2043.07,-1169.28 2052.99,-1172.99 2047.55,-1163.9 2043.07,-1169.28"/>
</g>
<!-- Family -->
<g id="node53" class="node">
<title>Family</title>
<ellipse fill="none" stroke="black" cx="1320.08" cy="-1240.14" rx="42.49" ry="18"/>
<text text-anchor="middle" x="1320.08" y="-1236.44" font-family="Times,serif" font-size="14.00">Family</text>
</g>
<!-- Me&#45;&gt;Family -->
<g id="edge2" class="edge">
<title>Me&#45;&gt;Family</title>
<path fill="none" stroke="black" d="M1743.94,-952.44C1667.89,-1004.07 1435.33,-1161.91 1351.02,-1219.14"/>
<polygon fill="black" stroke="black" points="1348.95,-1216.31 1342.64,-1224.83 1352.88,-1222.11 1348.95,-1216.31"/>
</g>
<!-- Coworkers -->
<g id="node54" class="node">
<title>Coworkers</title>
<ellipse fill="none" stroke="black" cx="2286.93" cy="-1038.65" rx="60.39" ry="18"/>
<text text-anchor="middle" x="2286.93" y="-1034.95" font-family="Times,serif" font-size="14.00">Coworkers</text>
</g>
<!-- Me&#45;&gt;Coworkers -->
<g id="edge3" class="edge">
<title>Me&#45;&gt;Coworkers</title>
<path fill="none" stroke="black" d="M1797.35,-941.61C1879.36,-957.87 2114.3,-1004.43 2226.22,-1026.62"/>
<polygon fill="black" stroke="black" points="2225.85,-1030.11 2236.34,-1028.62 2227.21,-1023.24 2225.85,-1030.11"/>
</g>
<!-- Ex&#45;Friends -->
<g id="node57" class="node">
<title>Ex&#45;Friends</title>
<ellipse fill="none" stroke="black" cx="1512.26" cy="-499.82" rx="61.19" ry="18"/>
<text text-anchor="middle" x="1512.26" y="-496.12" font-family="Times,serif" font-size="14.00">Ex&#45;Friends</text>
</g>
<!-- Me&#45;&gt;Ex&#45;Friends -->
<g id="edge6" class="edge">
<title>Me&#45;&gt;Ex&#45;Friends</title>
<path fill="none" stroke="black" d="M1753.49,-910.54C1708.45,-833.86 1573.87,-604.72 1527.87,-526.4"/>
<polygon fill="black" stroke="black" points="1530.8,-524.47 1522.72,-517.62 1524.76,-528.01 1530.8,-524.47"/>
</g>
<!-- Ex&#45;Lovers -->
<g id="node58" class="node">
<title>Ex&#45;Lovers</title>
<ellipse fill="none" stroke="black" cx="2015.6" cy="-557.3" rx="56.59" ry="18"/>
<text text-anchor="middle" x="2015.6" y="-553.6" font-family="Times,serif" font-size="14.00">Ex&#45;Lovers</text>
</g>
<!-- Me&#45;&gt;Ex&#45;Lovers -->
<g id="edge7" class="edge">
<title>Me&#45;&gt;Ex&#45;Lovers</title>
<path fill="none" stroke="black" d="M1784.58,-911.03C1829,-843.02 1952.32,-654.2 1998.15,-584.02"/>
<polygon fill="black" stroke="black" points="2001.3,-585.59 2003.84,-575.31 1995.44,-581.77 2001.3,-585.59"/>
</g>
<!-- Mary -->
<g id="node2" class="node">
<title>Mary</title>
<ellipse fill="pink" stroke="black" cx="2011.43" cy="-208.16" rx="35.19" ry="18"/>
<text text-anchor="middle" x="2011.43" y="-204.46" font-family="Times,serif" font-size="14.00">Mary</text>
</g>
<!-- Audrey -->
<g id="node3" class="node">
<title>Audrey</title>
<ellipse fill="pink" stroke="black" cx="1895.2" cy="-159.01" rx="44.39" ry="18"/>
<text text-anchor="middle" x="1895.2" y="-155.31" font-family="Times,serif" font-size="14.00">Audrey</text>
</g>
<!-- Bonnie -->
<g id="node4" class="node">
<title>Bonnie</title>
<ellipse fill="pink" stroke="black" cx="1833.93" cy="-708.56" rx="42.79" ry="18"/>
<text text-anchor="middle" x="1833.93" y="-704.86" font-family="Times,serif" font-size="14.00">Bonnie</text>
</g>
<!-- Liza -->
<g id="node5" class="node">
<title>Liza</title>
<ellipse fill="pink" stroke="black" cx="2345.14" cy="-577.62" rx="29.8" ry="18"/>
<text text-anchor="middle" x="2345.14" y="-573.92" font-family="Times,serif" font-size="14.00">Liza</text>
</g>
<!-- Marsha -->
<g id="node6" class="node">
<title>Marsha</title>
<ellipse fill="pink" stroke="black" cx="1131.92" cy="-313.93" rx="46.29" ry="18"/>
<text text-anchor="middle" x="1131.92" y="-310.23" font-family="Times,serif" font-size="14.00">Marsha</text>
</g>
<!-- Amy -->
<g id="node7" class="node">
<title>Amy</title>
<ellipse fill="pink" stroke="black" cx="521.34" cy="-735.99" rx="31.4" ry="18"/>
<text text-anchor="middle" x="521.34" y="-732.29" font-family="Times,serif" font-size="14.00">Amy</text>
</g>
<!-- Sean -->
<g id="node43" class="node">
<title>Sean</title>
<ellipse fill="lightblue" stroke="black" cx="173.3" cy="-503.01" rx="33.6" ry="18"/>
<text text-anchor="middle" x="173.3" y="-499.31" font-family="Times,serif" font-size="14.00">Sean</text>
</g>
<!-- Amy&#45;&gt;Sean -->
<g id="edge32" class="edge">
<title>Amy&#45;&gt;Sean</title>
<path fill="none" stroke="black" d="M500.87,-722.28C442.02,-682.89 272.2,-569.21 203.09,-522.95"/>
<polygon fill="black" stroke="black" points="204.66,-519.79 194.41,-517.14 200.77,-525.61 204.66,-519.79"/>
</g>
<!-- Nancy -->
<g id="node8" class="node">
<title>Nancy</title>
<ellipse fill="pink" stroke="black" cx="609.54" cy="-1255" rx="40.09" ry="18"/>
<text text-anchor="middle" x="609.54" y="-1251.3" font-family="Times,serif" font-size="14.00">Nancy</text>
</g>
<!-- Linda -->
<g id="node9" class="node">
<title>Linda</title>
<ellipse fill="pink" stroke="black" cx="703.87" cy="-639.97" rx="36.29" ry="18"/>
<text text-anchor="middle" x="703.87" y="-636.27" font-family="Times,serif" font-size="14.00">Linda</text>
</g>
<!-- Judy Besen -->
<g id="node10" class="node">
<title>Judy Besen</title>
<ellipse fill="pink" stroke="black" cx="1124.03" cy="-1997.52" rx="62.29" ry="18"/>
<text text-anchor="middle" x="1124.03" y="-1993.82" font-family="Times,serif" font-size="14.00">Judy Besen</text>
</g>
<!-- Judy Glades -->
<g id="node11" class="node">
<title>Judy Glades</title>
<ellipse fill="pink" stroke="black" cx="65.64" cy="-1357.81" rx="65.79" ry="18"/>
<text text-anchor="middle" x="65.64" y="-1354.11" font-family="Times,serif" font-size="14.00">Judy Glades</text>
</g>
<!-- Dev -->
<g id="node12" class="node">
<title>Dev</title>
<ellipse fill="pink" stroke="black" cx="2198.28" cy="-104.66" rx="28.7" ry="18"/>
<text text-anchor="middle" x="2198.28" y="-100.96" font-family="Times,serif" font-size="14.00">Dev</text>
</g>
<!-- Nels -->
<g id="node13" class="node">
<title>Nels</title>
<ellipse fill="lightblue" stroke="black" cx="1678.08" cy="-18" rx="31.7" ry="18"/>
<text text-anchor="middle" x="1678.08" y="-14.3" font-family="Times,serif" font-size="14.00">Nels</text>
</g>
<!-- Alex -->
<g id="node14" class="node">
<title>Alex</title>
<ellipse fill="lightblue" stroke="black" cx="2026.33" cy="-1427.76" rx="30.59" ry="18"/>
<text text-anchor="middle" x="2026.33" y="-1424.06" font-family="Times,serif" font-size="14.00">Alex</text>
</g>
<!-- Mike -->
<g id="node15" class="node">
<title>Mike</title>
<ellipse fill="lightblue" stroke="black" cx="2286.8" cy="-1984.85" rx="33.6" ry="18"/>
<text text-anchor="middle" x="2286.8" y="-1981.15" font-family="Times,serif" font-size="14.00">Mike</text>
</g>
<!-- Ben Cameron -->
<g id="node16" class="node">
<title>Ben Cameron</title>
<ellipse fill="lightblue" stroke="black" cx="1589.12" cy="-182.82" rx="73.39" ry="18"/>
<text text-anchor="middle" x="1589.12" y="-179.12" font-family="Times,serif" font-size="14.00">Ben Cameron</text>
</g>
<!-- Dave Kapp -->
<g id="node17" class="node">
<title>Dave Kapp</title>
<ellipse fill="lightblue" stroke="black" cx="1253.95" cy="-127.12" rx="61.19" ry="18"/>
<text text-anchor="middle" x="1253.95" y="-123.42" font-family="Times,serif" font-size="14.00">Dave Kapp</text>
</g>
<!-- Ben Wayne -->
<g id="node18" class="node">
<title>Ben Wayne</title>
<ellipse fill="lightblue" stroke="black" cx="1548.17" cy="-645.29" rx="62.29" ry="18"/>
<text text-anchor="middle" x="1548.17" y="-641.59" font-family="Times,serif" font-size="14.00">Ben Wayne</text>
</g>
<!-- James -->
<g id="node19" class="node">
<title>James</title>
<ellipse fill="lightblue" stroke="black" cx="1134.5" cy="-518.38" rx="38.19" ry="18"/>
<text text-anchor="middle" x="1134.5" y="-514.68" font-family="Times,serif" font-size="14.00">James</text>
</g>
<!-- Andy -->
<g id="node20" class="node">
<title>Andy</title>
<ellipse fill="lightblue" stroke="black" cx="938.77" cy="-2007.49" rx="34.39" ry="18"/>
<text text-anchor="middle" x="938.77" y="-2003.79" font-family="Times,serif" font-size="14.00">Andy</text>
</g>
<!-- Andy Jenkins -->
<g id="node21" class="node">
<title>Andy Jenkins</title>
<ellipse fill="lightblue" stroke="black" cx="2023.17" cy="-1638.27" rx="70.69" ry="18"/>
<text text-anchor="middle" x="2023.17" y="-1634.57" font-family="Times,serif" font-size="14.00">Andy Jenkins</text>
</g>
<!-- Cole -->
<g id="node22" class="node">
<title>Cole</title>
<ellipse fill="lightblue" stroke="black" cx="1783.89" cy="-1435.22" rx="31.4" ry="18"/>
<text text-anchor="middle" x="1783.89" y="-1431.52" font-family="Times,serif" font-size="14.00">Cole</text>
</g>
<!-- Pat -->
<g id="node23" class="node">
<title>Pat</title>
<ellipse fill="lightblue" stroke="black" cx="2478.19" cy="-1151.77" rx="27" ry="18"/>
<text text-anchor="middle" x="2478.19" y="-1148.07" font-family="Times,serif" font-size="14.00">Pat</text>
</g>
<!-- Joe -->
<g id="node24" class="node">
<title>Joe</title>
<ellipse fill="lightblue" stroke="black" cx="2142.59" cy="-1577.07" rx="27" ry="18"/>
<text text-anchor="middle" x="2142.59" y="-1573.37" font-family="Times,serif" font-size="14.00">Joe</text>
</g>
<!-- Michael Vincent -->
<g id="node25" class="node">
<title>Michael Vincent</title>
<ellipse fill="lightblue" stroke="black" cx="1384.76" cy="-297.56" rx="85.29" ry="18"/>
<text text-anchor="middle" x="1384.76" y="-293.86" font-family="Times,serif" font-size="14.00">Michael Vincent</text>
</g>
<!-- Kyle -->
<g id="node26" class="node">
<title>Kyle</title>
<ellipse fill="lightblue" stroke="black" cx="2404.09" cy="-854.72" rx="30.59" ry="18"/>
<text text-anchor="middle" x="2404.09" y="-851.02" font-family="Times,serif" font-size="14.00">Kyle</text>
</g>
<!-- Mike (forevern00b) -->
<g id="node30" class="node">
<title>Mike (forevern00b)</title>
<ellipse fill="lightblue" stroke="black" cx="2541.76" cy="-316.08" rx="100.98" ry="18"/>
<text text-anchor="middle" x="2541.76" y="-312.38" font-family="Times,serif" font-size="14.00">Mike (forevern00b)</text>
</g>
<!-- Kyle&#45;&gt;Mike (forevern00b) -->
<g id="edge55" class="edge">
<title>Kyle&#45;&gt;Mike (forevern00b)</title>
<path fill="none" stroke="black" d="M2408.67,-836.79C2428.86,-757.79 2510.01,-440.31 2534.64,-343.95"/>
<polygon fill="black" stroke="black" points="2538.08,-344.63 2537.16,-334.07 2531.29,-342.89 2538.08,-344.63"/>
</g>
<!-- Wade -->
<g id="node27" class="node">
<title>Wade</title>
<ellipse fill="lightblue" stroke="black" cx="3057" cy="-895.09" rx="36.29" ry="18"/>
<text text-anchor="middle" x="3057" y="-891.39" font-family="Times,serif" font-size="14.00">Wade</text>
</g>
<!-- Corey -->
<g id="node28" class="node">
<title>Corey</title>
<ellipse fill="lightblue" stroke="black" cx="2875.18" cy="-548.7" rx="38.19" ry="18"/>
<text text-anchor="middle" x="2875.18" y="-545" font-family="Times,serif" font-size="14.00">Corey</text>
</g>
<!-- Steven -->
<g id="node29" class="node">
<title>Steven</title>
<ellipse fill="lightblue" stroke="black" cx="2884.37" cy="-394.12" rx="42.79" ry="18"/>
<text text-anchor="middle" x="2884.37" y="-390.42" font-family="Times,serif" font-size="14.00">Steven</text>
</g>
<!-- Jef -->
<g id="node31" class="node">
<title>Jef</title>
<ellipse fill="lightblue" stroke="black" cx="2948.76" cy="-1001.47" rx="27" ry="18"/>
<text text-anchor="middle" x="2948.76" y="-997.77" font-family="Times,serif" font-size="14.00">Jef</text>
</g>
<!-- Mike Stabnow -->
<g id="node32" class="node">
<title>Mike Stabnow</title>
<ellipse fill="lightblue" stroke="black" cx="3034.76" cy="-596.91" rx="77.19" ry="18"/>
<text text-anchor="middle" x="3034.76" y="-593.21" font-family="Times,serif" font-size="14.00">Mike Stabnow</text>
</g>
<!-- Jon Yu -->
<g id="node33" class="node">
<title>Jon Yu</title>
<ellipse fill="lightblue" stroke="black" cx="2682.84" cy="-1917.13" rx="39.79" ry="18"/>
<text text-anchor="middle" x="2682.84" y="-1913.43" font-family="Times,serif" font-size="14.00">Jon Yu</text>
</g>
<!-- Sahil -->
<g id="node34" class="node">
<title>Sahil</title>
<ellipse fill="lightblue" stroke="black" cx="2866.89" cy="-1840.34" rx="34.39" ry="18"/>
<text text-anchor="middle" x="2866.89" y="-1836.64" font-family="Times,serif" font-size="14.00">Sahil</text>
</g>
<!-- Lokesh -->
<g id="node35" class="node">
<title>Lokesh</title>
<ellipse fill="lightblue" stroke="black" cx="3103.84" cy="-1520.62" rx="43.59" ry="18"/>
<text text-anchor="middle" x="3103.84" y="-1516.92" font-family="Times,serif" font-size="14.00">Lokesh</text>
</g>
<!-- Ruthvik -->
<g id="node36" class="node">
<title>Ruthvik</title>
<ellipse fill="lightblue" stroke="black" cx="3135.68" cy="-1338.16" rx="46.59" ry="18"/>
<text text-anchor="middle" x="3135.68" y="-1334.46" font-family="Times,serif" font-size="14.00">Ruthvik</text>
</g>
<!-- David Ward -->
<g id="node37" class="node">
<title>David Ward</title>
<ellipse fill="lightblue" stroke="black" cx="3011.07" cy="-1696.11" rx="64.99" ry="18"/>
<text text-anchor="middle" x="3011.07" y="-1692.41" font-family="Times,serif" font-size="14.00">David Ward</text>
</g>
<!-- Adam -->
<g id="node38" class="node">
<title>Adam</title>
<ellipse fill="lightblue" stroke="black" cx="1500.64" cy="-2075.54" rx="37.09" ry="18"/>
<text text-anchor="middle" x="1500.64" y="-2071.84" font-family="Times,serif" font-size="14.00">Adam</text>
</g>
<!-- Karl -->
<g id="node39" class="node">
<title>Karl</title>
<ellipse fill="lightblue" stroke="black" cx="689.63" cy="-1785.72" rx="30.59" ry="18"/>
<text text-anchor="middle" x="689.63" y="-1782.02" font-family="Times,serif" font-size="14.00">Karl</text>
</g>
<!-- Matt -->
<g id="node40" class="node">
<title>Matt</title>
<ellipse fill="lightblue" stroke="black" cx="1216.18" cy="-2170.52" rx="33.29" ry="18"/>
<text text-anchor="middle" x="1216.18" y="-2166.82" font-family="Times,serif" font-size="14.00">Matt</text>
</g>
<!-- Peter -->
<g id="node41" class="node">
<title>Peter</title>
<ellipse fill="lightblue" stroke="black" cx="1405.97" cy="-2198.89" rx="36" ry="18"/>
<text text-anchor="middle" x="1405.97" y="-2195.19" font-family="Times,serif" font-size="14.00">Peter</text>
</g>
<!-- Kevin -->
<g id="node42" class="node">
<title>Kevin</title>
<ellipse fill="lightblue" stroke="black" cx="810.15" cy="-1663.31" rx="36.29" ry="18"/>
<text text-anchor="middle" x="810.15" y="-1659.61" font-family="Times,serif" font-size="14.00">Kevin</text>
</g>
<!-- Bob -->
<g id="node44" class="node">
<title>Bob</title>
<ellipse fill="lightblue" stroke="black" cx="565.61" cy="-1003.1" rx="28.7" ry="18"/>
<text text-anchor="middle" x="565.61" y="-999.4" font-family="Times,serif" font-size="14.00">Bob</text>
</g>
<!-- Gary -->
<g id="node45" class="node">
<title>Gary</title>
<ellipse fill="lightblue" stroke="black" cx="158.78" cy="-1746.38" rx="33.29" ry="18"/>
<text text-anchor="middle" x="158.78" y="-1742.68" font-family="Times,serif" font-size="14.00">Gary</text>
</g>
<!-- Michael Scheetz -->
<g id="node46" class="node">
<title>Michael Scheetz</title>
<ellipse fill="lightblue" stroke="black" cx="2737.59" cy="-359.53" rx="87.18" ry="18"/>
<text text-anchor="middle" x="2737.59" y="-355.83" font-family="Times,serif" font-size="14.00">Michael Scheetz</text>
</g>
<!-- Don -->
<g id="node47" class="node">
<title>Don</title>
<ellipse fill="lightblue" stroke="black" cx="3011.7" cy="-755.33" rx="29.5" ry="18"/>
<text text-anchor="middle" x="3011.7" y="-751.63" font-family="Times,serif" font-size="14.00">Don</text>
</g>
<!-- Matt Bishop -->
<g id="node48" class="node">
<title>Matt Bishop</title>
<ellipse fill="lightblue" stroke="black" cx="1452.16" cy="-20.3" rx="67.69" ry="18"/>
<text text-anchor="middle" x="1452.16" y="-16.6" font-family="Times,serif" font-size="14.00">Matt Bishop</text>
</g>
<!-- Gurov -->
<g id="node49" class="node">
<title>Gurov</title>
<ellipse fill="lightblue" stroke="black" cx="2473.53" cy="-1917.14" rx="38.99" ry="18"/>
<text text-anchor="middle" x="2473.53" y="-1913.44" font-family="Times,serif" font-size="14.00">Gurov</text>
</g>
<!-- Nathan -->
<g id="node50" class="node">
<title>Nathan</title>
<ellipse fill="lightblue" stroke="black" cx="2661.69" cy="-1727.18" rx="44.69" ry="18"/>
<text text-anchor="middle" x="2661.69" y="-1723.48" font-family="Times,serif" font-size="14.00">Nathan</text>
</g>
<!-- Deceased -->
<g id="node51" class="node">
<title>Deceased</title>
<ellipse fill="black" stroke="black" cx="611.6" cy="-2197.8" rx="55.49" ry="18"/>
<text text-anchor="middle" x="611.6" y="-2194.1" font-family="Times,serif" font-size="14.00" fill="white">Deceased</text>
</g>
<!-- Deceased&#45;&gt;Andy -->
<g id="edge30" class="edge">
<title>Deceased&#45;&gt;Andy</title>
<path fill="none" stroke="black" d="M638.66,-2182.07C698.63,-2147.18 842.51,-2063.48 906.8,-2026.09"/>
<polygon fill="black" stroke="black" points="908.8,-2028.97 915.69,-2020.92 905.29,-2022.92 908.8,-2028.97"/>
</g>
<!-- Deceased&#45;&gt;Karl -->
<g id="edge31" class="edge">
<title>Deceased&#45;&gt;Karl</title>
<path fill="none" stroke="black" d="M615.01,-2179.83C627.28,-2115.03 669.31,-1893.03 684.29,-1813.97"/>
<polygon fill="black" stroke="black" points="687.79,-1814.27 686.21,-1803.79 680.91,-1812.96 687.79,-1814.27"/>
</g>
<!-- Friends&#45;&gt;Alex -->
<g id="edge33" class="edge">
<title>Friends&#45;&gt;Alex</title>
<path fill="none" stroke="black" d="M2069.34,-1207.88C2061.24,-1249.28 2041.46,-1350.4 2031.81,-1399.74"/>
<polygon fill="black" stroke="black" points="2028.34,-1399.24 2029.86,-1409.73 2035.21,-1400.58 2028.34,-1399.24"/>
</g>
<!-- Friends&#45;&gt;Andy Jenkins -->
<g id="edge37" class="edge">
<title>Friends&#45;&gt;Andy Jenkins</title>
<path fill="none" stroke="black" d="M2070.91,-1207.73C2063.23,-1277 2035.72,-1525.1 2026.34,-1609.74"/>
<polygon fill="black" stroke="black" points="2022.83,-1609.57 2025.21,-1619.89 2029.79,-1610.34 2022.83,-1609.57"/>
</g>
<!-- Friends&#45;&gt;Cole -->
<g id="edge38" class="edge">
<title>Friends&#45;&gt;Cole</title>
<path fill="none" stroke="black" d="M2053.5,-1206.09C2002.84,-1249.14 1866.58,-1364.94 1809.55,-1413.41"/>
<polygon fill="black" stroke="black" points="1807.08,-1410.91 1801.73,-1420.06 1811.61,-1416.25 1807.08,-1410.91"/>
</g>
<!-- Friends&#45;&gt;Pat -->
<g id="edge36" class="edge">
<title>Friends&#45;&gt;Pat</title>
<path fill="none" stroke="black" d="M2117.84,-1185.4C2198.37,-1177.88 2365.89,-1162.25 2440.7,-1155.27"/>
<polygon fill="black" stroke="black" points="2441.41,-1158.72 2451.04,-1154.3 2440.76,-1151.75 2441.41,-1158.72"/>
</g>
<!-- Friends&#45;&gt;Joe -->
<g id="edge34" class="edge">
<title>Friends&#45;&gt;Joe</title>
<path fill="none" stroke="black" d="M2076.18,-1207.76C2087.34,-1269.79 2123.97,-1473.53 2137.5,-1548.8"/>
<polygon fill="black" stroke="black" points="2134.11,-1549.72 2139.33,-1558.94 2141,-1548.48 2134.11,-1549.72"/>
</g>
<!-- Friends&#45;&gt;Kyle -->
<g id="edge35" class="edge">
<title>Friends&#45;&gt;Kyle</title>
<path fill="none" stroke="black" d="M2089.8,-1172.52C2144.77,-1116.94 2318.72,-941.05 2381.34,-877.72"/>
<polygon fill="black" stroke="black" points="2383.87,-880.14 2388.42,-870.57 2378.89,-875.22 2383.87,-880.14"/>
</g>
<!-- IRC -->
<g id="node63" class="node">
<title>IRC</title>
<ellipse fill="none" stroke="black" cx="2340.52" cy="-1497.89" rx="27.9" ry="18"/>
<text text-anchor="middle" x="2340.52" y="-1494.19" font-family="Times,serif" font-size="14.00">IRC</text>
</g>
<!-- Friends&#45;&gt;IRC -->
<g id="edge39" class="edge">
<title>Friends&#45;&gt;IRC</title>
<path fill="none" stroke="black" d="M2088.07,-1207.05C2133.48,-1259.36 2268.47,-1414.88 2320.11,-1474.38"/>
<polygon fill="black" stroke="black" points="2317.63,-1476.86 2326.83,-1482.12 2322.92,-1472.27 2317.63,-1476.86"/>
</g>
<!-- Immediate family -->
<g id="node59" class="node">
<title>Immediate family</title>
<ellipse fill="none" stroke="black" cx="947.27" cy="-981.02" rx="92.08" ry="18"/>
<text text-anchor="middle" x="947.27" y="-977.32" font-family="Times,serif" font-size="14.00">Immediate family</text>
</g>
<!-- Family&#45;&gt;Immediate family -->
<g id="edge13" class="edge">
<title>Family&#45;&gt;Immediate family</title>
<path fill="none" stroke="black" d="M1297.88,-1224.7C1235.06,-1181.04 1055.82,-1056.46 980.86,-1004.36"/>
<polygon fill="black" stroke="black" points="982.46,-1001.21 972.25,-998.38 978.46,-1006.96 982.46,-1001.21"/>
</g>
<!-- Mom&#39;s side -->
<g id="node60" class="node">
<title>Mom&#39;s side</title>
<ellipse fill="none" stroke="black" cx="943.16" cy="-1397.36" rx="63.89" ry="18"/>
<text text-anchor="middle" x="943.16" y="-1393.66" font-family="Times,serif" font-size="14.00">Mom&#39;s side</text>
</g>
<!-- Family&#45;&gt;Mom&#39;s side -->
<g id="edge14" class="edge">
<title>Family&#45;&gt;Mom&#39;s side</title>
<path fill="none" stroke="black" d="M1289.88,-1252.74C1223.87,-1280.27 1066.46,-1345.92 988.5,-1378.44"/>
<polygon fill="black" stroke="black" points="986.83,-1375.35 978.95,-1382.43 989.53,-1381.81 986.83,-1375.35"/>
</g>
<!-- Dad&#39;s side -->
<g id="node61" class="node">
<title>Dad&#39;s side</title>
<ellipse fill="none" stroke="black" cx="1295.47" cy="-1729.67" rx="58.49" ry="18"/>
<text text-anchor="middle" x="1295.47" y="-1725.97" font-family="Times,serif" font-size="14.00">Dad&#39;s side</text>
</g>
<!-- Family&#45;&gt;Dad&#39;s side -->
<g id="edge15" class="edge">
<title>Family&#45;&gt;Dad&#39;s side</title>
<path fill="none" stroke="black" d="M1319.18,-1258.14C1315.47,-1331.9 1301.42,-1611.36 1296.89,-1701.47"/>
<polygon fill="black" stroke="black" points="1293.39,-1701.34 1296.38,-1711.5 1300.38,-1701.69 1293.39,-1701.34"/>
</g>
<!-- Current coworkers -->
<g id="node55" class="node">
<title>Current coworkers</title>
<ellipse fill="none" stroke="black" cx="2683.4" cy="-1432.89" rx="98.28" ry="18"/>
<text text-anchor="middle" x="2683.4" y="-1429.19" font-family="Times,serif" font-size="14.00">Current coworkers</text>
</g>
<!-- Coworkers&#45;&gt;Current coworkers -->
<g id="edge4" class="edge">
<title>Coworkers&#45;&gt;Current coworkers</title>
<path fill="none" stroke="black" d="M2304.47,-1056.1C2367.64,-1118.91 2583.63,-1333.69 2658,-1407.63"/>
<polygon fill="black" stroke="black" points="2655.59,-1410.17 2665.15,-1414.74 2660.52,-1405.21 2655.59,-1410.17"/>
</g>
<!-- Previous coworkers -->
<g id="node56" class="node">
<title>Previous coworkers</title>
<ellipse fill="none" stroke="black" cx="2642.38" cy="-793.84" rx="102.08" ry="18"/>
<text text-anchor="middle" x="2642.38" y="-790.14" font-family="Times,serif" font-size="14.00">Previous coworkers</text>
</g>
<!-- Coworkers&#45;&gt;Previous coworkers -->
<g id="edge5" class="edge">
<title>Coworkers&#45;&gt;Previous coworkers</title>
<path fill="none" stroke="black" d="M2311.08,-1022.01C2372.82,-979.5 2536.56,-866.72 2608.11,-817.45"/>
<polygon fill="black" stroke="black" points="2610.52,-820.04 2616.77,-811.48 2606.55,-814.27 2610.52,-820.04"/>
</g>
<!-- Current coworkers&#45;&gt;Jon Yu -->
<g id="edge68" class="edge">
<title>Current coworkers&#45;&gt;Jon Yu</title>
<path fill="none" stroke="black" d="M2683.37,-1450.99C2683.29,-1524.25 2682.98,-1799.17 2682.88,-1888.73"/>
<polygon fill="black" stroke="black" points="2679.38,-1888.94 2682.86,-1898.94 2686.38,-1888.95 2679.38,-1888.94"/>
</g>
<!-- Current coworkers&#45;&gt;Sahil -->
<g id="edge67" class="edge">
<title>Current coworkers&#45;&gt;Sahil</title>
<path fill="none" stroke="black" d="M2691.52,-1450.92C2720.59,-1515.48 2819.61,-1735.35 2854.56,-1812.95"/>
<polygon fill="black" stroke="black" points="2851.57,-1814.84 2858.86,-1822.52 2857.95,-1811.96 2851.57,-1814.84"/>
</g>
<!-- Current coworkers&#45;&gt;Lokesh -->
<g id="edge70" class="edge">
<title>Current coworkers&#45;&gt;Lokesh</title>
<path fill="none" stroke="black" d="M2748.63,-1446.5C2833.22,-1464.15 2978.88,-1494.55 3054.72,-1510.37"/>
<polygon fill="black" stroke="black" points="3054.44,-1513.89 3064.95,-1512.51 3055.87,-1507.04 3054.44,-1513.89"/>
</g>
<!-- Current coworkers&#45;&gt;Ruthvik -->
<g id="edge69" class="edge">
<title>Current coworkers&#45;&gt;Ruthvik</title>
<path fill="none" stroke="black" d="M2748.2,-1419.32C2838.94,-1400.31 3002,-1366.16 3084.66,-1348.85"/>
<polygon fill="black" stroke="black" points="3085.5,-1352.25 3094.57,-1346.77 3084.07,-1345.4 3085.5,-1352.25"/>
</g>
<!-- Current coworkers&#45;&gt;David Ward -->
<g id="edge66" class="edge">
<title>Current coworkers&#45;&gt;David Ward</title>
<path fill="none" stroke="black" d="M2705.4,-1450.57C2762.79,-1496.66 2917,-1620.54 2981.78,-1672.58"/>
<polygon fill="black" stroke="black" points="2979.59,-1675.32 2989.58,-1678.85 2983.98,-1669.86 2979.59,-1675.32"/>
</g>
<!-- Previous coworkers&#45;&gt;Liza -->
<g id="edge64" class="edge">
<title>Previous coworkers&#45;&gt;Liza</title>
<path fill="none" stroke="black" d="M2618.31,-776.33C2563.62,-736.55 2430.31,-639.58 2372.56,-597.57"/>
<polygon fill="black" stroke="black" points="2374.44,-594.6 2364.29,-591.55 2370.32,-600.26 2374.44,-594.6"/>
</g>
<!-- Previous coworkers&#45;&gt;Pat -->
<g id="edge65" class="edge">
<title>Previous coworkers&#45;&gt;Pat</title>
<path fill="none" stroke="black" d="M2634.01,-812.09C2607.04,-870.88 2522.31,-1055.59 2490.45,-1125.03"/>
<polygon fill="black" stroke="black" points="2487.14,-1123.86 2486.15,-1134.41 2493.5,-1126.78 2487.14,-1123.86"/>
</g>
<!-- Previous coworkers&#45;&gt;Kyle -->
<g id="edge61" class="edge">
<title>Previous coworkers&#45;&gt;Kyle</title>
<path fill="none" stroke="black" d="M2584.39,-808.66C2540.13,-819.96 2480.42,-835.22 2442.08,-845.01"/>
<polygon fill="black" stroke="black" points="2441.16,-841.63 2432.34,-847.5 2442.9,-848.42 2441.16,-841.63"/>
</g>
<!-- Previous coworkers&#45;&gt;Wade -->
<g id="edge59" class="edge">
<title>Previous coworkers&#45;&gt;Wade</title>
<path fill="none" stroke="black" d="M2702.23,-808.46C2787.04,-829.17 2940.14,-866.55 3014.36,-884.68"/>
<polygon fill="black" stroke="black" points="3013.75,-888.13 3024.29,-887.1 3015.41,-881.33 3013.75,-888.13"/>
</g>
<!-- Previous coworkers&#45;&gt;Corey -->
<g id="edge58" class="edge">
<title>Previous coworkers&#45;&gt;Corey</title>
<path fill="none" stroke="black" d="M2659.5,-775.82C2700.76,-732.37 2805.74,-621.82 2852.32,-572.77"/>
<polygon fill="black" stroke="black" points="2854.93,-575.11 2859.28,-565.45 2849.85,-570.29 2854.93,-575.11"/>
</g>
<!-- Previous coworkers&#45;&gt;Steven -->
<g id="edge56" class="edge">
<title>Previous coworkers&#45;&gt;Steven</title>
<path fill="none" stroke="black" d="M2653.25,-775.89C2691.88,-712.08 2822.68,-496.02 2868.42,-420.47"/>
<polygon fill="black" stroke="black" points="2871.62,-421.93 2873.81,-411.57 2865.64,-418.31 2871.62,-421.93"/>
</g>
<!-- Previous coworkers&#45;&gt;Jef -->
<g id="edge57" class="edge">
<title>Previous coworkers&#45;&gt;Jef</title>
<path fill="none" stroke="black" d="M2668.24,-811.37C2725.46,-850.14 2862.38,-942.93 2921.17,-982.77"/>
<polygon fill="black" stroke="black" points="2919.35,-985.76 2929.59,-988.47 2923.27,-979.96 2919.35,-985.76"/>
</g>
<!-- Previous coworkers&#45;&gt;Mike Stabnow -->
<g id="edge60" class="edge">
<title>Previous coworkers&#45;&gt;Mike Stabnow</title>
<path fill="none" stroke="black" d="M2676.51,-776.71C2748.36,-740.65 2914.98,-657.03 2993.03,-617.86"/>
<polygon fill="black" stroke="black" points="2994.72,-620.92 3002.09,-613.31 2991.58,-614.67 2994.72,-620.92"/>
</g>
<!-- Previous coworkers&#45;&gt;Michael Scheetz -->
<g id="edge63" class="edge">
<title>Previous coworkers&#45;&gt;Michael Scheetz</title>
<path fill="none" stroke="black" d="M2646.35,-775.73C2661.19,-708.06 2713.44,-469.71 2731.44,-387.59"/>
<polygon fill="black" stroke="black" points="2734.88,-388.23 2733.61,-377.71 2728.05,-386.73 2734.88,-388.23"/>
</g>
<!-- Previous coworkers&#45;&gt;Don -->
<g id="edge62" class="edge">
<title>Previous coworkers&#45;&gt;Don</title>
<path fill="none" stroke="black" d="M2730.37,-784.67C2807.3,-776.65 2915.4,-765.37 2972.61,-759.41"/>
<polygon fill="black" stroke="black" points="2973.1,-762.87 2982.69,-758.36 2972.38,-755.91 2973.1,-762.87"/>
</g>
<!-- Ex&#45;Friends&#45;&gt;Marsha -->
<g id="edge52" class="edge">
<title>Ex&#45;Friends&#45;&gt;Marsha</title>
<path fill="none" stroke="black" d="M1480.49,-484.29C1410.8,-450.23 1244.8,-369.1 1169.83,-332.45"/>
<polygon fill="black" stroke="black" points="1171.24,-329.25 1160.72,-328 1168.17,-335.54 1171.24,-329.25"/>
</g>
<!-- Ex&#45;Friends&#45;&gt;Nels -->
<g id="edge51" class="edge">
<title>Ex&#45;Friends&#45;&gt;Nels</title>
<path fill="none" stroke="black" d="M1518.46,-481.81C1543.63,-408.68 1638.28,-133.64 1668.65,-45.42"/>
<polygon fill="black" stroke="black" points="1672,-46.44 1671.94,-35.84 1665.38,-44.16 1672,-46.44"/>
</g>
<!-- Ex&#45;Friends&#45;&gt;Ben Cameron -->
<g id="edge49" class="edge">
<title>Ex&#45;Friends&#45;&gt;Ben Cameron</title>
<path fill="none" stroke="black" d="M1516.73,-481.4C1529.62,-428.21 1567,-274.06 1582.38,-210.61"/>
<polygon fill="black" stroke="black" points="1585.79,-211.43 1584.74,-200.89 1578.98,-209.78 1585.79,-211.43"/>
</g>
<!-- Ex&#45;Friends&#45;&gt;Dave Kapp -->
<g id="edge53" class="edge">
<title>Ex&#45;Friends&#45;&gt;Dave Kapp</title>
<path fill="none" stroke="black" d="M1499.8,-481.84C1457.86,-421.32 1321.65,-224.8 1272.15,-153.37"/>
<polygon fill="black" stroke="black" points="1274.86,-151.14 1266.28,-144.91 1269.1,-155.13 1274.86,-151.14"/>
</g>
<!-- Ex&#45;Friends&#45;&gt;Ben Wayne -->
<g id="edge48" class="edge">
<title>Ex&#45;Friends&#45;&gt;Ben Wayne</title>
<path fill="none" stroke="black" d="M1516.74,-517.95C1522.87,-542.78 1533.93,-587.61 1541.16,-616.91"/>
<polygon fill="black" stroke="black" points="1537.84,-618.06 1543.64,-626.93 1544.64,-616.38 1537.84,-618.06"/>
</g>
<!-- Ex&#45;Friends&#45;&gt;James -->
<g id="edge50" class="edge">
<title>Ex&#45;Friends&#45;&gt;James</title>
<path fill="none" stroke="black" d="M1451.99,-502.78C1377.29,-506.45 1251.49,-512.63 1182.81,-516.01"/>
<polygon fill="black" stroke="black" points="1182.52,-512.52 1172.7,-516.51 1182.86,-519.51 1182.52,-512.52"/>
</g>
<!-- Ex&#45;Friends&#45;&gt;Michael Vincent -->
<g id="edge47" class="edge">
<title>Ex&#45;Friends&#45;&gt;Michael Vincent</title>
<path fill="none" stroke="black" d="M1500.95,-481.87C1478.4,-446.11 1427.8,-365.83 1401.44,-324.02"/>
<polygon fill="black" stroke="black" points="1404.34,-322.06 1396.05,-315.47 1398.42,-325.79 1404.34,-322.06"/>
</g>
<!-- Ex&#45;Friends&#45;&gt;Matt Bishop -->
<g id="edge54" class="edge">
<title>Ex&#45;Friends&#45;&gt;Matt Bishop</title>
<path fill="none" stroke="black" d="M1509.98,-481.61C1500.84,-408.69 1466.85,-137.49 1455.72,-48.67"/>
<polygon fill="black" stroke="black" points="1459.16,-48.02 1454.45,-38.53 1452.22,-48.89 1459.16,-48.02"/>
</g>
<!-- Ex&#45;Lovers&#45;&gt;Mary -->
<g id="edge8" class="edge">
<title>Ex&#45;Lovers&#45;&gt;Mary</title>
<path fill="none" stroke="black" d="M2015.38,-539.02C2014.7,-481.75 2012.59,-305.53 2011.76,-236.4"/>
<polygon fill="black" stroke="black" points="2015.26,-236.22 2011.64,-226.26 2008.26,-236.3 2015.26,-236.22"/>
</g>
<!-- Ex&#45;Lovers&#45;&gt;Audrey -->
<g id="edge9" class="edge">
<title>Ex&#45;Lovers&#45;&gt;Audrey</title>
<path fill="none" stroke="black" d="M2010.11,-539.15C1990.96,-475.78 1926.95,-264.04 1903.72,-187.18"/>
<polygon fill="black" stroke="black" points="1906.96,-185.82 1900.72,-177.26 1900.26,-187.85 1906.96,-185.82"/>
</g>
<!-- Ex&#45;Lovers&#45;&gt;Bonnie -->
<g id="edge10" class="edge">
<title>Ex&#45;Lovers&#45;&gt;Bonnie</title>
<path fill="none" stroke="black" d="M1995.11,-574.36C1962.24,-601.73 1897.71,-655.46 1861.05,-685.98"/>
<polygon fill="black" stroke="black" points="1858.69,-683.4 1853.24,-692.48 1863.17,-688.77 1858.69,-683.4"/>
</g>
<!-- Ex&#45;Lovers&#45;&gt;Liza -->
<g id="edge11" class="edge">
<title>Ex&#45;Lovers&#45;&gt;Liza</title>
<path fill="none" stroke="black" d="M2071.13,-560.73C2137.27,-564.81 2246.14,-571.52 2304.77,-575.13"/>
<polygon fill="black" stroke="black" points="2304.91,-578.65 2315.11,-575.77 2305.34,-571.66 2304.91,-578.65"/>
</g>
<!-- Ex&#45;Lovers&#45;&gt;Dev -->
<g id="edge12" class="edge">
<title>Ex&#45;Lovers&#45;&gt;Dev</title>
<path fill="none" stroke="black" d="M2022.87,-539.28C2051.12,-469.28 2153.65,-215.24 2187.41,-131.58"/>
<polygon fill="black" stroke="black" points="2190.68,-132.83 2191.18,-122.24 2184.19,-130.21 2190.68,-132.83"/>
</g>
<!-- Immediate family&#45;&gt;Amy -->
<g id="edge17" class="edge">
<title>Immediate family&#45;&gt;Amy</title>
<path fill="none" stroke="black" d="M917.32,-963.79C839.53,-919.04 631.66,-799.45 552.52,-753.92"/>
<polygon fill="black" stroke="black" points="553.94,-750.7 543.53,-748.75 550.45,-756.77 553.94,-750.7"/>
</g>
<!-- Immediate family&#45;&gt;Linda -->
<g id="edge19" class="edge">
<title>Immediate family&#45;&gt;Linda</title>
<path fill="none" stroke="black" d="M934.53,-963.16C894.18,-906.63 769.14,-731.42 722.05,-665.45"/>
<polygon fill="black" stroke="black" points="724.86,-663.35 716.2,-657.24 719.16,-667.41 724.86,-663.35"/>
</g>
<!-- Immediate family&#45;&gt;Bob -->
<g id="edge18" class="edge">
<title>Immediate family&#45;&gt;Bob</title>
<path fill="none" stroke="black" d="M858.75,-986.14C778.36,-990.79 663.57,-997.43 604.31,-1000.86"/>
<polygon fill="black" stroke="black" points="604.04,-997.37 594.26,-1001.44 604.44,-1004.35 604.04,-997.37"/>
</g>
<!-- Mom&#39;s side&#45;&gt;Nancy -->
<g id="edge22" class="edge">
<title>Mom&#39;s side&#45;&gt;Nancy</title>
<path fill="none" stroke="black" d="M907.77,-1382.26C844.77,-1355.37 713.64,-1299.42 648.29,-1271.54"/>
<polygon fill="black" stroke="black" points="649.34,-1268.18 638.77,-1267.47 646.59,-1274.61 649.34,-1268.18"/>
</g>
<!-- Mom&#39;s side&#45;&gt;Karl -->
<g id="edge24" class="edge">
<title>Mom&#39;s side&#45;&gt;Karl</title>
<path fill="none" stroke="black" d="M931.44,-1415.31C890.53,-1477.97 754,-1687.12 706.28,-1760.23"/>
<polygon fill="black" stroke="black" points="703.19,-1758.56 700.65,-1768.84 709.05,-1762.38 703.19,-1758.56"/>
</g>
<!-- Mom&#39;s side&#45;&gt;Kevin -->
<g id="edge23" class="edge">
<title>Mom&#39;s side&#45;&gt;Kevin</title>
<path fill="none" stroke="black" d="M934.23,-1415.22C911.37,-1460.92 850.66,-1582.32 823.55,-1636.52"/>
<polygon fill="black" stroke="black" points="820.39,-1635.02 819.05,-1645.53 826.65,-1638.15 820.39,-1635.02"/>
</g>
<!-- Gary and Judy -->
<g id="node62" class="node">
<title>Gary and Judy</title>
<ellipse fill="none" stroke="black" cx="469.79" cy="-1463.89" rx="76.89" ry="18"/>
<text text-anchor="middle" x="469.79" y="-1460.19" font-family="Times,serif" font-size="14.00">Gary and Judy</text>
</g>
<!-- Mom&#39;s side&#45;&gt;Gary and Judy -->
<g id="edge16" class="edge">
<title>Mom&#39;s side&#45;&gt;Gary and Judy</title>
<path fill="none" stroke="black" d="M886.06,-1405.38C801,-1417.34 640.89,-1439.84 545.95,-1453.19"/>
<polygon fill="black" stroke="black" points="545.25,-1449.75 535.83,-1454.61 546.22,-1456.68 545.25,-1449.75"/>
</g>
<!-- Dad&#39;s side&#45;&gt;Judy Besen -->
<g id="edge29" class="edge">
<title>Dad&#39;s side&#45;&gt;Judy Besen</title>
<path fill="none" stroke="black" d="M1283.95,-1747.66C1254.43,-1793.78 1175.91,-1916.45 1141.08,-1970.88"/>
<polygon fill="black" stroke="black" points="1137.94,-1969.3 1135.49,-1979.61 1143.83,-1973.07 1137.94,-1969.3"/>
</g>
<!-- Dad&#39;s side&#45;&gt;Andy -->
<g id="edge28" class="edge">
<title>Dad&#39;s side&#45;&gt;Andy</title>
<path fill="none" stroke="black" d="M1273.96,-1746.42C1212.28,-1794.46 1034.86,-1932.65 966.28,-1986.06"/>
<polygon fill="black" stroke="black" points="963.84,-1983.53 958.1,-1992.44 968.14,-1989.05 963.84,-1983.53"/>
</g>
<!-- Dad&#39;s side&#45;&gt;Adam -->
<g id="edge25" class="edge">
<title>Dad&#39;s side&#45;&gt;Adam</title>
<path fill="none" stroke="black" d="M1306.21,-1747.77C1340.15,-1804.99 1445.2,-1982.07 1485.07,-2049.29"/>
<polygon fill="black" stroke="black" points="1482.14,-2051.21 1490.25,-2058.02 1488.16,-2047.64 1482.14,-2051.21"/>
</g>
<!-- Dad&#39;s side&#45;&gt;Matt -->
<g id="edge26" class="edge">
<title>Dad&#39;s side&#45;&gt;Matt</title>
<path fill="none" stroke="black" d="M1292.21,-1747.77C1279.9,-1816.22 1236.14,-2059.55 1221.21,-2142.55"/>
<polygon fill="black" stroke="black" points="1217.75,-2142.05 1219.42,-2152.51 1224.64,-2143.29 1217.75,-2142.05"/>
</g>
<!-- Dad&#39;s side&#45;&gt;Peter -->
<g id="edge27" class="edge">
<title>Dad&#39;s side&#45;&gt;Peter</title>
<path fill="none" stroke="black" d="M1299.73,-1747.77C1316.62,-1819.48 1378.88,-2083.85 1399.38,-2170.89"/>
<polygon fill="black" stroke="black" points="1396.02,-2171.9 1401.72,-2180.83 1402.84,-2170.3 1396.02,-2171.9"/>
</g>
<!-- Gary and Judy&#45;&gt;Judy Glades -->
<g id="edge21" class="edge">
<title>Gary and Judy&#45;&gt;Judy Glades</title>
<path fill="none" stroke="black" d="M418.61,-1450.46C343.04,-1430.62 202.06,-1393.61 123.06,-1372.88"/>
<polygon fill="black" stroke="black" points="123.84,-1369.46 113.28,-1370.31 122.06,-1376.24 123.84,-1369.46"/>
</g>
<!-- Gary and Judy&#45;&gt;Gary -->
<g id="edge20" class="edge">
<title>Gary and Judy&#45;&gt;Gary</title>
<path fill="none" stroke="black" d="M450.34,-1481.56C396.12,-1530.81 243.38,-1669.54 183.4,-1724.02"/>
<polygon fill="black" stroke="black" points="180.95,-1721.52 175.9,-1730.83 185.66,-1726.7 180.95,-1721.52"/>
</g>
<!-- IRC&#45;&gt;Alex -->
<g id="edge41" class="edge">
<title>IRC&#45;&gt;Alex</title>
<path fill="none" stroke="black" d="M2314,-1491.97C2258.39,-1479.56 2129.38,-1450.76 2064.72,-1436.33"/>
<polygon fill="black" stroke="black" points="2065.44,-1432.9 2054.92,-1434.14 2063.92,-1439.73 2065.44,-1432.9"/>
</g>
<!-- IRC&#45;&gt;Mike -->
<g id="edge40" class="edge">
<title>IRC&#45;&gt;Mike</title>
<path fill="none" stroke="black" d="M2338.51,-1516.09C2330.37,-1589.93 2299.75,-1867.41 2289.89,-1956.86"/>
<polygon fill="black" stroke="black" points="2286.41,-1956.49 2288.79,-1966.81 2293.36,-1957.26 2286.41,-1956.49"/>
</g>
<!-- IRC&#45;&gt;Andy Jenkins -->
<g id="edge44" class="edge">
<title>IRC&#45;&gt;Andy Jenkins</title>
<path fill="none" stroke="black" d="M2317.44,-1508.1C2265.06,-1531.27 2136.44,-1588.16 2067.89,-1618.49"/>
<polygon fill="black" stroke="black" points="2066.36,-1615.34 2058.63,-1622.58 2069.19,-1621.74 2066.36,-1615.34"/>
</g>
<!-- IRC&#45;&gt;Pat -->
<g id="edge43" class="edge">
<title>IRC&#45;&gt;Pat</title>
<path fill="none" stroke="black" d="M2347.54,-1480.25C2370,-1423.78 2440.25,-1247.15 2467.36,-1178.98"/>
<polygon fill="black" stroke="black" points="2470.74,-1179.96 2471.19,-1169.37 2464.24,-1177.37 2470.74,-1179.96"/>
</g>
<!-- IRC&#45;&gt;Joe -->
<g id="edge42" class="edge">
<title>IRC&#45;&gt;Joe</title>
<path fill="none" stroke="black" d="M2316.64,-1507.44C2281.38,-1521.55 2215.27,-1547.99 2175.45,-1563.92"/>
<polygon fill="black" stroke="black" points="2173.92,-1560.77 2165.93,-1567.73 2176.52,-1567.27 2173.92,-1560.77"/>
</g>
<!-- IRC&#45;&gt;Gurov -->
<g id="edge46" class="edge">
<title>IRC&#45;&gt;Gurov</title>
<path fill="none" stroke="black" d="M2346.15,-1515.64C2366.92,-1581.12 2439.37,-1809.49 2464.7,-1889.33"/>
<polygon fill="black" stroke="black" points="2461.46,-1890.69 2467.82,-1899.16 2468.13,-1888.57 2461.46,-1890.69"/>
</g>
<!-- IRC&#45;&gt;Nathan -->
<g id="edge45" class="edge">
<title>IRC&#45;&gt;Nathan</title>
<path fill="none" stroke="black" d="M2359.65,-1511.55C2413.28,-1549.84 2565.46,-1658.48 2631.02,-1705.29"/>
<polygon fill="black" stroke="black" points="2629.14,-1708.24 2639.31,-1711.21 2633.21,-1702.55 2629.14,-1708.24"/>
</g>
<!-- Junior Rangers -->
<g id="node64" class="node">
<title>Junior Rangers</title>
<polygon fill="none" stroke="black" points="2022.21,-818.49 1899.21,-818.49 1899.21,-782.49 2022.21,-782.49 2022.21,-818.49"/>
<text text-anchor="middle" x="1960.71" y="-796.79" font-family="Times,serif" font-size="14.00">Junior Rangers</text>
</g>
<!-- Junior Rangers&#45;&gt;Me -->
<g id="edge71" class="edge">
<title>Junior Rangers&#45;&gt;Me</title>
<path fill="none" stroke="black" d="M1934.77,-818.74C1900.12,-843.13 1838.72,-886.35 1800.98,-912.91"/>
<polygon fill="black" stroke="black" points="1798.54,-910.34 1792.38,-918.96 1802.57,-916.07 1798.54,-910.34"/>
</g>
<!-- Junior Rangers&#45;&gt;Liza -->
<g id="edge72" class="edge">
<title>Junior Rangers&#45;&gt;Liza</title>
<path fill="none" stroke="black" d="M1991.85,-782.44C2064.04,-740.59 2242.16,-637.32 2314.19,-595.57"/>
<polygon fill="black" stroke="black" points="2316.33,-598.37 2323.22,-590.33 2312.82,-592.32 2316.33,-598.37"/>
</g>
<!-- Junior Rangers&#45;&gt;Ben Wayne -->
<g id="edge73" class="edge">
<title>Junior Rangers&#45;&gt;Ben Wayne</title>
<path fill="none" stroke="black" d="M1912.58,-782.38C1833.09,-752.48 1675.28,-693.11 1595.99,-663.28"/>
<polygon fill="black" stroke="black" points="1596.85,-659.87 1586.26,-659.62 1594.39,-666.42 1596.85,-659.87"/>
</g>
<!-- High School -->
<g id="node65" class="node">
<title>High School</title>
<polygon fill="none" stroke="black" points="1792.98,-563.24 1689.98,-563.24 1689.98,-527.24 1792.98,-527.24 1792.98,-563.24"/>
<text text-anchor="middle" x="1741.48" y="-541.54" font-family="Times,serif" font-size="14.00">High School</text>
</g>
<!-- High School&#45;&gt;Me -->
<g id="edge74" class="edge">
<title>High School&#45;&gt;Me</title>
<path fill="none" stroke="black" d="M1742.73,-563.3C1746.81,-622.72 1759.92,-813.15 1765.64,-896.35"/>
<polygon fill="black" stroke="black" points="1762.16,-896.68 1766.34,-906.42 1769.14,-896.2 1762.16,-896.68"/>
</g>
<!-- High School&#45;&gt;Mary -->
<g id="edge76" class="edge">
<title>High School&#45;&gt;Mary</title>
<path fill="none" stroke="black" d="M1756,-527.12C1801.17,-470.71 1939.34,-298.18 1991.35,-233.24"/>
<polygon fill="black" stroke="black" points="1994.3,-235.15 1997.81,-225.16 1988.83,-230.78 1994.3,-235.15"/>
</g>
<!-- High School&#45;&gt;Audrey -->
<g id="edge75" class="edge">
<title>High School&#45;&gt;Audrey</title>
<path fill="none" stroke="black" d="M1748.69,-527.13C1773.35,-465.17 1854.46,-261.38 1884.17,-186.73"/>
<polygon fill="black" stroke="black" points="1887.56,-187.66 1888.01,-177.08 1881.06,-185.08 1887.56,-187.66"/>
</g>
<!-- High School&#45;&gt;Ben Cameron -->
<g id="edge79" class="edge">
<title>High School&#45;&gt;Ben Cameron</title>
<path fill="none" stroke="black" d="M1733.72,-526.77C1708.75,-467.37 1630.43,-281.07 1600.71,-210.38"/>
<polygon fill="black" stroke="black" points="1603.79,-208.69 1596.69,-200.82 1597.34,-211.4 1603.79,-208.69"/>
</g>
<!-- High School&#45;&gt;Ben Wayne -->
<g id="edge78" class="edge">
<title>High School&#45;&gt;Ben Wayne</title>
<path fill="none" stroke="black" d="M1706.48,-563.36C1673.02,-580.67 1622.64,-606.75 1587.74,-624.81"/>
<polygon fill="black" stroke="black" points="1586.05,-621.74 1578.78,-629.45 1589.27,-627.96 1586.05,-621.74"/>
</g>
<!-- High School&#45;&gt;Michael Vincent -->
<g id="edge77" class="edge">
<title>High School&#45;&gt;Michael Vincent</title>
<path fill="none" stroke="black" d="M1715.54,-527.23C1652.04,-483.14 1488.85,-369.83 1418.19,-320.77"/>
<polygon fill="black" stroke="black" points="1419.86,-317.67 1409.65,-314.84 1415.87,-323.42 1419.86,-317.67"/>
</g>
<!-- College -->
<g id="node66" class="node">
<title>College</title>
<polygon fill="none" stroke="black" points="1804.4,-1160.27 1734.4,-1160.27 1734.4,-1124.27 1804.4,-1124.27 1804.4,-1160.27"/>
<text text-anchor="middle" x="1769.4" y="-1138.57" font-family="Times,serif" font-size="14.00">College</text>
</g>
<!-- College&#45;&gt;Me -->
<g id="edge80" class="edge">
<title>College&#45;&gt;Me</title>
<path fill="none" stroke="black" d="M1769.31,-1123.95C1769.14,-1090.8 1768.79,-1020.14 1768.56,-975.49"/>
<polygon fill="black" stroke="black" points="1772.06,-975.27 1768.51,-965.28 1765.06,-975.3 1772.06,-975.27"/>
</g>
<!-- College&#45;&gt;Bonnie -->
<g id="edge81" class="edge">
<title>College&#45;&gt;Bonnie</title>
<path fill="none" stroke="black" d="M1772.09,-1124.19C1782.14,-1056.68 1817.49,-819.08 1829.72,-736.83"/>
<polygon fill="black" stroke="black" points="1833.22,-737.13 1831.23,-726.72 1826.29,-736.1 1833.22,-737.13"/>
</g>
<!-- College&#45;&gt;Alex -->
<g id="edge82" class="edge">
<title>College&#45;&gt;Alex</title>
<path fill="none" stroke="black" d="M1785.87,-1160.56C1830.73,-1210.41 1955.12,-1348.63 2005.12,-1404.19"/>
<polygon fill="black" stroke="black" points="2002.65,-1406.67 2011.94,-1411.76 2007.85,-1401.99 2002.65,-1406.67"/>
</g>
<!-- Grad school -->
<g id="node67" class="node">
<title>Grad school</title>
<polygon fill="none" stroke="black" points="1633.12,-1135.64 1532.12,-1135.64 1532.12,-1099.64 1633.12,-1099.64 1633.12,-1135.64"/>
<text text-anchor="middle" x="1582.62" y="-1113.94" font-family="Times,serif" font-size="14.00">Grad school</text>
</g>
<!-- Grad school&#45;&gt;Me -->
<g id="edge83" class="edge">
<title>Grad school&#45;&gt;Me</title>
<path fill="none" stroke="black" d="M1601.1,-1099.54C1633.62,-1067.72 1701.25,-1001.54 1739.81,-963.81"/>
<polygon fill="black" stroke="black" points="1742.42,-966.15 1747.12,-956.66 1737.52,-961.15 1742.42,-966.15"/>
</g>
<!-- Grad school&#45;&gt;Cole -->
<g id="edge84" class="edge">
<title>Grad school&#45;&gt;Cole</title>
<path fill="none" stroke="black" d="M1594.31,-1136.09C1628.46,-1189.98 1728.16,-1347.28 1767.58,-1409.48"/>
<polygon fill="black" stroke="black" points="1764.84,-1411.71 1773.15,-1418.28 1770.76,-1407.96 1764.84,-1411.71"/>
</g>
</g>
</svg>
