<?xml version="1.0" encoding="UTF-8" standalone="no"?>
<!DOCTYPE svg PUBLIC "-//W3C//DTD SVG 1.1//EN"
 "http://www.w3.org/Graphics/SVG/1.1/DTD/svg11.dtd">
<!-- Generated by graphviz version 2.43.0 (0)
 -->
<!-- Title: G Pages: 1 -->
<svg width="2316pt" height="2008pt"
 viewBox="0.00 0.00 2315.72 2008.31" xmlns="http://www.w3.org/2000/svg" xmlns:xlink="http://www.w3.org/1999/xlink">
<g id="graph0" class="graph" transform="scale(1 1) rotate(0) translate(4 2004.31)">
<title>G</title>
<polygon fill="white" stroke="transparent" points="-4,4 -4,-2004.31 2311.72,-2004.31 2311.72,4 -4,4"/>
<!-- Me -->
<g id="node1" class="node">
<title>Me</title>
<ellipse fill="none" stroke="black" stroke-width="2" cx="1382.06" cy="-985.21" rx="25.22" ry="25.22"/>
<ellipse fill="none" stroke="black" stroke-width="2" cx="1382.06" cy="-985.21" rx="29.2" ry="29.2"/>
<text text-anchor="middle" x="1382.06" y="-981.51" font-family="Times,serif" font-size="14.00">Me</text>
</g>
<!-- Friends -->
<g id="node50" class="node">
<title>Friends</title>
<ellipse fill="none" stroke="black" cx="1440" cy="-1263.92" rx="46.29" ry="18"/>
<text text-anchor="middle" x="1440" y="-1260.22" font-family="Times,serif" font-size="14.00">Friends</text>
</g>
<!-- Me&#45;&gt;Friends -->
<g id="edge1" class="edge">
<title>Me&#45;&gt;Friends</title>
<path fill="none" stroke="black" d="M1388.05,-1013.99C1399.22,-1067.72 1423.12,-1182.69 1434.17,-1235.87"/>
<polygon fill="black" stroke="black" points="1430.8,-1236.86 1436.26,-1245.94 1437.65,-1235.44 1430.8,-1236.86"/>
</g>
<!-- Family -->
<g id="node51" class="node">
<title>Family</title>
<ellipse fill="none" stroke="black" cx="972.64" cy="-930.65" rx="42.49" ry="18"/>
<text text-anchor="middle" x="972.64" y="-926.95" font-family="Times,serif" font-size="14.00">Family</text>
</g>
<!-- Me&#45;&gt;Family -->
<g id="edge2" class="edge">
<title>Me&#45;&gt;Family</title>
<path fill="none" stroke="black" d="M1352.95,-981.33C1283.96,-972.14 1109.84,-948.94 1023.21,-937.39"/>
<polygon fill="black" stroke="black" points="1023.46,-933.9 1013.09,-936.04 1022.54,-940.83 1023.46,-933.9"/>
</g>
<!-- Coworkers -->
<g id="node52" class="node">
<title>Coworkers</title>
<ellipse fill="none" stroke="black" cx="1647.65" cy="-1256.5" rx="60.39" ry="18"/>
<text text-anchor="middle" x="1647.65" y="-1252.8" font-family="Times,serif" font-size="14.00">Coworkers</text>
</g>
<!-- Me&#45;&gt;Coworkers -->
<g id="edge3" class="edge">
<title>Me&#45;&gt;Coworkers</title>
<path fill="none" stroke="black" d="M1402.9,-1006.5C1451.39,-1056.02 1571.56,-1178.77 1623.31,-1231.63"/>
<polygon fill="black" stroke="black" points="1620.93,-1234.21 1630.43,-1238.91 1625.93,-1229.32 1620.93,-1234.21"/>
</g>
<!-- Ex&#45;Friends -->
<g id="node55" class="node">
<title>Ex&#45;Friends</title>
<ellipse fill="none" stroke="black" cx="1545.34" cy="-612.84" rx="61.19" ry="18"/>
<text text-anchor="middle" x="1545.34" y="-609.14" font-family="Times,serif" font-size="14.00">Ex&#45;Friends</text>
</g>
<!-- Me&#45;&gt;Ex&#45;Friends -->
<g id="edge6" class="edge">
<title>Me&#45;&gt;Ex&#45;Friends</title>
<path fill="none" stroke="black" d="M1393.94,-958.13C1424.01,-889.54 1502.95,-709.51 1533.25,-640.4"/>
<polygon fill="black" stroke="black" points="1536.55,-641.6 1537.36,-631.03 1530.14,-638.78 1536.55,-641.6"/>
</g>
<!-- Ex&#45;Lovers -->
<g id="node56" class="node">
<title>Ex&#45;Lovers</title>
<ellipse fill="none" stroke="black" cx="1509.02" cy="-861.69" rx="56.59" ry="18"/>
<text text-anchor="middle" x="1509.02" y="-857.99" font-family="Times,serif" font-size="14.00">Ex&#45;Lovers</text>
</g>
<!-- Me&#45;&gt;Ex&#45;Lovers -->
<g id="edge7" class="edge">
<title>Me&#45;&gt;Ex&#45;Lovers</title>
<path fill="none" stroke="black" d="M1403.31,-964.54C1425.61,-942.85 1460.62,-908.78 1484.17,-885.87"/>
<polygon fill="black" stroke="black" points="1486.66,-888.33 1491.39,-878.85 1481.78,-883.31 1486.66,-888.33"/>
</g>
<!-- Mary -->
<g id="node2" class="node">
<title>Mary</title>
<ellipse fill="pink" stroke="black" cx="1737.82" cy="-646.18" rx="35.19" ry="18"/>
<text text-anchor="middle" x="1737.82" y="-642.48" font-family="Times,serif" font-size="14.00">Mary</text>
</g>
<!-- Audrey -->
<g id="node3" class="node">
<title>Audrey</title>
<ellipse fill="pink" stroke="black" cx="1471.97" cy="-548.93" rx="44.39" ry="18"/>
<text text-anchor="middle" x="1471.97" y="-545.23" font-family="Times,serif" font-size="14.00">Audrey</text>
</g>
<!-- Bonnie -->
<g id="node4" class="node">
<title>Bonnie</title>
<ellipse fill="pink" stroke="black" cx="1237.46" cy="-862.17" rx="42.79" ry="18"/>
<text text-anchor="middle" x="1237.46" y="-858.47" font-family="Times,serif" font-size="14.00">Bonnie</text>
</g>
<!-- Liza -->
<g id="node5" class="node">
<title>Liza</title>
<ellipse fill="pink" stroke="black" cx="1840.07" cy="-996.59" rx="29.8" ry="18"/>
<text text-anchor="middle" x="1840.07" y="-992.89" font-family="Times,serif" font-size="14.00">Liza</text>
</g>
<!-- Marsha -->
<g id="node6" class="node">
<title>Marsha</title>
<ellipse fill="pink" stroke="black" cx="1448.55" cy="-276.16" rx="46.29" ry="18"/>
<text text-anchor="middle" x="1448.55" y="-272.46" font-family="Times,serif" font-size="14.00">Marsha</text>
</g>
<!-- Amy -->
<g id="node7" class="node">
<title>Amy</title>
<ellipse fill="pink" stroke="black" cx="657.54" cy="-327.43" rx="31.4" ry="18"/>
<text text-anchor="middle" x="657.54" y="-323.73" font-family="Times,serif" font-size="14.00">Amy</text>
</g>
<!-- Sean -->
<g id="node43" class="node">
<title>Sean</title>
<ellipse fill="lightblue" stroke="black" cx="568.93" cy="-18" rx="33.6" ry="18"/>
<text text-anchor="middle" x="568.93" y="-14.3" font-family="Times,serif" font-size="14.00">Sean</text>
</g>
<!-- Amy&#45;&gt;Sean -->
<g id="edge32" class="edge">
<title>Amy&#45;&gt;Sean</title>
<path fill="none" stroke="black" d="M652.39,-309.46C637.59,-257.76 594.82,-108.39 576.94,-45.95"/>
<polygon fill="black" stroke="black" points="580.21,-44.67 574.1,-36.02 573.48,-46.6 580.21,-44.67"/>
</g>
<!-- Nancy -->
<g id="node8" class="node">
<title>Nancy</title>
<ellipse fill="pink" stroke="black" cx="565.22" cy="-602.63" rx="40.09" ry="18"/>
<text text-anchor="middle" x="565.22" y="-598.93" font-family="Times,serif" font-size="14.00">Nancy</text>
</g>
<!-- Linda -->
<g id="node9" class="node">
<title>Linda</title>
<ellipse fill="pink" stroke="black" cx="791.95" cy="-348.44" rx="36.29" ry="18"/>
<text text-anchor="middle" x="791.95" y="-344.74" font-family="Times,serif" font-size="14.00">Linda</text>
</g>
<!-- Judy Besen -->
<g id="node10" class="node">
<title>Judy Besen</title>
<ellipse fill="pink" stroke="black" cx="484.16" cy="-1152.03" rx="62.29" ry="18"/>
<text text-anchor="middle" x="484.16" y="-1148.33" font-family="Times,serif" font-size="14.00">Judy Besen</text>
</g>
<!-- Judy Glades -->
<g id="node11" class="node">
<title>Judy Glades</title>
<ellipse fill="pink" stroke="black" cx="65.64" cy="-683.64" rx="65.79" ry="18"/>
<text text-anchor="middle" x="65.64" y="-679.94" font-family="Times,serif" font-size="14.00">Judy Glades</text>
</g>
<!-- Dev -->
<g id="node12" class="node">
<title>Dev</title>
<ellipse fill="pink" stroke="black" cx="1292.3" cy="-598.38" rx="28.7" ry="18"/>
<text text-anchor="middle" x="1292.3" y="-594.68" font-family="Times,serif" font-size="14.00">Dev</text>
</g>
<!-- Nels -->
<g id="node13" class="node">
<title>Nels</title>
<ellipse fill="lightblue" stroke="black" cx="1890.69" cy="-442.04" rx="31.7" ry="18"/>
<text text-anchor="middle" x="1890.69" y="-438.34" font-family="Times,serif" font-size="14.00">Nels</text>
</g>
<!-- Alex -->
<g id="node14" class="node">
<title>Alex</title>
<ellipse fill="lightblue" stroke="black" cx="1258.47" cy="-1412.06" rx="30.59" ry="18"/>
<text text-anchor="middle" x="1258.47" y="-1408.36" font-family="Times,serif" font-size="14.00">Alex</text>
</g>
<!-- Mike -->
<g id="node15" class="node">
<title>Mike</title>
<ellipse fill="lightblue" stroke="black" cx="1491.23" cy="-1868.74" rx="33.6" ry="18"/>
<text text-anchor="middle" x="1491.23" y="-1865.04" font-family="Times,serif" font-size="14.00">Mike</text>
</g>
<!-- Ben Cameron -->
<g id="node16" class="node">
<title>Ben Cameron</title>
<ellipse fill="lightblue" stroke="black" cx="1525.14" cy="-398.99" rx="73.39" ry="18"/>
<text text-anchor="middle" x="1525.14" y="-395.29" font-family="Times,serif" font-size="14.00">Ben Cameron</text>
</g>
<!-- Dave Kapp -->
<g id="node17" class="node">
<title>Dave Kapp</title>
<ellipse fill="lightblue" stroke="black" cx="1628.79" cy="-275.9" rx="61.19" ry="18"/>
<text text-anchor="middle" x="1628.79" y="-272.2" font-family="Times,serif" font-size="14.00">Dave Kapp</text>
</g>
<!-- Ben Wayne -->
<g id="node18" class="node">
<title>Ben Wayne</title>
<ellipse fill="lightblue" stroke="black" cx="1810.75" cy="-699.06" rx="62.29" ry="18"/>
<text text-anchor="middle" x="1810.75" y="-695.36" font-family="Times,serif" font-size="14.00">Ben Wayne</text>
</g>
<!-- James -->
<g id="node19" class="node">
<title>James</title>
<ellipse fill="lightblue" stroke="black" cx="1327.33" cy="-370.83" rx="38.19" ry="18"/>
<text text-anchor="middle" x="1327.33" y="-367.13" font-family="Times,serif" font-size="14.00">James</text>
</g>
<!-- Andy -->
<g id="node20" class="node">
<title>Andy</title>
<ellipse fill="lightblue" stroke="black" cx="399.69" cy="-1314.82" rx="34.39" ry="18"/>
<text text-anchor="middle" x="399.69" y="-1311.12" font-family="Times,serif" font-size="14.00">Andy</text>
</g>
<!-- Andy Jenkins -->
<g id="node21" class="node">
<title>Andy Jenkins</title>
<ellipse fill="lightblue" stroke="black" cx="1228.29" cy="-1528.11" rx="70.69" ry="18"/>
<text text-anchor="middle" x="1228.29" y="-1524.41" font-family="Times,serif" font-size="14.00">Andy Jenkins</text>
</g>
<!-- Cole -->
<g id="node22" class="node">
<title>Cole</title>
<ellipse fill="lightblue" stroke="black" cx="1159.23" cy="-1304.18" rx="31.4" ry="18"/>
<text text-anchor="middle" x="1159.23" y="-1300.48" font-family="Times,serif" font-size="14.00">Cole</text>
</g>
<!-- Pat -->
<g id="node23" class="node">
<title>Pat</title>
<ellipse fill="lightblue" stroke="black" cx="1695.87" cy="-1423.8" rx="27" ry="18"/>
<text text-anchor="middle" x="1695.87" y="-1420.1" font-family="Times,serif" font-size="14.00">Pat</text>
</g>
<!-- Joe -->
<g id="node24" class="node">
<title>Joe</title>
<ellipse fill="lightblue" stroke="black" cx="1467.56" cy="-1473.99" rx="27" ry="18"/>
<text text-anchor="middle" x="1467.56" y="-1470.29" font-family="Times,serif" font-size="14.00">Joe</text>
</g>
<!-- Michael Vincent -->
<g id="node25" class="node">
<title>Michael Vincent</title>
<ellipse fill="lightblue" stroke="black" cx="1785.1" cy="-509.35" rx="85.29" ry="18"/>
<text text-anchor="middle" x="1785.1" y="-505.65" font-family="Times,serif" font-size="14.00">Michael Vincent</text>
</g>
<!-- Kyle -->
<g id="node26" class="node">
<title>Kyle</title>
<ellipse fill="lightblue" stroke="black" cx="1789.86" cy="-1205.06" rx="30.59" ry="18"/>
<text text-anchor="middle" x="1789.86" y="-1201.36" font-family="Times,serif" font-size="14.00">Kyle</text>
</g>
<!-- Mike (forevern00b) -->
<g id="node30" class="node">
<title>Mike (forevern00b)</title>
<ellipse fill="lightblue" stroke="black" cx="2109.7" cy="-938.38" rx="100.98" ry="18"/>
<text text-anchor="middle" x="2109.7" y="-934.68" font-family="Times,serif" font-size="14.00">Mike (forevern00b)</text>
</g>
<!-- Kyle&#45;&gt;Mike (forevern00b) -->
<g id="edge55" class="edge">
<title>Kyle&#45;&gt;Mike (forevern00b)</title>
<path fill="none" stroke="black" d="M1807.51,-1190.34C1860,-1146.57 2015.53,-1016.9 2080.58,-962.66"/>
<polygon fill="black" stroke="black" points="2082.98,-965.22 2088.42,-956.13 2078.49,-959.84 2082.98,-965.22"/>
</g>
<!-- Wade -->
<g id="node27" class="node">
<title>Wade</title>
<ellipse fill="lightblue" stroke="black" cx="2271.32" cy="-1310.3" rx="36.29" ry="18"/>
<text text-anchor="middle" x="2271.32" y="-1306.6" font-family="Times,serif" font-size="14.00">Wade</text>
</g>
<!-- Corey -->
<g id="node28" class="node">
<title>Corey</title>
<ellipse fill="lightblue" stroke="black" cx="2062.36" cy="-1532.19" rx="38.19" ry="18"/>
<text text-anchor="middle" x="2062.36" y="-1528.49" font-family="Times,serif" font-size="14.00">Corey</text>
</g>
<!-- Steven -->
<g id="node29" class="node">
<title>Steven</title>
<ellipse fill="lightblue" stroke="black" cx="2200.97" cy="-1035.39" rx="42.79" ry="18"/>
<text text-anchor="middle" x="2200.97" y="-1031.69" font-family="Times,serif" font-size="14.00">Steven</text>
</g>
<!-- Jef -->
<g id="node31" class="node">
<title>Jef</title>
<ellipse fill="lightblue" stroke="black" cx="2217.85" cy="-1458.5" rx="27" ry="18"/>
<text text-anchor="middle" x="2217.85" y="-1454.8" font-family="Times,serif" font-size="14.00">Jef</text>
</g>
<!-- Mike Stabnow -->
<g id="node32" class="node">
<title>Mike Stabnow</title>
<ellipse fill="lightblue" stroke="black" cx="2202.69" cy="-1203.93" rx="77.19" ry="18"/>
<text text-anchor="middle" x="2202.69" y="-1200.23" font-family="Times,serif" font-size="14.00">Mike Stabnow</text>
</g>
<!-- Jon Yu -->
<g id="node33" class="node">
<title>Jon Yu</title>
<ellipse fill="lightblue" stroke="black" cx="1542.7" cy="-1965.09" rx="39.79" ry="18"/>
<text text-anchor="middle" x="1542.7" y="-1961.39" font-family="Times,serif" font-size="14.00">Jon Yu</text>
</g>
<!-- Sahil -->
<g id="node34" class="node">
<title>Sahil</title>
<ellipse fill="lightblue" stroke="black" cx="1681.62" cy="-1982.31" rx="34.39" ry="18"/>
<text text-anchor="middle" x="1681.62" y="-1978.61" font-family="Times,serif" font-size="14.00">Sahil</text>
</g>
<!-- Lokesh -->
<g id="node35" class="node">
<title>Lokesh</title>
<ellipse fill="lightblue" stroke="black" cx="1956.18" cy="-1890.48" rx="43.59" ry="18"/>
<text text-anchor="middle" x="1956.18" y="-1886.78" font-family="Times,serif" font-size="14.00">Lokesh</text>
</g>
<!-- Ruthvik -->
<g id="node36" class="node">
<title>Ruthvik</title>
<ellipse fill="lightblue" stroke="black" cx="2055.92" cy="-1792.81" rx="46.59" ry="18"/>
<text text-anchor="middle" x="2055.92" y="-1789.11" font-family="Times,serif" font-size="14.00">Ruthvik</text>
</g>
<!-- David Ward -->
<g id="node37" class="node">
<title>David Ward</title>
<ellipse fill="lightblue" stroke="black" cx="1825.34" cy="-1958.37" rx="64.99" ry="18"/>
<text text-anchor="middle" x="1825.34" y="-1954.67" font-family="Times,serif" font-size="14.00">David Ward</text>
</g>
<!-- Adam -->
<g id="node38" class="node">
<title>Adam</title>
<ellipse fill="lightblue" stroke="black" cx="687.15" cy="-1528.76" rx="37.09" ry="18"/>
<text text-anchor="middle" x="687.15" y="-1525.06" font-family="Times,serif" font-size="14.00">Adam</text>
</g>
<!-- Karl -->
<g id="node39" class="node">
<title>Karl</title>
<ellipse fill="lightblue" stroke="black" cx="374.89" cy="-1017" rx="30.59" ry="18"/>
<text text-anchor="middle" x="374.89" y="-1013.3" font-family="Times,serif" font-size="14.00">Karl</text>
</g>
<!-- Matt -->
<g id="node40" class="node">
<title>Matt</title>
<ellipse fill="lightblue" stroke="black" cx="543.88" cy="-1373.44" rx="33.29" ry="18"/>
<text text-anchor="middle" x="543.88" y="-1369.74" font-family="Times,serif" font-size="14.00">Matt</text>
</g>
<!-- Peter -->
<g id="node41" class="node">
<title>Peter</title>
<ellipse fill="lightblue" stroke="black" cx="561.98" cy="-1515.26" rx="36" ry="18"/>
<text text-anchor="middle" x="561.98" y="-1511.56" font-family="Times,serif" font-size="14.00">Peter</text>
</g>
<!-- Kevin -->
<g id="node42" class="node">
<title>Kevin</title>
<ellipse fill="lightblue" stroke="black" cx="441.11" cy="-846.59" rx="36.29" ry="18"/>
<text text-anchor="middle" x="441.11" y="-842.89" font-family="Times,serif" font-size="14.00">Kevin</text>
</g>
<!-- Bob -->
<g id="node44" class="node">
<title>Bob</title>
<ellipse fill="lightblue" stroke="black" cx="922.13" cy="-256.01" rx="28.7" ry="18"/>
<text text-anchor="middle" x="922.13" y="-252.31" font-family="Times,serif" font-size="14.00">Bob</text>
</g>
<!-- Gary -->
<g id="node45" class="node">
<title>Gary</title>
<ellipse fill="lightblue" stroke="black" cx="194.64" cy="-411.95" rx="33.29" ry="18"/>
<text text-anchor="middle" x="194.64" y="-408.25" font-family="Times,serif" font-size="14.00">Gary</text>
</g>
<!-- Michael Scheetz -->
<g id="node46" class="node">
<title>Michael Scheetz</title>
<ellipse fill="lightblue" stroke="black" cx="2129.37" cy="-1414.5" rx="87.18" ry="18"/>
<text text-anchor="middle" x="2129.37" y="-1410.8" font-family="Times,serif" font-size="14.00">Michael Scheetz</text>
</g>
<!-- Don -->
<g id="node47" class="node">
<title>Don</title>
<ellipse fill="lightblue" stroke="black" cx="2277.97" cy="-1124.25" rx="29.5" ry="18"/>
<text text-anchor="middle" x="2277.97" y="-1120.55" font-family="Times,serif" font-size="14.00">Don</text>
</g>
<!-- Matt Bishop -->
<g id="node48" class="node">
<title>Matt Bishop</title>
<ellipse fill="lightblue" stroke="black" cx="1759.76" cy="-336.32" rx="67.69" ry="18"/>
<text text-anchor="middle" x="1759.76" y="-332.62" font-family="Times,serif" font-size="14.00">Matt Bishop</text>
</g>
<!-- Deceased -->
<g id="node49" class="node">
<title>Deceased</title>
<ellipse fill="black" stroke="black" cx="131.77" cy="-1223.12" rx="55.49" ry="18"/>
<text text-anchor="middle" x="131.77" y="-1219.42" font-family="Times,serif" font-size="14.00" fill="white">Deceased</text>
</g>
<!-- Deceased&#45;&gt;Andy -->
<g id="edge30" class="edge">
<title>Deceased&#45;&gt;Andy</title>
<path fill="none" stroke="black" d="M169.87,-1236.16C220.66,-1253.55 310.05,-1284.14 361.09,-1301.61"/>
<polygon fill="black" stroke="black" points="360.17,-1305 370.76,-1304.93 362.44,-1298.38 360.17,-1305"/>
</g>
<!-- Deceased&#45;&gt;Karl -->
<g id="edge31" class="edge">
<title>Deceased&#45;&gt;Karl</title>
<path fill="none" stroke="black" d="M151.67,-1206.25C195.62,-1168.99 300.95,-1079.69 349.54,-1038.5"/>
<polygon fill="black" stroke="black" points="352.02,-1040.99 357.38,-1031.85 347.49,-1035.65 352.02,-1040.99"/>
</g>
<!-- Friends&#45;&gt;Alex -->
<g id="edge33" class="edge">
<title>Friends&#45;&gt;Alex</title>
<path fill="none" stroke="black" d="M1419.88,-1280.34C1386.75,-1307.37 1320.77,-1361.22 1284.26,-1391.01"/>
<polygon fill="black" stroke="black" points="1282.04,-1388.3 1276.51,-1397.34 1286.47,-1393.73 1282.04,-1388.3"/>
</g>
<!-- Friends&#45;&gt;Andy Jenkins -->
<g id="edge37" class="edge">
<title>Friends&#45;&gt;Andy Jenkins</title>
<path fill="none" stroke="black" d="M1426.11,-1281.25C1389.78,-1326.58 1291.82,-1448.82 1248.9,-1502.38"/>
<polygon fill="black" stroke="black" points="1246.03,-1500.37 1242.51,-1510.36 1251.49,-1504.75 1246.03,-1500.37"/>
</g>
<!-- Friends&#45;&gt;Cole -->
<g id="edge38" class="edge">
<title>Friends&#45;&gt;Cole</title>
<path fill="none" stroke="black" d="M1396.44,-1270.16C1342.72,-1277.87 1252.13,-1290.86 1199.82,-1298.36"/>
<polygon fill="black" stroke="black" points="1199.29,-1294.9 1189.89,-1299.79 1200.28,-1301.83 1199.29,-1294.9"/>
</g>
<!-- Friends&#45;&gt;Pat -->
<g id="edge36" class="edge">
<title>Friends&#45;&gt;Pat</title>
<path fill="none" stroke="black" d="M1464.53,-1279.25C1512.21,-1309.04 1617.09,-1374.57 1667.6,-1406.13"/>
<polygon fill="black" stroke="black" points="1665.75,-1409.11 1676.08,-1411.44 1669.45,-1403.17 1665.75,-1409.11"/>
</g>
<!-- Friends&#45;&gt;Joe -->
<g id="edge34" class="edge">
<title>Friends&#45;&gt;Joe</title>
<path fill="none" stroke="black" d="M1442.4,-1282.19C1447.23,-1318.99 1458.15,-1402.21 1463.88,-1445.94"/>
<polygon fill="black" stroke="black" points="1460.42,-1446.45 1465.19,-1455.91 1467.36,-1445.54 1460.42,-1446.45"/>
</g>
<!-- Friends&#45;&gt;Kyle -->
<g id="edge35" class="edge">
<title>Friends&#45;&gt;Kyle</title>
<path fill="none" stroke="black" d="M1482.55,-1256.76C1550.83,-1245.27 1683.91,-1222.88 1750.26,-1211.72"/>
<polygon fill="black" stroke="black" points="1751.04,-1215.14 1760.32,-1210.03 1749.87,-1208.23 1751.04,-1215.14"/>
</g>
<!-- IRC -->
<g id="node61" class="node">
<title>IRC</title>
<ellipse fill="none" stroke="black" cx="1428.73" cy="-1588.25" rx="27.9" ry="18"/>
<text text-anchor="middle" x="1428.73" y="-1584.55" font-family="Times,serif" font-size="14.00">IRC</text>
</g>
<!-- Friends&#45;&gt;IRC -->
<g id="edge39" class="edge">
<title>Friends&#45;&gt;IRC</title>
<path fill="none" stroke="black" d="M1439.36,-1282.28C1437.49,-1336.25 1431.99,-1494.6 1429.72,-1559.75"/>
<polygon fill="black" stroke="black" points="1426.21,-1559.97 1429.36,-1570.09 1433.21,-1560.21 1426.21,-1559.97"/>
</g>
<!-- Immediate family -->
<g id="node57" class="node">
<title>Immediate family</title>
<ellipse fill="none" stroke="black" cx="881.66" cy="-599.44" rx="92.08" ry="18"/>
<text text-anchor="middle" x="881.66" y="-595.74" font-family="Times,serif" font-size="14.00">Immediate family</text>
</g>
<!-- Family&#45;&gt;Immediate family -->
<g id="edge13" class="edge">
<title>Family&#45;&gt;Immediate family</title>
<path fill="none" stroke="black" d="M967.62,-912.38C952.52,-857.41 907.46,-693.35 889.34,-627.37"/>
<polygon fill="black" stroke="black" points="892.69,-626.38 886.67,-617.66 885.94,-628.23 892.69,-626.38"/>
</g>
<!-- Mom&#39;s side -->
<g id="node58" class="node">
<title>Mom&#39;s side</title>
<ellipse fill="none" stroke="black" cx="678.27" cy="-853.09" rx="63.89" ry="18"/>
<text text-anchor="middle" x="678.27" y="-849.39" font-family="Times,serif" font-size="14.00">Mom&#39;s side</text>
</g>
<!-- Family&#45;&gt;Mom&#39;s side -->
<g id="edge14" class="edge">
<title>Family&#45;&gt;Mom&#39;s side</title>
<path fill="none" stroke="black" d="M936.55,-921.14C886.26,-907.89 794.61,-883.75 735.1,-868.07"/>
<polygon fill="black" stroke="black" points="735.67,-864.6 725.11,-865.43 733.88,-871.37 735.67,-864.6"/>
</g>
<!-- Dad&#39;s side -->
<g id="node59" class="node">
<title>Dad&#39;s side</title>
<ellipse fill="none" stroke="black" cx="737.23" cy="-1207.39" rx="58.49" ry="18"/>
<text text-anchor="middle" x="737.23" y="-1203.69" font-family="Times,serif" font-size="14.00">Dad&#39;s side</text>
</g>
<!-- Family&#45;&gt;Dad&#39;s side -->
<g id="edge15" class="edge">
<title>Family&#45;&gt;Dad&#39;s side</title>
<path fill="none" stroke="black" d="M957.92,-947.97C917.72,-995.22 805.96,-1126.59 758.74,-1182.11"/>
<polygon fill="black" stroke="black" points="756.07,-1179.84 752.25,-1189.73 761.4,-1184.38 756.07,-1179.84"/>
</g>
<!-- Current coworkers -->
<g id="node53" class="node">
<title>Current coworkers</title>
<ellipse fill="none" stroke="black" cx="1731.52" cy="-1665.11" rx="98.28" ry="18"/>
<text text-anchor="middle" x="1731.52" y="-1661.41" font-family="Times,serif" font-size="14.00">Current coworkers</text>
</g>
<!-- Coworkers&#45;&gt;Current coworkers -->
<g id="edge4" class="edge">
<title>Coworkers&#45;&gt;Current coworkers</title>
<path fill="none" stroke="black" d="M1651.36,-1274.59C1664.59,-1339.05 1709.52,-1557.92 1725.67,-1636.63"/>
<polygon fill="black" stroke="black" points="1722.32,-1637.68 1727.76,-1646.77 1729.17,-1636.27 1722.32,-1637.68"/>
</g>
<!-- Previous coworkers -->
<g id="node54" class="node">
<title>Previous coworkers</title>
<ellipse fill="none" stroke="black" cx="1953.57" cy="-1257.61" rx="102.08" ry="18"/>
<text text-anchor="middle" x="1953.57" y="-1253.91" font-family="Times,serif" font-size="14.00">Previous coworkers</text>
</g>
<!-- Coworkers&#45;&gt;Previous coworkers -->
<g id="edge5" class="edge">
<title>Coworkers&#45;&gt;Previous coworkers</title>
<path fill="none" stroke="black" d="M1708.45,-1256.72C1746.36,-1256.86 1796.31,-1257.04 1841.22,-1257.2"/>
<polygon fill="black" stroke="black" points="1841.3,-1260.7 1851.31,-1257.24 1841.33,-1253.7 1841.3,-1260.7"/>
</g>
<!-- Current coworkers&#45;&gt;Jon Yu -->
<g id="edge68" class="edge">
<title>Current coworkers&#45;&gt;Jon Yu</title>
<path fill="none" stroke="black" d="M1719.99,-1683.42C1687.77,-1734.62 1596.65,-1879.37 1559.15,-1938.96"/>
<polygon fill="black" stroke="black" points="1555.97,-1937.44 1553.6,-1947.77 1561.89,-1941.17 1555.97,-1937.44"/>
</g>
<!-- Current coworkers&#45;&gt;Sahil -->
<g id="edge67" class="edge">
<title>Current coworkers&#45;&gt;Sahil</title>
<path fill="none" stroke="black" d="M1728.62,-1683.54C1720.26,-1736.66 1696.08,-1890.38 1686.05,-1954.11"/>
<polygon fill="black" stroke="black" points="1682.56,-1953.81 1684.46,-1964.23 1689.47,-1954.89 1682.56,-1953.81"/>
</g>
<!-- Current coworkers&#45;&gt;Lokesh -->
<g id="edge70" class="edge">
<title>Current coworkers&#45;&gt;Lokesh</title>
<path fill="none" stroke="black" d="M1749.53,-1683.17C1789.68,-1723.46 1886.61,-1820.69 1931.99,-1866.21"/>
<polygon fill="black" stroke="black" points="1929.78,-1868.96 1939.32,-1873.57 1934.74,-1864.01 1929.78,-1868.96"/>
</g>
<!-- Current coworkers&#45;&gt;Ruthvik -->
<g id="edge69" class="edge">
<title>Current coworkers&#45;&gt;Ruthvik</title>
<path fill="none" stroke="black" d="M1773.26,-1681.54C1835.31,-1705.97 1951.24,-1751.6 2013.61,-1776.15"/>
<polygon fill="black" stroke="black" points="2012.56,-1779.5 2023.15,-1779.91 2015.12,-1772.99 2012.56,-1779.5"/>
</g>
<!-- Current coworkers&#45;&gt;David Ward -->
<g id="edge66" class="edge">
<title>Current coworkers&#45;&gt;David Ward</title>
<path fill="none" stroke="black" d="M1737.39,-1683.46C1753.32,-1733.26 1797.46,-1871.21 1816.45,-1930.59"/>
<polygon fill="black" stroke="black" points="1813.21,-1931.95 1819.59,-1940.41 1819.88,-1929.81 1813.21,-1931.95"/>
</g>
<!-- Previous coworkers&#45;&gt;Liza -->
<g id="edge64" class="edge">
<title>Previous coworkers&#45;&gt;Liza</title>
<path fill="none" stroke="black" d="M1945.59,-1239.25C1925.91,-1194.01 1875.02,-1076.97 1851.86,-1023.7"/>
<polygon fill="black" stroke="black" points="1854.94,-1022.01 1847.74,-1014.24 1848.52,-1024.8 1854.94,-1022.01"/>
</g>
<!-- Previous coworkers&#45;&gt;Pat -->
<g id="edge65" class="edge">
<title>Previous coworkers&#45;&gt;Pat</title>
<path fill="none" stroke="black" d="M1926.48,-1275.08C1877.33,-1306.78 1773.95,-1373.45 1724.03,-1405.64"/>
<polygon fill="black" stroke="black" points="1721.86,-1402.88 1715.36,-1411.24 1725.66,-1408.76 1721.86,-1402.88"/>
</g>
<!-- Previous coworkers&#45;&gt;Kyle -->
<g id="edge61" class="edge">
<title>Previous coworkers&#45;&gt;Kyle</title>
<path fill="none" stroke="black" d="M1904,-1241.7C1879.08,-1233.7 1849.41,-1224.17 1826.56,-1216.84"/>
<polygon fill="black" stroke="black" points="1827.49,-1213.46 1816.9,-1213.74 1825.35,-1220.13 1827.49,-1213.46"/>
</g>
<!-- Previous coworkers&#45;&gt;Wade -->
<g id="edge59" class="edge">
<title>Previous coworkers&#45;&gt;Wade</title>
<path fill="none" stroke="black" d="M2028.07,-1269.96C2089.67,-1280.18 2175.13,-1294.35 2226.64,-1302.89"/>
<polygon fill="black" stroke="black" points="2226.34,-1306.39 2236.78,-1304.57 2227.49,-1299.49 2226.34,-1306.39"/>
</g>
<!-- Previous coworkers&#45;&gt;Corey -->
<g id="edge58" class="edge">
<title>Previous coworkers&#45;&gt;Corey</title>
<path fill="none" stroke="black" d="M1960.7,-1275.62C1979.31,-1322.57 2029.36,-1448.91 2051.53,-1504.87"/>
<polygon fill="black" stroke="black" points="2048.4,-1506.46 2055.33,-1514.47 2054.9,-1503.88 2048.4,-1506.46"/>
</g>
<!-- Previous coworkers&#45;&gt;Steven -->
<g id="edge56" class="edge">
<title>Previous coworkers&#45;&gt;Steven</title>
<path fill="none" stroke="black" d="M1973.39,-1239.8C2017.82,-1199.89 2125.32,-1103.34 2175,-1058.71"/>
<polygon fill="black" stroke="black" points="2177.64,-1061.05 2182.74,-1051.76 2172.96,-1055.84 2177.64,-1061.05"/>
</g>
<!-- Previous coworkers&#45;&gt;Jef -->
<g id="edge57" class="edge">
<title>Previous coworkers&#45;&gt;Jef</title>
<path fill="none" stroke="black" d="M1977.02,-1275.43C2026.32,-1312.91 2140.39,-1399.62 2191.84,-1438.73"/>
<polygon fill="black" stroke="black" points="2189.75,-1441.54 2199.83,-1444.81 2193.99,-1435.97 2189.75,-1441.54"/>
</g>
<!-- Previous coworkers&#45;&gt;Mike Stabnow -->
<g id="edge60" class="edge">
<title>Previous coworkers&#45;&gt;Mike Stabnow</title>
<path fill="none" stroke="black" d="M2018.37,-1243.64C2054.48,-1235.86 2099.37,-1226.19 2135.8,-1218.34"/>
<polygon fill="black" stroke="black" points="2136.81,-1221.71 2145.84,-1216.18 2135.33,-1214.86 2136.81,-1221.71"/>
</g>
<!-- Previous coworkers&#45;&gt;Michael Scheetz -->
<g id="edge63" class="edge">
<title>Previous coworkers&#45;&gt;Michael Scheetz</title>
<path fill="none" stroke="black" d="M1973.39,-1275.3C2004.87,-1303.39 2066.35,-1358.25 2102,-1390.07"/>
<polygon fill="black" stroke="black" points="2099.83,-1392.83 2109.62,-1396.87 2104.49,-1387.6 2099.83,-1392.83"/>
</g>
<!-- Previous coworkers&#45;&gt;Don -->
<g id="edge62" class="edge">
<title>Previous coworkers&#45;&gt;Don</title>
<path fill="none" stroke="black" d="M1994,-1240.99C2058.51,-1214.47 2183.6,-1163.05 2243.87,-1138.27"/>
<polygon fill="black" stroke="black" points="2245.4,-1141.43 2253.32,-1134.39 2242.74,-1134.95 2245.4,-1141.43"/>
</g>
<!-- Ex&#45;Friends&#45;&gt;Marsha -->
<g id="edge52" class="edge">
<title>Ex&#45;Friends&#45;&gt;Marsha</title>
<path fill="none" stroke="black" d="M1540.13,-594.74C1524.18,-539.25 1475.88,-371.23 1456.62,-304.21"/>
<polygon fill="black" stroke="black" points="1459.91,-302.99 1453.78,-294.35 1453.18,-304.93 1459.91,-302.99"/>
</g>
<!-- Ex&#45;Friends&#45;&gt;Nels -->
<g id="edge51" class="edge">
<title>Ex&#45;Friends&#45;&gt;Nels</title>
<path fill="none" stroke="black" d="M1576.9,-597.23C1641.97,-565.05 1790.51,-491.58 1857.19,-458.6"/>
<polygon fill="black" stroke="black" points="1859,-461.61 1866.42,-454.04 1855.9,-455.34 1859,-461.61"/>
</g>
<!-- Ex&#45;Friends&#45;&gt;Ben Cameron -->
<g id="edge49" class="edge">
<title>Ex&#45;Friends&#45;&gt;Ben Cameron</title>
<path fill="none" stroke="black" d="M1543.62,-594.6C1540.09,-557.28 1532.03,-471.93 1527.82,-427.33"/>
<polygon fill="black" stroke="black" points="1531.28,-426.8 1526.86,-417.18 1524.31,-427.46 1531.28,-426.8"/>
</g>
<!-- Ex&#45;Friends&#45;&gt;Dave Kapp -->
<g id="edge53" class="edge">
<title>Ex&#45;Friends&#45;&gt;Dave Kapp</title>
<path fill="none" stroke="black" d="M1549.82,-594.72C1563.58,-539.19 1605.23,-371.05 1621.84,-303.97"/>
<polygon fill="black" stroke="black" points="1625.28,-304.65 1624.29,-294.1 1618.48,-302.97 1625.28,-304.65"/>
</g>
<!-- Ex&#45;Friends&#45;&gt;Ben Wayne -->
<g id="edge48" class="edge">
<title>Ex&#45;Friends&#45;&gt;Ben Wayne</title>
<path fill="none" stroke="black" d="M1586.52,-626.21C1633.06,-641.33 1708.9,-665.97 1759.31,-682.35"/>
<polygon fill="black" stroke="black" points="1758.44,-685.74 1769.03,-685.5 1760.6,-679.09 1758.44,-685.74"/>
</g>
<!-- Ex&#45;Friends&#45;&gt;James -->
<g id="edge50" class="edge">
<title>Ex&#45;Friends&#45;&gt;James</title>
<path fill="none" stroke="black" d="M1529.66,-595.43C1491.37,-552.93 1393.04,-443.77 1349.1,-395"/>
<polygon fill="black" stroke="black" points="1351.59,-392.52 1342.29,-387.44 1346.38,-397.21 1351.59,-392.52"/>
</g>
<!-- Ex&#45;Friends&#45;&gt;Michael Vincent -->
<g id="edge47" class="edge">
<title>Ex&#45;Friends&#45;&gt;Michael Vincent</title>
<path fill="none" stroke="black" d="M1579.94,-597.9C1621.56,-579.94 1691.6,-549.71 1738.08,-529.65"/>
<polygon fill="black" stroke="black" points="1739.54,-532.83 1747.34,-525.65 1736.77,-526.4 1739.54,-532.83"/>
</g>
<!-- Ex&#45;Friends&#45;&gt;Matt Bishop -->
<g id="edge54" class="edge">
<title>Ex&#45;Friends&#45;&gt;Matt Bishop</title>
<path fill="none" stroke="black" d="M1559.08,-595.12C1595.83,-547.73 1696.51,-417.88 1739.68,-362.22"/>
<polygon fill="black" stroke="black" points="1742.49,-364.3 1745.85,-354.25 1736.96,-360.01 1742.49,-364.3"/>
</g>
<!-- Ex&#45;Lovers&#45;&gt;Mary -->
<g id="edge8" class="edge">
<title>Ex&#45;Lovers&#45;&gt;Mary</title>
<path fill="none" stroke="black" d="M1527.36,-844.42C1568.36,-805.8 1667.45,-712.47 1713.52,-669.07"/>
<polygon fill="black" stroke="black" points="1716.08,-671.47 1720.96,-662.06 1711.28,-666.37 1716.08,-671.47"/>
</g>
<!-- Ex&#45;Lovers&#45;&gt;Audrey -->
<g id="edge9" class="edge">
<title>Ex&#45;Lovers&#45;&gt;Audrey</title>
<path fill="none" stroke="black" d="M1506.87,-843.53C1500.68,-791.27 1482.79,-640.29 1475.32,-577.19"/>
<polygon fill="black" stroke="black" points="1478.78,-576.67 1474.13,-567.15 1471.83,-577.49 1478.78,-576.67"/>
</g>
<!-- Ex&#45;Lovers&#45;&gt;Bonnie -->
<g id="edge10" class="edge">
<title>Ex&#45;Lovers&#45;&gt;Bonnie</title>
<path fill="none" stroke="black" d="M1452.42,-861.79C1404.88,-861.87 1337.43,-861.99 1290.82,-862.07"/>
<polygon fill="black" stroke="black" points="1290.61,-858.57 1280.62,-862.09 1290.62,-865.57 1290.61,-858.57"/>
</g>
<!-- Ex&#45;Lovers&#45;&gt;Liza -->
<g id="edge11" class="edge">
<title>Ex&#45;Lovers&#45;&gt;Liza</title>
<path fill="none" stroke="black" d="M1544.13,-876C1607.95,-902.01 1742.19,-956.71 1805.56,-982.53"/>
<polygon fill="black" stroke="black" points="1804.52,-985.88 1815.1,-986.42 1807.16,-979.4 1804.52,-985.88"/>
</g>
<!-- Ex&#45;Lovers&#45;&gt;Dev -->
<g id="edge12" class="edge">
<title>Ex&#45;Lovers&#45;&gt;Dev</title>
<path fill="none" stroke="black" d="M1494.46,-844.01C1456.63,-798.04 1355.14,-674.74 1312.06,-622.4"/>
<polygon fill="black" stroke="black" points="1314.73,-620.13 1305.67,-614.64 1309.32,-624.58 1314.73,-620.13"/>
</g>
<!-- Immediate family&#45;&gt;Amy -->
<g id="edge17" class="edge">
<title>Immediate family&#45;&gt;Amy</title>
<path fill="none" stroke="black" d="M866.96,-581.59C828.04,-534.36 722.3,-406.03 677.75,-351.97"/>
<polygon fill="black" stroke="black" points="680.21,-349.44 671.15,-343.95 674.81,-353.89 680.21,-349.44"/>
</g>
<!-- Immediate family&#45;&gt;Linda -->
<g id="edge19" class="edge">
<title>Immediate family&#45;&gt;Linda</title>
<path fill="none" stroke="black" d="M875.21,-581.39C859.69,-537.97 820.21,-427.49 801.75,-375.84"/>
<polygon fill="black" stroke="black" points="805.01,-374.57 798.35,-366.33 798.42,-376.93 805.01,-374.57"/>
</g>
<!-- Immediate family&#45;&gt;Bob -->
<g id="edge18" class="edge">
<title>Immediate family&#45;&gt;Bob</title>
<path fill="none" stroke="black" d="M883.84,-580.97C890.53,-524.24 910.8,-352.19 918.82,-284.14"/>
<polygon fill="black" stroke="black" points="922.3,-284.49 919.99,-274.15 915.35,-283.67 922.3,-284.49"/>
</g>
<!-- Mom&#39;s side&#45;&gt;Nancy -->
<g id="edge22" class="edge">
<title>Mom&#39;s side&#45;&gt;Nancy</title>
<path fill="none" stroke="black" d="M670.14,-835.08C650.54,-791.66 600.62,-681.05 577.42,-629.64"/>
<polygon fill="black" stroke="black" points="580.58,-628.15 573.28,-620.48 574.2,-631.03 580.58,-628.15"/>
</g>
<!-- Mom&#39;s side&#45;&gt;Karl -->
<g id="edge24" class="edge">
<title>Mom&#39;s side&#45;&gt;Karl</title>
<path fill="none" stroke="black" d="M648.63,-869.11C591.17,-900.15 465.12,-968.25 406.29,-1000.04"/>
<polygon fill="black" stroke="black" points="404.59,-996.98 397.45,-1004.82 407.91,-1003.14 404.59,-996.98"/>
</g>
<!-- Mom&#39;s side&#45;&gt;Kevin -->
<g id="edge23" class="edge">
<title>Mom&#39;s side&#45;&gt;Kevin</title>
<path fill="none" stroke="black" d="M614.72,-851.35C574.75,-850.25 524.08,-848.87 487.81,-847.87"/>
<polygon fill="black" stroke="black" points="487.61,-844.36 477.52,-847.59 487.42,-851.36 487.61,-844.36"/>
</g>
<!-- Gary and Judy -->
<g id="node60" class="node">
<title>Gary and Judy</title>
<ellipse fill="none" stroke="black" cx="376.78" cy="-660.6" rx="76.89" ry="18"/>
<text text-anchor="middle" x="376.78" y="-656.9" font-family="Times,serif" font-size="14.00">Gary and Judy</text>
</g>
<!-- Mom&#39;s side&#45;&gt;Gary and Judy -->
<g id="edge16" class="edge">
<title>Mom&#39;s side&#45;&gt;Gary and Judy</title>
<path fill="none" stroke="black" d="M652.3,-836.51C598.26,-802.01 473.61,-722.42 412.23,-683.24"/>
<polygon fill="black" stroke="black" points="413.96,-680.19 403.65,-677.76 410.19,-686.09 413.96,-680.19"/>
</g>
<!-- Dad&#39;s side&#45;&gt;Judy Besen -->
<g id="edge29" class="edge">
<title>Dad&#39;s side&#45;&gt;Judy Besen</title>
<path fill="none" stroke="black" d="M689.33,-1196.91C648.03,-1187.88 588.22,-1174.79 543.82,-1165.08"/>
<polygon fill="black" stroke="black" points="544.54,-1161.65 534.02,-1162.93 543.04,-1168.49 544.54,-1161.65"/>
</g>
<!-- Dad&#39;s side&#45;&gt;Andy -->
<g id="edge28" class="edge">
<title>Dad&#39;s side&#45;&gt;Andy</title>
<path fill="none" stroke="black" d="M696.51,-1220.35C631.1,-1241.17 503.44,-1281.8 438.96,-1302.33"/>
<polygon fill="black" stroke="black" points="437.64,-1299.07 429.17,-1305.44 439.76,-1305.74 437.64,-1299.07"/>
</g>
<!-- Dad&#39;s side&#45;&gt;Adam -->
<g id="edge25" class="edge">
<title>Dad&#39;s side&#45;&gt;Adam</title>
<path fill="none" stroke="black" d="M734.39,-1225.59C726.06,-1279.06 701.61,-1435.97 691.55,-1500.52"/>
<polygon fill="black" stroke="black" points="688.04,-1500.34 689.96,-1510.76 694.96,-1501.42 688.04,-1500.34"/>
</g>
<!-- Dad&#39;s side&#45;&gt;Matt -->
<g id="edge26" class="edge">
<title>Dad&#39;s side&#45;&gt;Matt</title>
<path fill="none" stroke="black" d="M717.27,-1224.53C681.96,-1254.86 608.54,-1317.91 569.53,-1351.41"/>
<polygon fill="black" stroke="black" points="567.06,-1348.92 561.75,-1358.09 571.62,-1354.23 567.06,-1348.92"/>
</g>
<!-- Dad&#39;s side&#45;&gt;Peter -->
<g id="edge27" class="edge">
<title>Dad&#39;s side&#45;&gt;Peter</title>
<path fill="none" stroke="black" d="M727.05,-1225.27C697.58,-1277.04 612.07,-1427.26 577.13,-1488.65"/>
<polygon fill="black" stroke="black" points="573.87,-1487.29 571.97,-1497.71 579.96,-1490.75 573.87,-1487.29"/>
</g>
<!-- Gary and Judy&#45;&gt;Judy Glades -->
<g id="edge21" class="edge">
<title>Gary and Judy&#45;&gt;Judy Glades</title>
<path fill="none" stroke="black" d="M303.44,-666.03C253.85,-669.7 188.63,-674.53 139.04,-678.2"/>
<polygon fill="black" stroke="black" points="138.73,-674.72 129.02,-678.95 139.25,-681.7 138.73,-674.72"/>
</g>
<!-- Gary and Judy&#45;&gt;Gary -->
<g id="edge20" class="edge">
<title>Gary and Judy&#45;&gt;Gary</title>
<path fill="none" stroke="black" d="M363.68,-642.72C331.74,-599.12 249.81,-487.27 213.02,-437.04"/>
<polygon fill="black" stroke="black" points="215.63,-434.68 206.9,-428.69 209.98,-438.82 215.63,-434.68"/>
</g>
<!-- IRC&#45;&gt;Alex -->
<g id="edge41" class="edge">
<title>IRC&#45;&gt;Alex</title>
<path fill="none" stroke="black" d="M1413.92,-1572.92C1383.93,-1541.89 1315.9,-1471.49 1280.62,-1434.98"/>
<polygon fill="black" stroke="black" points="1283.08,-1432.49 1273.61,-1427.73 1278.04,-1437.35 1283.08,-1432.49"/>
</g>
<!-- IRC&#45;&gt;Mike -->
<g id="edge40" class="edge">
<title>IRC&#45;&gt;Mike</title>
<path fill="none" stroke="black" d="M1432.74,-1606.22C1443.34,-1653.8 1472.19,-1783.32 1484.98,-1840.71"/>
<polygon fill="black" stroke="black" points="1481.59,-1841.56 1487.18,-1850.56 1488.42,-1840.03 1481.59,-1841.56"/>
</g>
<!-- IRC&#45;&gt;Andy Jenkins -->
<g id="edge44" class="edge">
<title>IRC&#45;&gt;Andy Jenkins</title>
<path fill="none" stroke="black" d="M1403.35,-1580.63C1373.53,-1571.69 1323.19,-1556.58 1284.12,-1544.86"/>
<polygon fill="black" stroke="black" points="1285.04,-1541.48 1274.45,-1541.96 1283.02,-1548.19 1285.04,-1541.48"/>
</g>
<!-- IRC&#45;&gt;Pat -->
<g id="edge43" class="edge">
<title>IRC&#45;&gt;Pat</title>
<path fill="none" stroke="black" d="M1449.25,-1575.62C1496.49,-1546.54 1613.02,-1474.81 1667.25,-1441.42"/>
<polygon fill="black" stroke="black" points="1669.33,-1444.25 1676.01,-1436.03 1665.66,-1438.29 1669.33,-1444.25"/>
</g>
<!-- IRC&#45;&gt;Joe -->
<g id="edge42" class="edge">
<title>IRC&#45;&gt;Joe</title>
<path fill="none" stroke="black" d="M1434.8,-1570.4C1441.1,-1551.87 1451.03,-1522.65 1458.31,-1501.23"/>
<polygon fill="black" stroke="black" points="1461.64,-1502.31 1461.54,-1491.72 1455.01,-1500.06 1461.64,-1502.31"/>
</g>
<!-- Nathan -->
<g id="node62" class="node">
<title>Nathan</title>
<ellipse fill="none" stroke="black" cx="1322.31" cy="-1884.36" rx="44.69" ry="18"/>
<text text-anchor="middle" x="1322.31" y="-1880.66" font-family="Times,serif" font-size="14.00">Nathan</text>
</g>
<!-- IRC&#45;&gt;Nathan -->
<g id="edge45" class="edge">
<title>IRC&#45;&gt;Nathan</title>
<path fill="none" stroke="black" d="M1422.39,-1605.89C1404.54,-1655.56 1353.75,-1796.88 1332.18,-1856.88"/>
<polygon fill="black" stroke="black" points="1328.83,-1855.85 1328.75,-1866.44 1335.42,-1858.22 1328.83,-1855.85"/>
</g>
<!-- Gurov -->
<g id="node63" class="node">
<title>Gurov</title>
<ellipse fill="none" stroke="black" cx="1186.2" cy="-1823.6" rx="38.99" ry="18"/>
<text text-anchor="middle" x="1186.2" y="-1819.9" font-family="Times,serif" font-size="14.00">Gurov</text>
</g>
<!-- IRC&#45;&gt;Gurov -->
<g id="edge46" class="edge">
<title>IRC&#45;&gt;Gurov</title>
<path fill="none" stroke="black" d="M1413.19,-1603.33C1372.11,-1643.2 1260.37,-1751.63 1210.64,-1799.89"/>
<polygon fill="black" stroke="black" points="1207.95,-1797.62 1203.21,-1807.1 1212.82,-1802.65 1207.95,-1797.62"/>
</g>
<!-- Junior Rangers -->
<g id="node64" class="node">
<title>Junior Rangers</title>
<polygon fill="none" stroke="black" points="1669.59,-983.09 1546.59,-983.09 1546.59,-947.09 1669.59,-947.09 1669.59,-983.09"/>
<text text-anchor="middle" x="1608.09" y="-961.39" font-family="Times,serif" font-size="14.00">Junior Rangers</text>
</g>
<!-- Junior Rangers&#45;&gt;Me -->
<g id="edge71" class="edge">
<title>Junior Rangers&#45;&gt;Me</title>
<path fill="none" stroke="black" d="M1546.33,-970.59C1506.53,-974.13 1455.97,-978.63 1421.52,-981.7"/>
<polygon fill="black" stroke="black" points="1421.03,-978.23 1411.38,-982.6 1421.65,-985.2 1421.03,-978.23"/>
</g>
<!-- Junior Rangers&#45;&gt;Liza -->
<g id="edge72" class="edge">
<title>Junior Rangers&#45;&gt;Liza</title>
<path fill="none" stroke="black" d="M1669.65,-973.45C1711.19,-979.09 1764.77,-986.37 1800.66,-991.24"/>
<polygon fill="black" stroke="black" points="1800.37,-994.73 1810.75,-992.61 1801.31,-987.8 1800.37,-994.73"/>
</g>
<!-- Junior Rangers&#45;&gt;Ben Wayne -->
<g id="edge73" class="edge">
<title>Junior Rangers&#45;&gt;Ben Wayne</title>
<path fill="none" stroke="black" d="M1622.02,-946.81C1657.33,-900.45 1750.43,-778.23 1791.18,-724.74"/>
<polygon fill="black" stroke="black" points="1793.98,-726.84 1797.25,-716.77 1788.41,-722.6 1793.98,-726.84"/>
</g>
<!-- High School -->
<g id="node65" class="node">
<title>High School</title>
<polygon fill="none" stroke="black" points="1566.22,-766.37 1463.22,-766.37 1463.22,-730.37 1566.22,-730.37 1566.22,-766.37"/>
<text text-anchor="middle" x="1514.72" y="-744.67" font-family="Times,serif" font-size="14.00">High School</text>
</g>
<!-- High School&#45;&gt;Me -->
<g id="edge74" class="edge">
<title>High School&#45;&gt;Me</title>
<path fill="none" stroke="black" d="M1504.53,-766.56C1482.49,-805.92 1430.04,-899.55 1401.46,-950.59"/>
<polygon fill="black" stroke="black" points="1398.24,-949.16 1396.41,-959.6 1404.35,-952.58 1398.24,-949.16"/>
</g>
<!-- High School&#45;&gt;Mary -->
<g id="edge76" class="edge">
<title>High School&#45;&gt;Mary</title>
<path fill="none" stroke="black" d="M1554.09,-730.33C1596.02,-711.13 1661.78,-681.01 1702.2,-662.5"/>
<polygon fill="black" stroke="black" points="1703.78,-665.62 1711.41,-658.28 1700.86,-659.26 1703.78,-665.62"/>
</g>
<!-- High School&#45;&gt;Audrey -->
<g id="edge75" class="edge">
<title>High School&#45;&gt;Audrey</title>
<path fill="none" stroke="black" d="M1510.85,-730.32C1503.38,-695.48 1486.93,-618.73 1478.01,-577.11"/>
<polygon fill="black" stroke="black" points="1481.38,-576.13 1475.86,-567.09 1474.54,-577.6 1481.38,-576.13"/>
</g>
<!-- High School&#45;&gt;Ben Cameron -->
<g id="edge79" class="edge">
<title>High School&#45;&gt;Ben Cameron</title>
<path fill="none" stroke="black" d="M1515.27,-730.08C1516.98,-672.77 1522.24,-496.42 1524.3,-427.25"/>
<polygon fill="black" stroke="black" points="1527.8,-427.2 1524.6,-417.1 1520.8,-426.99 1527.8,-427.2"/>
</g>
<!-- High School&#45;&gt;Ben Wayne -->
<g id="edge78" class="edge">
<title>High School&#45;&gt;Ben Wayne</title>
<path fill="none" stroke="black" d="M1566.29,-739.78C1616.32,-731.44 1692.39,-718.77 1746.37,-709.78"/>
<polygon fill="black" stroke="black" points="1747.23,-713.18 1756.52,-708.09 1746.08,-706.28 1747.23,-713.18"/>
</g>
<!-- High School&#45;&gt;Michael Vincent -->
<g id="edge77" class="edge">
<title>High School&#45;&gt;Michael Vincent</title>
<path fill="none" stroke="black" d="M1535.49,-730.01C1583.69,-687.4 1703.19,-581.76 1757.48,-533.77"/>
<polygon fill="black" stroke="black" points="1759.82,-536.37 1765,-527.12 1755.19,-531.12 1759.82,-536.37"/>
</g>
<!-- College -->
<g id="node66" class="node">
<title>College</title>
<polygon fill="none" stroke="black" points="1276.59,-1143.35 1206.59,-1143.35 1206.59,-1107.35 1276.59,-1107.35 1276.59,-1143.35"/>
<text text-anchor="middle" x="1241.59" y="-1121.65" font-family="Times,serif" font-size="14.00">College</text>
</g>
<!-- College&#45;&gt;Me -->
<g id="edge80" class="edge">
<title>College&#45;&gt;Me</title>
<path fill="none" stroke="black" d="M1259.67,-1107.31C1283.48,-1083.56 1325.6,-1041.54 1353.68,-1013.53"/>
<polygon fill="black" stroke="black" points="1356.24,-1015.92 1360.85,-1006.38 1351.3,-1010.96 1356.24,-1015.92"/>
</g>
<!-- College&#45;&gt;Bonnie -->
<g id="edge81" class="edge">
<title>College&#45;&gt;Bonnie</title>
<path fill="none" stroke="black" d="M1241.31,-1107.26C1240.6,-1062.28 1238.76,-945.1 1237.91,-890.69"/>
<polygon fill="black" stroke="black" points="1241.41,-890.33 1237.75,-880.38 1234.41,-890.44 1241.41,-890.33"/>
</g>
<!-- College&#45;&gt;Alex -->
<g id="edge82" class="edge">
<title>College&#45;&gt;Alex</title>
<path fill="none" stroke="black" d="M1242.67,-1143.72C1245.54,-1192.47 1253.36,-1325.37 1256.81,-1383.83"/>
<polygon fill="black" stroke="black" points="1253.31,-1384.07 1257.39,-1393.84 1260.3,-1383.65 1253.31,-1384.07"/>
</g>
<!-- Grad school -->
<g id="node67" class="node">
<title>Grad school</title>
<polygon fill="none" stroke="black" points="1235.74,-1040.91 1134.74,-1040.91 1134.74,-1004.91 1235.74,-1004.91 1235.74,-1040.91"/>
<text text-anchor="middle" x="1185.24" y="-1019.21" font-family="Times,serif" font-size="14.00">Grad school</text>
</g>
<!-- Grad school&#45;&gt;Me -->
<g id="edge83" class="edge">
<title>Grad school&#45;&gt;Me</title>
<path fill="none" stroke="black" d="M1235.93,-1013.2C1269.39,-1006.79 1312.57,-998.52 1343.29,-992.64"/>
<polygon fill="black" stroke="black" points="1344.04,-996.06 1353.2,-990.74 1342.72,-989.18 1344.04,-996.06"/>
</g>
<!-- Grad school&#45;&gt;Cole -->
<g id="edge84" class="edge">
<title>Grad school&#45;&gt;Cole</title>
<path fill="none" stroke="black" d="M1183.57,-1040.93C1179.17,-1088.55 1167.2,-1217.98 1161.86,-1275.72"/>
<polygon fill="black" stroke="black" points="1158.35,-1275.67 1160.92,-1285.95 1165.32,-1276.31 1158.35,-1275.67"/>
</g>
</g>
</svg>
