<?xml version="1.0" encoding="UTF-8" standalone="no"?>
<!DOCTYPE svg PUBLIC "-//W3C//DTD SVG 1.1//EN"
 "http://www.w3.org/Graphics/SVG/1.1/DTD/svg11.dtd">
<!-- Generated by graphviz version 2.43.0 (0)
 -->
<!-- Title: G Pages: 1 -->
<svg width="2650pt" height="2039pt"
 viewBox="0.00 0.00 2649.66 2039.24" xmlns="http://www.w3.org/2000/svg" xmlns:xlink="http://www.w3.org/1999/xlink">
<g id="graph0" class="graph" transform="scale(1 1) rotate(0) translate(4 2035.24)">
<title>G</title>
<polygon fill="white" stroke="transparent" points="-4,4 -4,-2035.24 2645.66,-2035.24 2645.66,4 -4,4"/>
<!-- Me -->
<g id="node1" class="node">
<title>Me</title>
<ellipse fill="none" stroke="black" stroke-width="2" cx="1551.5" cy="-908.43" rx="25.22" ry="25.22"/>
<ellipse fill="none" stroke="black" stroke-width="2" cx="1551.5" cy="-908.43" rx="29.2" ry="29.2"/>
<text text-anchor="middle" x="1551.5" y="-904.73" font-family="Times,serif" font-size="14.00">Me</text>
</g>
<!-- Friends -->
<g id="node50" class="node">
<title>Friends</title>
<ellipse fill="none" stroke="black" cx="1682.52" cy="-1183.23" rx="46.29" ry="18"/>
<text text-anchor="middle" x="1682.52" y="-1179.53" font-family="Times,serif" font-size="14.00">Friends</text>
</g>
<!-- Me&#45;&gt;Friends -->
<g id="edge1" class="edge">
<title>Me&#45;&gt;Friends</title>
<path fill="none" stroke="black" d="M1564.19,-935.03C1589.15,-987.4 1644.44,-1103.36 1669.6,-1156.13"/>
<polygon fill="black" stroke="black" points="1666.47,-1157.7 1673.93,-1165.22 1672.79,-1154.69 1666.47,-1157.7"/>
</g>
<!-- Family -->
<g id="node51" class="node">
<title>Family</title>
<ellipse fill="none" stroke="black" cx="1109.93" cy="-976.47" rx="42.49" ry="18"/>
<text text-anchor="middle" x="1109.93" y="-972.77" font-family="Times,serif" font-size="14.00">Family</text>
</g>
<!-- Me&#45;&gt;Family -->
<g id="edge2" class="edge">
<title>Me&#45;&gt;Family</title>
<path fill="none" stroke="black" d="M1522.19,-912.95C1448.02,-924.37 1252.23,-954.54 1159.71,-968.8"/>
<polygon fill="black" stroke="black" points="1159.1,-965.35 1149.75,-970.33 1160.17,-972.27 1159.1,-965.35"/>
</g>
<!-- Coworkers -->
<g id="node52" class="node">
<title>Coworkers</title>
<ellipse fill="none" stroke="black" cx="1862.59" cy="-1212.26" rx="60.39" ry="18"/>
<text text-anchor="middle" x="1862.59" y="-1208.56" font-family="Times,serif" font-size="14.00">Coworkers</text>
</g>
<!-- Me&#45;&gt;Coworkers -->
<g id="edge3" class="edge">
<title>Me&#45;&gt;Coworkers</title>
<path fill="none" stroke="black" d="M1572.89,-929.31C1628.46,-983.59 1777.27,-1128.92 1837.13,-1187.39"/>
<polygon fill="black" stroke="black" points="1835.04,-1190.24 1844.64,-1194.72 1839.93,-1185.23 1835.04,-1190.24"/>
</g>
<!-- Ex&#45;Friends -->
<g id="node55" class="node">
<title>Ex&#45;Friends</title>
<ellipse fill="none" stroke="black" cx="1501.83" cy="-513.16" rx="61.19" ry="18"/>
<text text-anchor="middle" x="1501.83" y="-509.46" font-family="Times,serif" font-size="14.00">Ex&#45;Friends</text>
</g>
<!-- Me&#45;&gt;Ex&#45;Friends -->
<g id="edge6" class="edge">
<title>Me&#45;&gt;Ex&#45;Friends</title>
<path fill="none" stroke="black" d="M1547.81,-879.04C1538.57,-805.53 1514.55,-614.35 1505.42,-541.72"/>
<polygon fill="black" stroke="black" points="1508.85,-540.99 1504.13,-531.51 1501.91,-541.87 1508.85,-540.99"/>
</g>
<!-- Ex&#45;Lovers -->
<g id="node56" class="node">
<title>Ex&#45;Lovers</title>
<ellipse fill="none" stroke="black" cx="1877.43" cy="-742.55" rx="56.59" ry="18"/>
<text text-anchor="middle" x="1877.43" y="-738.85" font-family="Times,serif" font-size="14.00">Ex&#45;Lovers</text>
</g>
<!-- Me&#45;&gt;Ex&#45;Lovers -->
<g id="edge7" class="edge">
<title>Me&#45;&gt;Ex&#45;Lovers</title>
<path fill="none" stroke="black" d="M1577.9,-894.99C1635.07,-865.9 1770.61,-796.92 1838,-762.62"/>
<polygon fill="black" stroke="black" points="1839.71,-765.68 1847.04,-758.02 1836.54,-759.44 1839.71,-765.68"/>
</g>
<!-- Mary -->
<g id="node2" class="node">
<title>Mary</title>
<ellipse fill="pink" stroke="black" cx="2033.66" cy="-498.04" rx="35.19" ry="18"/>
<text text-anchor="middle" x="2033.66" y="-494.34" font-family="Times,serif" font-size="14.00">Mary</text>
</g>
<!-- Audrey -->
<g id="node3" class="node">
<title>Audrey</title>
<ellipse fill="pink" stroke="black" cx="1987.62" cy="-393.67" rx="44.39" ry="18"/>
<text text-anchor="middle" x="1987.62" y="-389.97" font-family="Times,serif" font-size="14.00">Audrey</text>
</g>
<!-- Bonnie -->
<g id="node4" class="node">
<title>Bonnie</title>
<ellipse fill="pink" stroke="black" cx="1643.75" cy="-745.58" rx="42.79" ry="18"/>
<text text-anchor="middle" x="1643.75" y="-741.88" font-family="Times,serif" font-size="14.00">Bonnie</text>
</g>
<!-- Liza -->
<g id="node5" class="node">
<title>Liza</title>
<ellipse fill="pink" stroke="black" cx="2124.08" cy="-888.83" rx="29.8" ry="18"/>
<text text-anchor="middle" x="2124.08" y="-885.13" font-family="Times,serif" font-size="14.00">Liza</text>
</g>
<!-- Marsha -->
<g id="node6" class="node">
<title>Marsha</title>
<ellipse fill="pink" stroke="black" cx="1288.13" cy="-270.8" rx="46.29" ry="18"/>
<text text-anchor="middle" x="1288.13" y="-267.1" font-family="Times,serif" font-size="14.00">Marsha</text>
</g>
<!-- Amy -->
<g id="node7" class="node">
<title>Amy</title>
<ellipse fill="pink" stroke="black" cx="700.23" cy="-315.89" rx="31.4" ry="18"/>
<text text-anchor="middle" x="700.23" y="-312.19" font-family="Times,serif" font-size="14.00">Amy</text>
</g>
<!-- Sean -->
<g id="node43" class="node">
<title>Sean</title>
<ellipse fill="lightblue" stroke="black" cx="528.42" cy="-18" rx="33.6" ry="18"/>
<text text-anchor="middle" x="528.42" y="-14.3" font-family="Times,serif" font-size="14.00">Sean</text>
</g>
<!-- Amy&#45;&gt;Sean -->
<g id="edge32" class="edge">
<title>Amy&#45;&gt;Sean</title>
<path fill="none" stroke="black" d="M690.25,-298.59C661.43,-248.61 577.92,-103.83 543.51,-44.17"/>
<polygon fill="black" stroke="black" points="546.45,-42.27 538.43,-35.35 540.39,-45.76 546.45,-42.27"/>
</g>
<!-- Nancy -->
<g id="node8" class="node">
<title>Nancy</title>
<ellipse fill="pink" stroke="black" cx="582.19" cy="-739.33" rx="40.09" ry="18"/>
<text text-anchor="middle" x="582.19" y="-735.63" font-family="Times,serif" font-size="14.00">Nancy</text>
</g>
<!-- Linda -->
<g id="node9" class="node">
<title>Linda</title>
<ellipse fill="pink" stroke="black" cx="636.4" cy="-530.78" rx="36.29" ry="18"/>
<text text-anchor="middle" x="636.4" y="-527.08" font-family="Times,serif" font-size="14.00">Linda</text>
</g>
<!-- Judy Besen -->
<g id="node10" class="node">
<title>Judy Besen</title>
<ellipse fill="pink" stroke="black" cx="658.25" cy="-1347.92" rx="62.29" ry="18"/>
<text text-anchor="middle" x="658.25" y="-1344.22" font-family="Times,serif" font-size="14.00">Judy Besen</text>
</g>
<!-- Judy Glades -->
<g id="node11" class="node">
<title>Judy Glades</title>
<ellipse fill="pink" stroke="black" cx="65.64" cy="-951.02" rx="65.79" ry="18"/>
<text text-anchor="middle" x="65.64" y="-947.32" font-family="Times,serif" font-size="14.00">Judy Glades</text>
</g>
<!-- Dev -->
<g id="node12" class="node">
<title>Dev</title>
<ellipse fill="pink" stroke="black" cx="2196.09" cy="-499.38" rx="28.7" ry="18"/>
<text text-anchor="middle" x="2196.09" y="-495.68" font-family="Times,serif" font-size="14.00">Dev</text>
</g>
<!-- Nels -->
<g id="node13" class="node">
<title>Nels</title>
<ellipse fill="lightblue" stroke="black" cx="1739.5" cy="-137.63" rx="31.7" ry="18"/>
<text text-anchor="middle" x="1739.5" y="-133.93" font-family="Times,serif" font-size="14.00">Nels</text>
</g>
<!-- Alex -->
<g id="node14" class="node">
<title>Alex</title>
<ellipse fill="lightblue" stroke="black" cx="1510.51" cy="-1356.14" rx="30.59" ry="18"/>
<text text-anchor="middle" x="1510.51" y="-1352.44" font-family="Times,serif" font-size="14.00">Alex</text>
</g>
<!-- Mike -->
<g id="node15" class="node">
<title>Mike</title>
<ellipse fill="lightblue" stroke="black" cx="1643.45" cy="-1852.34" rx="33.6" ry="18"/>
<text text-anchor="middle" x="1643.45" y="-1848.64" font-family="Times,serif" font-size="14.00">Mike</text>
</g>
<!-- Ben Cameron -->
<g id="node16" class="node">
<title>Ben Cameron</title>
<ellipse fill="lightblue" stroke="black" cx="1751.46" cy="-280.42" rx="73.39" ry="18"/>
<text text-anchor="middle" x="1751.46" y="-276.72" font-family="Times,serif" font-size="14.00">Ben Cameron</text>
</g>
<!-- Dave Kapp -->
<g id="node17" class="node">
<title>Dave Kapp</title>
<ellipse fill="lightblue" stroke="black" cx="1389.82" cy="-173.34" rx="61.19" ry="18"/>
<text text-anchor="middle" x="1389.82" y="-169.64" font-family="Times,serif" font-size="14.00">Dave Kapp</text>
</g>
<!-- Ben Wayne -->
<g id="node18" class="node">
<title>Ben Wayne</title>
<ellipse fill="lightblue" stroke="black" cx="1772.71" cy="-468.08" rx="62.29" ry="18"/>
<text text-anchor="middle" x="1772.71" y="-464.38" font-family="Times,serif" font-size="14.00">Ben Wayne</text>
</g>
<!-- James -->
<g id="node19" class="node">
<title>James</title>
<ellipse fill="lightblue" stroke="black" cx="1242.6" cy="-410.62" rx="38.19" ry="18"/>
<text text-anchor="middle" x="1242.6" y="-406.92" font-family="Times,serif" font-size="14.00">James</text>
</g>
<!-- Andy -->
<g id="node20" class="node">
<title>Andy</title>
<ellipse fill="lightblue" stroke="black" cx="587.3" cy="-1513.97" rx="34.39" ry="18"/>
<text text-anchor="middle" x="587.3" y="-1510.27" font-family="Times,serif" font-size="14.00">Andy</text>
</g>
<!-- Andy Jenkins -->
<g id="node21" class="node">
<title>Andy Jenkins</title>
<ellipse fill="lightblue" stroke="black" cx="1500.52" cy="-1523.54" rx="70.69" ry="18"/>
<text text-anchor="middle" x="1500.52" y="-1519.84" font-family="Times,serif" font-size="14.00">Andy Jenkins</text>
</g>
<!-- Cole -->
<g id="node22" class="node">
<title>Cole</title>
<ellipse fill="lightblue" stroke="black" cx="1387.72" cy="-1272.22" rx="31.4" ry="18"/>
<text text-anchor="middle" x="1387.72" y="-1268.52" font-family="Times,serif" font-size="14.00">Cole</text>
</g>
<!-- Pat -->
<g id="node23" class="node">
<title>Pat</title>
<ellipse fill="lightblue" stroke="black" cx="1997.39" cy="-1325.53" rx="27" ry="18"/>
<text text-anchor="middle" x="1997.39" y="-1321.83" font-family="Times,serif" font-size="14.00">Pat</text>
</g>
<!-- Joe -->
<g id="node24" class="node">
<title>Joe</title>
<ellipse fill="lightblue" stroke="black" cx="1822.76" cy="-1444.29" rx="27" ry="18"/>
<text text-anchor="middle" x="1822.76" y="-1440.59" font-family="Times,serif" font-size="14.00">Joe</text>
</g>
<!-- Michael Vincent -->
<g id="node25" class="node">
<title>Michael Vincent</title>
<ellipse fill="lightblue" stroke="black" cx="1584.87" cy="-298.41" rx="85.29" ry="18"/>
<text text-anchor="middle" x="1584.87" y="-294.71" font-family="Times,serif" font-size="14.00">Michael Vincent</text>
</g>
<!-- Kyle -->
<g id="node26" class="node">
<title>Kyle</title>
<ellipse fill="lightblue" stroke="black" cx="2062.24" cy="-1080.94" rx="30.59" ry="18"/>
<text text-anchor="middle" x="2062.24" y="-1077.24" font-family="Times,serif" font-size="14.00">Kyle</text>
</g>
<!-- Mike (forevern00b) -->
<g id="node30" class="node">
<title>Mike (forevern00b)</title>
<ellipse fill="lightblue" stroke="black" cx="2394.21" cy="-762.39" rx="100.98" ry="18"/>
<text text-anchor="middle" x="2394.21" y="-758.69" font-family="Times,serif" font-size="14.00">Mike (forevern00b)</text>
</g>
<!-- Kyle&#45;&gt;Mike (forevern00b) -->
<g id="edge53" class="edge">
<title>Kyle&#45;&gt;Mike (forevern00b)</title>
<path fill="none" stroke="black" d="M2078.25,-1065.58C2131.4,-1014.58 2302.29,-850.6 2368.06,-787.48"/>
<polygon fill="black" stroke="black" points="2370.76,-789.74 2375.55,-780.29 2365.91,-784.69 2370.76,-789.74"/>
</g>
<!-- Wade -->
<g id="node27" class="node">
<title>Wade</title>
<ellipse fill="lightblue" stroke="black" cx="2541.55" cy="-1341.67" rx="36.29" ry="18"/>
<text text-anchor="middle" x="2541.55" y="-1337.97" font-family="Times,serif" font-size="14.00">Wade</text>
</g>
<!-- Corey -->
<g id="node28" class="node">
<title>Corey</title>
<ellipse fill="lightblue" stroke="black" cx="2347.07" cy="-1477.05" rx="38.19" ry="18"/>
<text text-anchor="middle" x="2347.07" y="-1473.35" font-family="Times,serif" font-size="14.00">Corey</text>
</g>
<!-- Steven -->
<g id="node29" class="node">
<title>Steven</title>
<ellipse fill="lightblue" stroke="black" cx="2481.9" cy="-918.91" rx="42.79" ry="18"/>
<text text-anchor="middle" x="2481.9" y="-915.21" font-family="Times,serif" font-size="14.00">Steven</text>
</g>
<!-- Jef -->
<g id="node31" class="node">
<title>Jef</title>
<ellipse fill="lightblue" stroke="black" cx="2454.28" cy="-1434.16" rx="27" ry="18"/>
<text text-anchor="middle" x="2454.28" y="-1430.46" font-family="Times,serif" font-size="14.00">Jef</text>
</g>
<!-- Mike Stabnow -->
<g id="node32" class="node">
<title>Mike Stabnow</title>
<ellipse fill="lightblue" stroke="black" cx="2521.47" cy="-1220.59" rx="77.19" ry="18"/>
<text text-anchor="middle" x="2521.47" y="-1216.89" font-family="Times,serif" font-size="14.00">Mike Stabnow</text>
</g>
<!-- Jon Yu -->
<g id="node33" class="node">
<title>Jon Yu</title>
<ellipse fill="lightblue" stroke="black" cx="1698.59" cy="-1977.61" rx="39.79" ry="18"/>
<text text-anchor="middle" x="1698.59" y="-1973.91" font-family="Times,serif" font-size="14.00">Jon Yu</text>
</g>
<!-- Sahil -->
<g id="node34" class="node">
<title>Sahil</title>
<ellipse fill="lightblue" stroke="black" cx="1847.13" cy="-2013.24" rx="34.39" ry="18"/>
<text text-anchor="middle" x="1847.13" y="-2009.54" font-family="Times,serif" font-size="14.00">Sahil</text>
</g>
<!-- Lokesh -->
<g id="node35" class="node">
<title>Lokesh</title>
<ellipse fill="lightblue" stroke="black" cx="2154.9" cy="-1929.68" rx="43.59" ry="18"/>
<text text-anchor="middle" x="2154.9" y="-1925.98" font-family="Times,serif" font-size="14.00">Lokesh</text>
</g>
<!-- Ruthvik -->
<g id="node36" class="node">
<title>Ruthvik</title>
<ellipse fill="lightblue" stroke="black" cx="2263.29" cy="-1822.76" rx="46.59" ry="18"/>
<text text-anchor="middle" x="2263.29" y="-1819.06" font-family="Times,serif" font-size="14.00">Ruthvik</text>
</g>
<!-- David Ward -->
<g id="node37" class="node">
<title>David Ward</title>
<ellipse fill="lightblue" stroke="black" cx="2007.18" cy="-1997.75" rx="64.99" ry="18"/>
<text text-anchor="middle" x="2007.18" y="-1994.05" font-family="Times,serif" font-size="14.00">David Ward</text>
</g>
<!-- Adam -->
<g id="node38" class="node">
<title>Adam</title>
<ellipse fill="lightblue" stroke="black" cx="965.06" cy="-1672.28" rx="37.09" ry="18"/>
<text text-anchor="middle" x="965.06" y="-1668.58" font-family="Times,serif" font-size="14.00">Adam</text>
</g>
<!-- Karl -->
<g id="node39" class="node">
<title>Karl</title>
<ellipse fill="lightblue" stroke="black" cx="488.1" cy="-1222.06" rx="30.59" ry="18"/>
<text text-anchor="middle" x="488.1" y="-1218.36" font-family="Times,serif" font-size="14.00">Karl</text>
</g>
<!-- Matt -->
<g id="node40" class="node">
<title>Matt</title>
<ellipse fill="lightblue" stroke="black" cx="752.66" cy="-1594.72" rx="33.29" ry="18"/>
<text text-anchor="middle" x="752.66" y="-1591.02" font-family="Times,serif" font-size="14.00">Matt</text>
</g>
<!-- Peter -->
<g id="node41" class="node">
<title>Peter</title>
<ellipse fill="lightblue" stroke="black" cx="834.29" cy="-1717.5" rx="36" ry="18"/>
<text text-anchor="middle" x="834.29" y="-1713.8" font-family="Times,serif" font-size="14.00">Peter</text>
</g>
<!-- Kevin -->
<g id="node42" class="node">
<title>Kevin</title>
<ellipse fill="lightblue" stroke="black" cx="518.73" cy="-1026.79" rx="36.29" ry="18"/>
<text text-anchor="middle" x="518.73" y="-1023.09" font-family="Times,serif" font-size="14.00">Kevin</text>
</g>
<!-- Bob -->
<g id="node44" class="node">
<title>Bob</title>
<ellipse fill="lightblue" stroke="black" cx="870.46" cy="-314.67" rx="28.7" ry="18"/>
<text text-anchor="middle" x="870.46" y="-310.97" font-family="Times,serif" font-size="14.00">Bob</text>
</g>
<!-- Gary -->
<g id="node45" class="node">
<title>Gary</title>
<ellipse fill="lightblue" stroke="black" cx="134.17" cy="-622.21" rx="33.29" ry="18"/>
<text text-anchor="middle" x="134.17" y="-618.51" font-family="Times,serif" font-size="14.00">Gary</text>
</g>
<!-- Michael Scheetz -->
<g id="node46" class="node">
<title>Michael Scheetz</title>
<ellipse fill="lightblue" stroke="black" cx="2554.57" cy="-998.22" rx="87.18" ry="18"/>
<text text-anchor="middle" x="2554.57" y="-994.52" font-family="Times,serif" font-size="14.00">Michael Scheetz</text>
</g>
<!-- Don -->
<g id="node47" class="node">
<title>Don</title>
<ellipse fill="lightblue" stroke="black" cx="2585.36" cy="-1118.27" rx="29.5" ry="18"/>
<text text-anchor="middle" x="2585.36" y="-1114.57" font-family="Times,serif" font-size="14.00">Don</text>
</g>
<!-- Matt Bishop -->
<g id="node48" class="node">
<title>Matt Bishop</title>
<ellipse fill="lightblue" stroke="black" cx="1540.57" cy="-118.08" rx="67.69" ry="18"/>
<text text-anchor="middle" x="1540.57" y="-114.38" font-family="Times,serif" font-size="14.00">Matt Bishop</text>
</g>
<!-- Deceased -->
<g id="node49" class="node">
<title>Deceased</title>
<ellipse fill="black" stroke="black" cx="276.25" cy="-1497.59" rx="55.49" ry="18"/>
<text text-anchor="middle" x="276.25" y="-1493.89" font-family="Times,serif" font-size="14.00" fill="white">Deceased</text>
</g>
<!-- Deceased&#45;&gt;Andy -->
<g id="edge30" class="edge">
<title>Deceased&#45;&gt;Andy</title>
<path fill="none" stroke="black" d="M331.14,-1500.48C391.27,-1503.65 486.58,-1508.67 542.42,-1511.6"/>
<polygon fill="black" stroke="black" points="542.53,-1515.12 552.7,-1512.15 542.9,-1508.13 542.53,-1515.12"/>
</g>
<!-- Deceased&#45;&gt;Karl -->
<g id="edge31" class="edge">
<title>Deceased&#45;&gt;Karl</title>
<path fill="none" stroke="black" d="M289.82,-1479.94C326.41,-1432.36 427.11,-1301.38 469.21,-1246.62"/>
<polygon fill="black" stroke="black" points="472.13,-1248.57 475.45,-1238.51 466.58,-1244.31 472.13,-1248.57"/>
</g>
<!-- Friends&#45;&gt;Alex -->
<g id="edge33" class="edge">
<title>Friends&#45;&gt;Alex</title>
<path fill="none" stroke="black" d="M1665.72,-1200.13C1634.75,-1231.25 1568.65,-1297.7 1533.54,-1332.99"/>
<polygon fill="black" stroke="black" points="1530.7,-1330.88 1526.13,-1340.44 1535.67,-1335.82 1530.7,-1330.88"/>
</g>
<!-- Friends&#45;&gt;Andy Jenkins -->
<g id="edge37" class="edge">
<title>Friends&#45;&gt;Andy Jenkins</title>
<path fill="none" stroke="black" d="M1672.99,-1201.05C1643.09,-1256.97 1550.95,-1429.25 1515.05,-1496.38"/>
<polygon fill="black" stroke="black" points="1511.8,-1495.02 1510.17,-1505.49 1517.98,-1498.32 1511.8,-1495.02"/>
</g>
<!-- Friends&#45;&gt;Cole -->
<g id="edge38" class="edge">
<title>Friends&#45;&gt;Cole</title>
<path fill="none" stroke="black" d="M1645.78,-1194.32C1589.43,-1211.33 1482.23,-1243.69 1425.35,-1260.86"/>
<polygon fill="black" stroke="black" points="1424.23,-1257.54 1415.67,-1263.78 1426.25,-1264.24 1424.23,-1257.54"/>
</g>
<!-- Friends&#45;&gt;Pat -->
<g id="edge36" class="edge">
<title>Friends&#45;&gt;Pat</title>
<path fill="none" stroke="black" d="M1712.71,-1196.88C1772.32,-1223.82 1904.63,-1283.61 1965.55,-1311.15"/>
<polygon fill="black" stroke="black" points="1964.14,-1314.35 1974.7,-1315.28 1967.03,-1307.97 1964.14,-1314.35"/>
</g>
<!-- Friends&#45;&gt;Joe -->
<g id="edge34" class="edge">
<title>Friends&#45;&gt;Joe</title>
<path fill="none" stroke="black" d="M1692.16,-1201.18C1716.45,-1246.4 1780.27,-1365.2 1808.72,-1418.16"/>
<polygon fill="black" stroke="black" points="1805.79,-1420.1 1813.6,-1427.25 1811.95,-1416.79 1805.79,-1420.1"/>
</g>
<!-- Friends&#45;&gt;Kyle -->
<g id="edge35" class="edge">
<title>Friends&#45;&gt;Kyle</title>
<path fill="none" stroke="black" d="M1720.67,-1172.95C1793.45,-1153.35 1951.33,-1110.82 2024.1,-1091.21"/>
<polygon fill="black" stroke="black" points="2025.45,-1094.47 2034.2,-1088.49 2023.63,-1087.72 2025.45,-1094.47"/>
</g>
<!-- IRC -->
<g id="node61" class="node">
<title>IRC</title>
<ellipse fill="none" stroke="black" cx="1712.2" cy="-1495.81" rx="27.9" ry="18"/>
<text text-anchor="middle" x="1712.2" y="-1492.11" font-family="Times,serif" font-size="14.00">IRC</text>
</g>
<!-- Friends&#45;&gt;IRC -->
<g id="edge39" class="edge">
<title>Friends&#45;&gt;IRC</title>
<path fill="none" stroke="black" d="M1684.25,-1201.39C1689.2,-1253.61 1703.53,-1404.5 1709.51,-1467.57"/>
<polygon fill="black" stroke="black" points="1706.04,-1467.98 1710.47,-1477.6 1713.01,-1467.31 1706.04,-1467.98"/>
</g>
<!-- Immediate family -->
<g id="node57" class="node">
<title>Immediate family</title>
<ellipse fill="none" stroke="black" cx="927.08" cy="-651.63" rx="92.08" ry="18"/>
<text text-anchor="middle" x="927.08" y="-647.93" font-family="Times,serif" font-size="14.00">Immediate family</text>
</g>
<!-- Family&#45;&gt;Immediate family -->
<g id="edge13" class="edge">
<title>Family&#45;&gt;Immediate family</title>
<path fill="none" stroke="black" d="M1099.84,-958.54C1069.44,-904.54 978.61,-743.17 942.31,-678.69"/>
<polygon fill="black" stroke="black" points="945.32,-676.9 937.36,-669.9 939.22,-680.33 945.32,-676.9"/>
</g>
<!-- Mom&#39;s side -->
<g id="node58" class="node">
<title>Mom&#39;s side</title>
<ellipse fill="none" stroke="black" cx="772.64" cy="-972.55" rx="63.89" ry="18"/>
<text text-anchor="middle" x="772.64" y="-968.85" font-family="Times,serif" font-size="14.00">Mom&#39;s side</text>
</g>
<!-- Family&#45;&gt;Mom&#39;s side -->
<g id="edge14" class="edge">
<title>Family&#45;&gt;Mom&#39;s side</title>
<path fill="none" stroke="black" d="M1067.56,-975.98C1012.19,-975.33 914.33,-974.2 846.61,-973.41"/>
<polygon fill="black" stroke="black" points="846.47,-969.91 836.43,-973.29 846.39,-976.91 846.47,-969.91"/>
</g>
<!-- Dad&#39;s side -->
<g id="node59" class="node">
<title>Dad&#39;s side</title>
<ellipse fill="none" stroke="black" cx="929.35" cy="-1335.19" rx="58.49" ry="18"/>
<text text-anchor="middle" x="929.35" y="-1331.49" font-family="Times,serif" font-size="14.00">Dad&#39;s side</text>
</g>
<!-- Family&#45;&gt;Dad&#39;s side -->
<g id="edge15" class="edge">
<title>Family&#45;&gt;Dad&#39;s side</title>
<path fill="none" stroke="black" d="M1100.98,-994.26C1071.61,-1052.59 978.12,-1238.3 942.92,-1308.22"/>
<polygon fill="black" stroke="black" points="939.73,-1306.78 938.36,-1317.29 945.98,-1309.93 939.73,-1306.78"/>
</g>
<!-- Current coworkers -->
<g id="node53" class="node">
<title>Current coworkers</title>
<ellipse fill="none" stroke="black" cx="1925" cy="-1671.2" rx="98.28" ry="18"/>
<text text-anchor="middle" x="1925" y="-1667.5" font-family="Times,serif" font-size="14.00">Current coworkers</text>
</g>
<!-- Coworkers&#45;&gt;Current coworkers -->
<g id="edge4" class="edge">
<title>Coworkers&#45;&gt;Current coworkers</title>
<path fill="none" stroke="black" d="M1865.04,-1230.25C1874.59,-1300.49 1909.43,-1556.65 1921.13,-1642.75"/>
<polygon fill="black" stroke="black" points="1917.69,-1643.4 1922.51,-1652.83 1924.63,-1642.45 1917.69,-1643.4"/>
</g>
<!-- Previous coworkers -->
<g id="node54" class="node">
<title>Previous coworkers</title>
<ellipse fill="none" stroke="black" cx="2240.3" cy="-1176.16" rx="102.08" ry="18"/>
<text text-anchor="middle" x="2240.3" y="-1172.46" font-family="Times,serif" font-size="14.00">Previous coworkers</text>
</g>
<!-- Coworkers&#45;&gt;Previous coworkers -->
<g id="edge5" class="edge">
<title>Coworkers&#45;&gt;Previous coworkers</title>
<path fill="none" stroke="black" d="M1920.37,-1206.73C1978.77,-1201.15 2070.17,-1192.42 2140.35,-1185.71"/>
<polygon fill="black" stroke="black" points="2140.92,-1189.17 2150.54,-1184.73 2140.26,-1182.2 2140.92,-1189.17"/>
</g>
<!-- Current coworkers&#45;&gt;Jon Yu -->
<g id="edge66" class="edge">
<title>Current coworkers&#45;&gt;Jon Yu</title>
<path fill="none" stroke="black" d="M1911.52,-1689.45C1872.95,-1741.64 1762.13,-1891.62 1717.52,-1951.99"/>
<polygon fill="black" stroke="black" points="1714.57,-1950.1 1711.44,-1960.22 1720.2,-1954.26 1714.57,-1950.1"/>
</g>
<!-- Current coworkers&#45;&gt;Sahil -->
<g id="edge65" class="edge">
<title>Current coworkers&#45;&gt;Sahil</title>
<path fill="none" stroke="black" d="M1920.82,-1689.59C1907.95,-1746.1 1868.94,-1917.45 1853.51,-1985.22"/>
<polygon fill="black" stroke="black" points="1850.05,-1984.65 1851.24,-1995.18 1856.87,-1986.2 1850.05,-1984.65"/>
</g>
<!-- Current coworkers&#45;&gt;Lokesh -->
<g id="edge68" class="edge">
<title>Current coworkers&#45;&gt;Lokesh</title>
<path fill="none" stroke="black" d="M1940.81,-1688.97C1980.86,-1734.01 2086.48,-1852.75 2132.7,-1904.73"/>
<polygon fill="black" stroke="black" points="2130.33,-1907.33 2139.59,-1912.47 2135.56,-1902.67 2130.33,-1907.33"/>
</g>
<!-- Current coworkers&#45;&gt;Ruthvik -->
<g id="edge67" class="edge">
<title>Current coworkers&#45;&gt;Ruthvik</title>
<path fill="none" stroke="black" d="M1962.5,-1688C2026.77,-1716.79 2157.42,-1775.33 2223.34,-1804.86"/>
<polygon fill="black" stroke="black" points="2222.02,-1808.11 2232.58,-1809 2224.89,-1801.72 2222.02,-1808.11"/>
</g>
<!-- Current coworkers&#45;&gt;David Ward -->
<g id="edge64" class="edge">
<title>Current coworkers&#45;&gt;David Ward</title>
<path fill="none" stroke="black" d="M1929.54,-1689.22C1943.15,-1743.3 1983.71,-1904.49 2000.15,-1969.8"/>
<polygon fill="black" stroke="black" points="1996.83,-1970.94 2002.66,-1979.78 2003.61,-1969.23 1996.83,-1970.94"/>
</g>
<!-- Previous coworkers&#45;&gt;Liza -->
<g id="edge62" class="edge">
<title>Previous coworkers&#45;&gt;Liza</title>
<path fill="none" stroke="black" d="M2233.03,-1158.18C2213.29,-1109.39 2158.62,-974.23 2135.09,-916.05"/>
<polygon fill="black" stroke="black" points="2138.2,-914.39 2131.2,-906.43 2131.71,-917.02 2138.2,-914.39"/>
</g>
<!-- Previous coworkers&#45;&gt;Pat -->
<g id="edge63" class="edge">
<title>Previous coworkers&#45;&gt;Pat</title>
<path fill="none" stroke="black" d="M2211.96,-1193.58C2165.38,-1222.23 2073.14,-1278.95 2026.23,-1307.8"/>
<polygon fill="black" stroke="black" points="2024.17,-1304.96 2017.48,-1313.18 2027.83,-1310.92 2024.17,-1304.96"/>
</g>
<!-- Previous coworkers&#45;&gt;Kyle -->
<g id="edge59" class="edge">
<title>Previous coworkers&#45;&gt;Kyle</title>
<path fill="none" stroke="black" d="M2208.05,-1158.91C2175.67,-1141.6 2126.09,-1115.08 2093.91,-1097.88"/>
<polygon fill="black" stroke="black" points="2095.4,-1094.7 2084.93,-1093.07 2092.1,-1100.87 2095.4,-1094.7"/>
</g>
<!-- Previous coworkers&#45;&gt;Wade -->
<g id="edge57" class="edge">
<title>Previous coworkers&#45;&gt;Wade</title>
<path fill="none" stroke="black" d="M2271.69,-1193.4C2328.9,-1224.84 2449.67,-1291.19 2508.26,-1323.38"/>
<polygon fill="black" stroke="black" points="2506.66,-1326.5 2517.11,-1328.25 2510.03,-1320.36 2506.66,-1326.5"/>
</g>
<!-- Previous coworkers&#45;&gt;Corey -->
<g id="edge56" class="edge">
<title>Previous coworkers&#45;&gt;Corey</title>
<path fill="none" stroke="black" d="M2246.82,-1194.52C2264.88,-1245.43 2315.66,-1388.52 2337.2,-1449.25"/>
<polygon fill="black" stroke="black" points="2334,-1450.67 2340.64,-1458.92 2340.59,-1448.33 2334,-1450.67"/>
</g>
<!-- Previous coworkers&#45;&gt;Steven -->
<g id="edge54" class="edge">
<title>Previous coworkers&#45;&gt;Steven</title>
<path fill="none" stroke="black" d="M2257.29,-1158.07C2299.79,-1112.81 2410.75,-994.67 2458.97,-943.32"/>
<polygon fill="black" stroke="black" points="2461.59,-945.65 2465.88,-935.96 2456.49,-940.86 2461.59,-945.65"/>
</g>
<!-- Previous coworkers&#45;&gt;Jef -->
<g id="edge55" class="edge">
<title>Previous coworkers&#45;&gt;Jef</title>
<path fill="none" stroke="black" d="M2255.35,-1194.3C2293.19,-1239.93 2392.34,-1359.48 2434.67,-1410.51"/>
<polygon fill="black" stroke="black" points="2432.11,-1412.91 2441.19,-1418.38 2437.5,-1408.45 2432.11,-1412.91"/>
</g>
<!-- Previous coworkers&#45;&gt;Mike Stabnow -->
<g id="edge58" class="edge">
<title>Previous coworkers&#45;&gt;Mike Stabnow</title>
<path fill="none" stroke="black" d="M2316.39,-1188.18C2357.02,-1194.6 2406.83,-1202.47 2447.18,-1208.85"/>
<polygon fill="black" stroke="black" points="2446.81,-1212.33 2457.23,-1210.44 2447.9,-1205.42 2446.81,-1212.33"/>
</g>
<!-- Previous coworkers&#45;&gt;Michael Scheetz -->
<g id="edge61" class="edge">
<title>Previous coworkers&#45;&gt;Michael Scheetz</title>
<path fill="none" stroke="black" d="M2270.72,-1158.93C2328.13,-1126.43 2452.35,-1056.1 2515.7,-1020.22"/>
<polygon fill="black" stroke="black" points="2517.62,-1023.16 2524.6,-1015.19 2514.17,-1017.07 2517.62,-1023.16"/>
</g>
<!-- Previous coworkers&#45;&gt;Don -->
<g id="edge60" class="edge">
<title>Previous coworkers&#45;&gt;Don</title>
<path fill="none" stroke="black" d="M2314.32,-1163.74C2385.73,-1151.76 2490.98,-1134.11 2546.99,-1124.71"/>
<polygon fill="black" stroke="black" points="2547.58,-1128.16 2556.86,-1123.06 2546.42,-1121.26 2547.58,-1128.16"/>
</g>
<!-- Ex&#45;Friends&#45;&gt;Marsha -->
<g id="edge50" class="edge">
<title>Ex&#45;Friends&#45;&gt;Marsha</title>
<path fill="none" stroke="black" d="M1486.46,-495.73C1449.11,-453.37 1353.46,-344.9 1310.1,-295.72"/>
<polygon fill="black" stroke="black" points="1312.6,-293.26 1303.36,-288.08 1307.35,-297.89 1312.6,-293.26"/>
</g>
<!-- Ex&#45;Friends&#45;&gt;Nels -->
<g id="edge49" class="edge">
<title>Ex&#45;Friends&#45;&gt;Nels</title>
<path fill="none" stroke="black" d="M1513.29,-495.05C1551.98,-433.92 1677.85,-235.03 1723.11,-163.53"/>
<polygon fill="black" stroke="black" points="1726.31,-165.02 1728.7,-154.69 1720.39,-161.27 1726.31,-165.02"/>
</g>
<!-- Ex&#45;Friends&#45;&gt;Ben Cameron -->
<g id="edge47" class="edge">
<title>Ex&#45;Friends&#45;&gt;Ben Cameron</title>
<path fill="none" stroke="black" d="M1520.59,-495.67C1564.5,-454.73 1674.07,-352.57 1724.85,-305.23"/>
<polygon fill="black" stroke="black" points="1727.55,-307.5 1732.48,-298.12 1722.77,-302.38 1727.55,-307.5"/>
</g>
<!-- Ex&#45;Friends&#45;&gt;Dave Kapp -->
<g id="edge51" class="edge">
<title>Ex&#45;Friends&#45;&gt;Dave Kapp</title>
<path fill="none" stroke="black" d="M1495.81,-494.89C1477.3,-438.75 1421.19,-268.51 1398.99,-201.17"/>
<polygon fill="black" stroke="black" points="1402.19,-199.69 1395.73,-191.28 1395.54,-201.88 1402.19,-199.69"/>
</g>
<!-- Ex&#45;Friends&#45;&gt;Ben Wayne -->
<g id="edge46" class="edge">
<title>Ex&#45;Friends&#45;&gt;Ben Wayne</title>
<path fill="none" stroke="black" d="M1555.02,-504.31C1598.95,-497 1661.44,-486.6 1708.22,-478.81"/>
<polygon fill="black" stroke="black" points="1708.95,-482.24 1718.24,-477.14 1707.8,-475.33 1708.95,-482.24"/>
</g>
<!-- Ex&#45;Friends&#45;&gt;James -->
<g id="edge48" class="edge">
<title>Ex&#45;Friends&#45;&gt;James</title>
<path fill="none" stroke="black" d="M1465.24,-498.69C1416.69,-479.49 1331.36,-445.73 1281.62,-426.06"/>
<polygon fill="black" stroke="black" points="1282.76,-422.74 1272.17,-422.32 1280.18,-429.25 1282.76,-422.74"/>
</g>
<!-- Ex&#45;Friends&#45;&gt;Michael Vincent -->
<g id="edge45" class="edge">
<title>Ex&#45;Friends&#45;&gt;Michael Vincent</title>
<path fill="none" stroke="black" d="M1508.77,-495.22C1523.3,-457.64 1557.02,-370.44 1574.28,-325.81"/>
<polygon fill="black" stroke="black" points="1577.55,-327.04 1577.89,-316.45 1571.02,-324.51 1577.55,-327.04"/>
</g>
<!-- Ex&#45;Friends&#45;&gt;Matt Bishop -->
<g id="edge52" class="edge">
<title>Ex&#45;Friends&#45;&gt;Matt Bishop</title>
<path fill="none" stroke="black" d="M1503.59,-495.16C1509.75,-432.43 1530.27,-223.12 1537.79,-146.5"/>
<polygon fill="black" stroke="black" points="1541.31,-146.48 1538.8,-136.19 1534.34,-145.8 1541.31,-146.48"/>
</g>
<!-- Ex&#45;Lovers&#45;&gt;Mary -->
<g id="edge8" class="edge">
<title>Ex&#45;Lovers&#45;&gt;Mary</title>
<path fill="none" stroke="black" d="M1888.92,-724.57C1916.25,-681.8 1985.24,-573.83 2017.08,-523.99"/>
<polygon fill="black" stroke="black" points="2020.14,-525.7 2022.58,-515.39 2014.24,-521.93 2020.14,-525.7"/>
</g>
<!-- Ex&#45;Lovers&#45;&gt;Audrey -->
<g id="edge9" class="edge">
<title>Ex&#45;Lovers&#45;&gt;Audrey</title>
<path fill="none" stroke="black" d="M1883.2,-724.29C1901.31,-666.94 1957.12,-490.23 1978.84,-421.46"/>
<polygon fill="black" stroke="black" points="1982.23,-422.34 1981.9,-411.75 1975.56,-420.23 1982.23,-422.34"/>
</g>
<!-- Ex&#45;Lovers&#45;&gt;Bonnie -->
<g id="edge10" class="edge">
<title>Ex&#45;Lovers&#45;&gt;Bonnie</title>
<path fill="none" stroke="black" d="M1820.87,-743.29C1783.21,-743.77 1734.05,-744.41 1697.08,-744.89"/>
<polygon fill="black" stroke="black" points="1696.95,-741.39 1686.99,-745.02 1697.04,-748.39 1696.95,-741.39"/>
</g>
<!-- Ex&#45;Lovers&#45;&gt;Liza -->
<g id="edge11" class="edge">
<title>Ex&#45;Lovers&#45;&gt;Liza</title>
<path fill="none" stroke="black" d="M1904.3,-758.49C1950.63,-785.97 2045.25,-842.08 2093.83,-870.89"/>
<polygon fill="black" stroke="black" points="2092.24,-874.02 2102.62,-876.11 2095.81,-868 2092.24,-874.02"/>
</g>
<!-- Ex&#45;Lovers&#45;&gt;Dev -->
<g id="edge12" class="edge">
<title>Ex&#45;Lovers&#45;&gt;Dev</title>
<path fill="none" stroke="black" d="M1899.34,-725.84C1956.14,-682.49 2108.07,-566.56 2169.63,-519.57"/>
<polygon fill="black" stroke="black" points="2171.87,-522.27 2177.7,-513.42 2167.63,-516.7 2171.87,-522.27"/>
</g>
<!-- Immediate family&#45;&gt;Amy -->
<g id="edge17" class="edge">
<title>Immediate family&#45;&gt;Amy</title>
<path fill="none" stroke="black" d="M914.88,-633.58C877,-577.51 761.28,-406.25 717.37,-341.27"/>
<polygon fill="black" stroke="black" points="720.17,-339.15 711.67,-332.82 714.37,-343.07 720.17,-339.15"/>
</g>
<!-- Immediate family&#45;&gt;Linda -->
<g id="edge19" class="edge">
<title>Immediate family&#45;&gt;Linda</title>
<path fill="none" stroke="black" d="M887.88,-635.33C831.74,-611.99 729.15,-569.34 673.94,-546.39"/>
<polygon fill="black" stroke="black" points="675.11,-543.08 664.53,-542.48 672.42,-549.55 675.11,-543.08"/>
</g>
<!-- Immediate family&#45;&gt;Bob -->
<g id="edge18" class="edge">
<title>Immediate family&#45;&gt;Bob</title>
<path fill="none" stroke="black" d="M924.03,-633.51C914.7,-577.98 886.45,-409.83 875.18,-342.75"/>
<polygon fill="black" stroke="black" points="878.63,-342.16 873.52,-332.88 871.73,-343.32 878.63,-342.16"/>
</g>
<!-- Mom&#39;s side&#45;&gt;Nancy -->
<g id="edge22" class="edge">
<title>Mom&#39;s side&#45;&gt;Nancy</title>
<path fill="none" stroke="black" d="M758.01,-954.64C724.32,-913.38 641.19,-811.59 602.55,-764.26"/>
<polygon fill="black" stroke="black" points="605.12,-761.88 596.09,-756.35 599.7,-766.31 605.12,-761.88"/>
</g>
<!-- Mom&#39;s side&#45;&gt;Karl -->
<g id="edge24" class="edge">
<title>Mom&#39;s side&#45;&gt;Karl</title>
<path fill="none" stroke="black" d="M753.08,-989.7C702.7,-1033.88 568.53,-1151.53 512.85,-1200.35"/>
<polygon fill="black" stroke="black" points="510.44,-1197.81 505.23,-1207.04 515.05,-1203.08 510.44,-1197.81"/>
</g>
<!-- Mom&#39;s side&#45;&gt;Kevin -->
<g id="edge23" class="edge">
<title>Mom&#39;s side&#45;&gt;Kevin</title>
<path fill="none" stroke="black" d="M721.56,-983.46C674.81,-993.45 606.37,-1008.07 562.18,-1017.51"/>
<polygon fill="black" stroke="black" points="561.37,-1014.1 552.32,-1019.61 562.83,-1020.95 561.37,-1014.1"/>
</g>
<!-- Gary and Judy -->
<g id="node60" class="node">
<title>Gary and Judy</title>
<ellipse fill="none" stroke="black" cx="392.23" cy="-845.58" rx="76.89" ry="18"/>
<text text-anchor="middle" x="392.23" y="-841.88" font-family="Times,serif" font-size="14.00">Gary and Judy</text>
</g>
<!-- Mom&#39;s side&#45;&gt;Gary and Judy -->
<g id="edge16" class="edge">
<title>Mom&#39;s side&#45;&gt;Gary and Judy</title>
<path fill="none" stroke="black" d="M731.21,-958.72C661.96,-935.61 522.75,-889.14 446.03,-863.53"/>
<polygon fill="black" stroke="black" points="447.13,-860.21 436.54,-860.37 444.92,-866.85 447.13,-860.21"/>
</g>
<!-- Dad&#39;s side&#45;&gt;Judy Besen -->
<g id="edge29" class="edge">
<title>Dad&#39;s side&#45;&gt;Judy Besen</title>
<path fill="none" stroke="black" d="M871.52,-1337.9C830.26,-1339.84 774.49,-1342.46 730.33,-1344.54"/>
<polygon fill="black" stroke="black" points="730.05,-1341.05 720.23,-1345.01 730.38,-1348.04 730.05,-1341.05"/>
</g>
<!-- Dad&#39;s side&#45;&gt;Andy -->
<g id="edge28" class="edge">
<title>Dad&#39;s side&#45;&gt;Andy</title>
<path fill="none" stroke="black" d="M899.59,-1350.74C836.1,-1383.92 687.71,-1461.49 620.92,-1496.39"/>
<polygon fill="black" stroke="black" points="619.3,-1493.29 612.06,-1501.03 622.54,-1499.5 619.3,-1493.29"/>
</g>
<!-- Dad&#39;s side&#45;&gt;Adam -->
<g id="edge25" class="edge">
<title>Dad&#39;s side&#45;&gt;Adam</title>
<path fill="none" stroke="black" d="M931.27,-1353.31C937.14,-1408.75 954.9,-1576.4 962.04,-1643.78"/>
<polygon fill="black" stroke="black" points="958.59,-1644.49 963.13,-1654.07 965.55,-1643.76 958.59,-1644.49"/>
</g>
<!-- Dad&#39;s side&#45;&gt;Matt -->
<g id="edge26" class="edge">
<title>Dad&#39;s side&#45;&gt;Matt</title>
<path fill="none" stroke="black" d="M917.2,-1353.03C886.47,-1398.17 805.52,-1517.07 769.9,-1569.4"/>
<polygon fill="black" stroke="black" points="766.93,-1567.55 764.19,-1577.78 772.72,-1571.48 766.93,-1567.55"/>
</g>
<!-- Dad&#39;s side&#45;&gt;Peter -->
<g id="edge27" class="edge">
<title>Dad&#39;s side&#45;&gt;Peter</title>
<path fill="none" stroke="black" d="M924.83,-1353.37C909.57,-1414.75 859.87,-1614.63 841.34,-1689.15"/>
<polygon fill="black" stroke="black" points="837.86,-1688.65 838.84,-1699.2 844.65,-1690.34 837.86,-1688.65"/>
</g>
<!-- Gary and Judy&#45;&gt;Judy Glades -->
<g id="edge21" class="edge">
<title>Gary and Judy&#45;&gt;Judy Glades</title>
<path fill="none" stroke="black" d="M346.82,-860.24C286.84,-879.6 181.44,-913.63 118.12,-934.08"/>
<polygon fill="black" stroke="black" points="116.77,-930.83 108.33,-937.24 118.93,-937.49 116.77,-930.83"/>
</g>
<!-- Gary and Judy&#45;&gt;Gary -->
<g id="edge20" class="edge">
<title>Gary and Judy&#45;&gt;Gary</title>
<path fill="none" stroke="black" d="M371.98,-828.05C325.4,-787.73 210.73,-688.48 159.55,-644.18"/>
<polygon fill="black" stroke="black" points="161.75,-641.45 151.9,-637.55 157.17,-646.75 161.75,-641.45"/>
</g>
<!-- IRC&#45;&gt;Alex -->
<g id="edge41" class="edge">
<title>IRC&#45;&gt;Alex</title>
<path fill="none" stroke="black" d="M1692.86,-1482.42C1657.05,-1457.62 1580.3,-1404.47 1538.7,-1375.66"/>
<polygon fill="black" stroke="black" points="1540.6,-1372.72 1530.38,-1369.91 1536.61,-1378.48 1540.6,-1372.72"/>
</g>
<!-- IRC&#45;&gt;Mike -->
<g id="edge40" class="edge">
<title>IRC&#45;&gt;Mike</title>
<path fill="none" stroke="black" d="M1708.69,-1513.98C1697.47,-1572.15 1662.39,-1754.09 1648.85,-1824.31"/>
<polygon fill="black" stroke="black" points="1645.4,-1823.72 1646.95,-1834.2 1652.28,-1825.05 1645.4,-1823.72"/>
</g>
<!-- IRC&#45;&gt;Andy Jenkins -->
<g id="edge44" class="edge">
<title>IRC&#45;&gt;Andy Jenkins</title>
<path fill="none" stroke="black" d="M1684.52,-1499.43C1656.54,-1503.1 1612.09,-1508.92 1573.89,-1513.93"/>
<polygon fill="black" stroke="black" points="1573.27,-1510.48 1563.81,-1515.25 1574.18,-1517.42 1573.27,-1510.48"/>
</g>
<!-- IRC&#45;&gt;Pat -->
<g id="edge43" class="edge">
<title>IRC&#45;&gt;Pat</title>
<path fill="none" stroke="black" d="M1732.71,-1483.56C1782.65,-1453.74 1910.72,-1377.28 1968.43,-1342.82"/>
<polygon fill="black" stroke="black" points="1970.27,-1345.8 1977.06,-1337.67 1966.68,-1339.79 1970.27,-1345.8"/>
</g>
<!-- IRC&#45;&gt;Joe -->
<g id="edge42" class="edge">
<title>IRC&#45;&gt;Joe</title>
<path fill="none" stroke="black" d="M1735.1,-1485.13C1751.22,-1477.62 1773.01,-1467.47 1790.82,-1459.17"/>
<polygon fill="black" stroke="black" points="1792.67,-1462.17 1800.25,-1454.78 1789.71,-1455.83 1792.67,-1462.17"/>
</g>
<!-- Junior Rangers -->
<g id="node62" class="node">
<title>Junior Rangers</title>
<polygon fill="none" stroke="black" points="1832.07,-881.76 1709.07,-881.76 1709.07,-845.76 1832.07,-845.76 1832.07,-881.76"/>
<text text-anchor="middle" x="1770.57" y="-860.06" font-family="Times,serif" font-size="14.00">Junior Rangers</text>
</g>
<!-- Junior Rangers&#45;&gt;Me -->
<g id="edge69" class="edge">
<title>Junior Rangers&#45;&gt;Me</title>
<path fill="none" stroke="black" d="M1708.97,-876.32C1670.94,-884.08 1623.31,-893.79 1590.45,-900.49"/>
<polygon fill="black" stroke="black" points="1589.43,-897.12 1580.33,-902.55 1590.83,-903.98 1589.43,-897.12"/>
</g>
<!-- Junior Rangers&#45;&gt;Liza -->
<g id="edge70" class="edge">
<title>Junior Rangers&#45;&gt;Liza</title>
<path fill="none" stroke="black" d="M1832.15,-868.13C1904.52,-873.26 2022.51,-881.63 2083.99,-885.99"/>
<polygon fill="black" stroke="black" points="2083.84,-889.49 2094.07,-886.71 2084.34,-882.51 2083.84,-889.49"/>
</g>
<!-- Junior Rangers&#45;&gt;Ben Wayne -->
<g id="edge71" class="edge">
<title>Junior Rangers&#45;&gt;Ben Wayne</title>
<path fill="none" stroke="black" d="M1770.67,-845.73C1771.01,-782.91 1772.14,-573.28 1772.55,-496.54"/>
<polygon fill="black" stroke="black" points="1776.06,-496.23 1772.61,-486.21 1769.06,-496.19 1776.06,-496.23"/>
</g>
<!-- High School -->
<g id="node63" class="node">
<title>High School</title>
<polygon fill="none" stroke="black" points="1735.66,-640.35 1632.66,-640.35 1632.66,-604.35 1735.66,-604.35 1735.66,-640.35"/>
<text text-anchor="middle" x="1684.16" y="-618.65" font-family="Times,serif" font-size="14.00">High School</text>
</g>
<!-- High School&#45;&gt;Me -->
<g id="edge72" class="edge">
<title>High School&#45;&gt;Me</title>
<path fill="none" stroke="black" d="M1675.66,-640.68C1654.11,-687.16 1597.02,-810.26 1568.39,-872.02"/>
<polygon fill="black" stroke="black" points="1565.08,-870.84 1564.05,-881.38 1571.43,-873.78 1565.08,-870.84"/>
</g>
<!-- High School&#45;&gt;Mary -->
<g id="edge74" class="edge">
<title>High School&#45;&gt;Mary</title>
<path fill="none" stroke="black" d="M1734.98,-604.28C1805.61,-579.16 1931.87,-534.25 1995.21,-511.72"/>
<polygon fill="black" stroke="black" points="1996.57,-514.95 2004.82,-508.3 1994.22,-508.36 1996.57,-514.95"/>
</g>
<!-- High School&#45;&gt;Audrey -->
<g id="edge73" class="edge">
<title>High School&#45;&gt;Audrey</title>
<path fill="none" stroke="black" d="M1708.22,-604.22C1763.27,-562.73 1898.23,-461.03 1958.14,-415.88"/>
<polygon fill="black" stroke="black" points="1960.54,-418.46 1966.42,-409.64 1956.32,-412.87 1960.54,-418.46"/>
</g>
<!-- High School&#45;&gt;Ben Cameron -->
<g id="edge77" class="edge">
<title>High School&#45;&gt;Ben Cameron</title>
<path fill="none" stroke="black" d="M1687.78,-603.97C1698.89,-547.48 1732.61,-376.18 1745.94,-308.43"/>
<polygon fill="black" stroke="black" points="1749.4,-308.97 1747.9,-298.48 1742.54,-307.62 1749.4,-308.97"/>
</g>
<!-- High School&#45;&gt;Ben Wayne -->
<g id="edge76" class="edge">
<title>High School&#45;&gt;Ben Wayne</title>
<path fill="none" stroke="black" d="M1694.66,-604.05C1710.19,-577 1739.36,-526.17 1757.31,-494.91"/>
<polygon fill="black" stroke="black" points="1760.55,-496.3 1762.49,-485.88 1754.48,-492.81 1760.55,-496.3"/>
</g>
<!-- High School&#45;&gt;Michael Vincent -->
<g id="edge75" class="edge">
<title>High School&#45;&gt;Michael Vincent</title>
<path fill="none" stroke="black" d="M1678.54,-604.01C1661.98,-550 1613.34,-391.29 1593.47,-326.47"/>
<polygon fill="black" stroke="black" points="1596.71,-325.09 1590.43,-316.55 1590.02,-327.14 1596.71,-325.09"/>
</g>
<!-- College -->
<g id="node64" class="node">
<title>College</title>
<polygon fill="none" stroke="black" points="1486.98,-1060.63 1416.98,-1060.63 1416.98,-1024.63 1486.98,-1024.63 1486.98,-1060.63"/>
<text text-anchor="middle" x="1451.98" y="-1038.93" font-family="Times,serif" font-size="14.00">College</text>
</g>
<!-- College&#45;&gt;Me -->
<g id="edge78" class="edge">
<title>College&#45;&gt;Me</title>
<path fill="none" stroke="black" d="M1465.4,-1024.53C1481.39,-1002.97 1508.39,-966.56 1527.9,-940.26"/>
<polygon fill="black" stroke="black" points="1530.8,-942.22 1533.95,-932.1 1525.18,-938.05 1530.8,-942.22"/>
</g>
<!-- College&#45;&gt;Bonnie -->
<g id="edge79" class="edge">
<title>College&#45;&gt;Bonnie</title>
<path fill="none" stroke="black" d="M1463.68,-1024.5C1496.41,-973.81 1588.9,-830.55 1627.02,-771.5"/>
<polygon fill="black" stroke="black" points="1629.96,-773.4 1632.44,-763.1 1624.08,-769.6 1629.96,-773.4"/>
</g>
<!-- College&#45;&gt;Alex -->
<g id="edge80" class="edge">
<title>College&#45;&gt;Alex</title>
<path fill="none" stroke="black" d="M1455.38,-1060.84C1465.16,-1113.22 1493.41,-1264.56 1505.22,-1327.82"/>
<polygon fill="black" stroke="black" points="1501.82,-1328.69 1507.1,-1337.88 1508.71,-1327.41 1501.82,-1328.69"/>
</g>
<!-- Grad school -->
<g id="node65" class="node">
<title>Grad school</title>
<polygon fill="none" stroke="black" points="1398.29,-976.66 1297.29,-976.66 1297.29,-940.66 1398.29,-940.66 1398.29,-976.66"/>
<text text-anchor="middle" x="1347.79" y="-954.96" font-family="Times,serif" font-size="14.00">Grad school</text>
</g>
<!-- Grad school&#45;&gt;Me -->
<g id="edge81" class="edge">
<title>Grad school&#45;&gt;Me</title>
<path fill="none" stroke="black" d="M1398.41,-946.18C1433.81,-937.45 1480.39,-925.96 1512.83,-917.96"/>
<polygon fill="black" stroke="black" points="1513.97,-921.29 1522.84,-915.5 1512.29,-914.49 1513.97,-921.29"/>
</g>
<!-- Grad school&#45;&gt;Cole -->
<g id="edge82" class="edge">
<title>Grad school&#45;&gt;Cole</title>
<path fill="none" stroke="black" d="M1350.11,-976.87C1356.78,-1029.26 1376.05,-1180.62 1384.11,-1243.89"/>
<polygon fill="black" stroke="black" points="1380.66,-1244.48 1385.39,-1253.95 1387.6,-1243.59 1380.66,-1244.48"/>
</g>
</g>
</svg>
